{"glyphs":{"0":{"ha":858,"x_min":0,"x_max":0,"o":"m 435 1032 b 61 507 207 1032 61 842 b 424 -14 61 176 201 -14 b 796 522 651 -14 796 185 b 435 1032 796 850 657 1032 z m 421 889 b 633 496 553 889 633 765 b 439 129 633 253 569 129 b 226 528 306 129 226 258 b 421 889 226 771 289 889 z "},"1":{"ha":699,"x_min":0,"x_max":0,"o":"m 568 0 b 603 35 590 0 603 13 l 597 983 b 563 1018 597 1006 585 1018 l 383 1018 b 340 1003 365 1018 353 1014 l 88 790 b 85 742 71 776 69 758 l 135 686 b 185 683 150 669 167 669 l 421 886 l 432 886 l 426 35 b 461 0 426 13 439 0 z "},"2":{"ha":857,"x_min":0,"x_max":0,"o":"m 354 150 l 354 157 l 514 332 b 765 758 657 489 765 618 b 453 1042 765 900 661 1042 b 101 782 256 1042 140 914 b 132 744 94 758 108 744 l 217 744 b 257 774 238 744 249 754 b 443 899 290 857 360 899 b 611 754 547 899 611 836 b 404 425 611 657 528 554 l 139 151 b 122 106 122 133 122 119 l 122 35 b 157 0 122 13 135 0 l 760 0 b 794 35 782 0 794 13 l 794 115 b 760 150 794 138 782 150 z "},"3":{"ha":851,"x_min":0,"x_max":0,"o":"m 608 542 b 758 761 715 588 758 672 b 440 1042 758 901 650 1042 b 88 782 236 1042 122 911 b 118 744 81 758 94 744 l 201 744 b 242 774 222 744 233 754 b 431 899 275 857 344 899 b 604 746 536 899 604 836 b 367 603 604 663 544 603 l 336 603 b 301 568 314 603 301 590 l 301 501 b 336 467 301 479 314 467 l 367 467 b 632 303 564 467 632 411 b 429 128 632 192 554 128 b 232 250 335 128 258 168 b 194 281 225 271 215 281 l 99 281 b 65 244 75 281 61 267 b 439 -17 90 114 217 -17 b 789 293 676 -17 789 132 b 608 542 789 404 736 496 z "},"4":{"ha":931,"x_min":0,"x_max":0,"o":"m 869 307 b 835 342 869 329 857 342 l 700 342 l 696 983 b 661 1018 696 1006 683 1018 l 561 1018 b 517 992 540 1018 529 1010 l 78 382 b 61 308 65 363 61 347 l 61 235 b 96 200 61 213 74 200 l 538 200 l 536 35 b 571 0 536 13 549 0 l 668 0 b 703 35 690 0 703 13 l 701 200 l 835 200 b 869 235 857 200 869 213 z m 538 342 l 221 342 l 221 346 l 533 785 l 540 785 z "},"5":{"ha":850,"x_min":0,"x_max":0,"o":"m 749 983 b 714 1018 749 1006 736 1018 l 194 1018 b 158 985 172 1018 160 1007 l 113 494 b 146 457 111 471 122 458 l 233 454 b 276 467 250 453 263 457 b 435 513 318 494 367 513 b 631 318 564 513 631 447 b 435 128 631 188 561 128 b 232 250 328 128 257 172 b 194 281 226 271 215 281 l 97 281 b 65 244 75 281 61 268 b 440 -17 89 113 224 -17 b 788 318 683 -17 788 144 b 457 657 788 508 664 657 b 285 618 396 657 344 646 l 272 618 l 296 869 l 714 869 b 749 904 736 869 749 882 z "},"6":{"ha":875,"x_min":0,"x_max":0,"o":"m 468 638 b 233 569 375 638 300 610 l 217 569 b 456 896 233 771 314 896 b 632 782 532 896 601 860 b 672 753 640 763 651 753 l 756 754 b 786 792 779 754 792 768 b 461 1042 753 932 638 1042 b 57 489 214 1042 57 832 b 442 -22 57 108 238 -22 b 813 310 642 -22 813 103 b 468 638 813 493 679 638 z m 454 124 b 217 419 339 124 233 178 b 442 492 281 464 356 492 b 660 299 606 492 660 390 b 454 124 660 185 575 124 z "},"7":{"ha":832,"x_min":0,"x_max":0,"o":"m 96 1018 b 61 983 74 1018 61 1006 l 61 904 b 96 869 61 882 74 869 l 588 869 l 588 857 b 176 40 439 610 301 338 b 204 0 167 17 178 0 l 325 0 b 365 28 344 0 357 8 b 751 860 481 329 607 608 b 769 917 764 882 769 900 l 769 983 b 735 1018 769 1006 757 1018 z "},"8":{"ha":864,"x_min":0,"x_max":0,"o":"m 432 1039 b 107 749 235 1039 107 915 b 214 543 107 656 147 586 l 214 538 b 57 276 142 499 57 415 b 432 -31 57 89 208 -31 b 807 276 658 -31 807 89 b 640 538 807 410 732 497 l 640 542 b 758 753 711 586 758 656 b 432 1039 758 914 629 1039 z m 432 901 b 603 744 535 901 603 836 b 432 588 603 657 542 588 b 261 744 322 588 261 657 b 432 901 261 836 328 901 z m 432 467 b 644 283 560 467 644 390 b 432 114 644 182 569 114 b 219 283 297 114 219 182 b 432 467 219 390 304 467 z "},"9":{"ha":906,"x_min":0,"x_max":0,"o":"m 467 1042 b 107 713 268 1042 107 917 b 439 390 107 528 235 390 b 672 458 529 390 604 418 l 690 458 b 447 125 676 244 594 125 b 265 238 368 125 294 160 b 226 267 258 258 247 268 l 136 265 b 106 226 113 264 100 250 b 442 -22 140 88 260 -22 b 849 525 692 -22 849 176 b 467 1042 849 914 667 1042 z m 465 533 b 260 722 308 533 260 631 b 456 897 260 836 336 897 b 689 604 568 897 671 843 b 465 533 625 563 549 533 z "},"A":{"ha":960,"x_min":0,"x_max":0,"o":"m 658 296 l 751 28 b 790 0 758 8 771 0 l 903 0 b 931 40 929 0 940 15 l 571 989 b 532 1017 564 1008 551 1017 l 428 1017 b 389 989 408 1017 396 1008 l 29 40 b 57 0 19 15 31 0 l 167 0 b 206 28 186 0 199 8 l 300 296 z m 606 444 l 353 444 l 481 806 z "},"Á":{"ha":960,"x_min":0,"x_max":0,"o":"m 643 1288 b 622 1331 661 1311 651 1331 l 558 1331 b 517 1306 539 1331 526 1324 l 432 1150 b 457 1108 419 1125 429 1108 l 472 1108 b 515 1129 490 1108 503 1114 z m 658 296 l 751 28 b 790 0 758 8 771 0 l 903 0 b 931 40 929 0 940 15 l 571 989 b 532 1017 564 1008 551 1017 l 428 1017 b 389 989 408 1017 396 1008 l 29 40 b 57 0 19 15 31 0 l 167 0 b 206 28 186 0 199 8 l 300 296 z m 606 444 l 353 444 l 481 806 z "},"Ă":{"ha":960,"x_min":0,"x_max":0,"o":"m 476 1093 b 682 1278 597 1093 682 1150 b 647 1300 682 1292 669 1300 l 617 1300 b 582 1278 594 1300 582 1292 b 476 1182 582 1207 539 1182 b 372 1278 417 1182 372 1207 b 338 1300 372 1292 360 1300 l 308 1300 b 274 1278 286 1300 274 1292 b 476 1093 274 1150 358 1093 z m 658 296 l 751 28 b 790 0 758 8 771 0 l 903 0 b 931 40 929 0 940 15 l 571 989 b 532 1017 564 1008 551 1017 l 428 1017 b 389 989 408 1017 396 1008 l 29 40 b 57 0 19 15 31 0 l 167 0 b 206 28 186 0 199 8 l 300 296 z m 606 444 l 353 444 l 481 806 z "},"Ǎ":{"ha":960,"x_min":0,"x_max":0,"o":"m 490 1108 b 533 1128 510 1108 522 1114 l 668 1288 b 649 1331 688 1311 678 1331 l 601 1331 b 558 1308 582 1331 569 1324 l 486 1194 l 472 1194 l 393 1308 b 351 1331 382 1324 369 1331 l 303 1331 b 283 1288 274 1331 264 1311 l 419 1128 b 463 1108 431 1114 443 1108 z m 658 296 l 751 28 b 790 0 758 8 771 0 l 903 0 b 931 40 929 0 940 15 l 571 989 b 532 1017 564 1008 551 1017 l 428 1017 b 389 989 408 1017 396 1008 l 29 40 b 57 0 19 15 31 0 l 167 0 b 206 28 186 0 199 8 l 300 296 z m 606 444 l 353 444 l 481 806 z "},"Â":{"ha":960,"x_min":0,"x_max":0,"o":"m 468 1244 l 482 1244 l 561 1131 b 603 1108 572 1115 585 1108 l 651 1108 b 671 1151 681 1108 690 1128 l 535 1311 b 492 1331 524 1325 511 1331 l 464 1331 b 421 1311 444 1331 432 1325 l 286 1151 b 306 1108 267 1128 276 1108 l 353 1108 b 396 1131 372 1108 385 1115 z m 658 296 l 751 28 b 790 0 758 8 771 0 l 903 0 b 931 40 929 0 940 15 l 571 989 b 532 1017 564 1008 551 1017 l 428 1017 b 389 989 408 1017 396 1008 l 29 40 b 57 0 19 15 31 0 l 167 0 b 206 28 186 0 199 8 l 300 296 z m 606 444 l 353 444 l 481 806 z "},"Ä":{"ha":960,"x_min":0,"x_max":0,"o":"m 433 1283 b 399 1318 433 1306 421 1318 l 340 1318 b 306 1283 318 1318 306 1306 l 306 1193 b 340 1158 306 1171 318 1158 l 399 1158 b 433 1193 421 1158 433 1171 z m 656 1283 b 621 1318 656 1306 643 1318 l 563 1318 b 528 1283 540 1318 528 1306 l 528 1193 b 563 1158 528 1171 540 1158 l 621 1158 b 656 1193 643 1158 656 1171 z m 658 296 l 751 28 b 790 0 758 8 771 0 l 903 0 b 931 40 929 0 940 15 l 571 989 b 532 1017 564 1008 551 1017 l 428 1017 b 389 989 408 1017 396 1008 l 29 40 b 57 0 19 15 31 0 l 167 0 b 206 28 186 0 199 8 l 300 296 z m 606 444 l 353 444 l 481 806 z "},"À":{"ha":960,"x_min":0,"x_max":0,"o":"m 517 1108 b 542 1150 544 1108 554 1125 l 457 1306 b 415 1331 447 1324 435 1331 l 351 1331 b 331 1288 322 1331 313 1311 l 458 1129 b 501 1108 471 1114 483 1108 z m 658 296 l 751 28 b 790 0 758 8 771 0 l 903 0 b 931 40 929 0 940 15 l 571 989 b 532 1017 564 1008 551 1017 l 428 1017 b 389 989 408 1017 396 1008 l 29 40 b 57 0 19 15 31 0 l 167 0 b 206 28 186 0 199 8 l 300 296 z m 606 444 l 353 444 l 481 806 z "},"Ā":{"ha":960,"x_min":0,"x_max":0,"o":"m 656 1235 b 621 1269 656 1257 643 1269 l 336 1269 b 301 1235 314 1269 301 1257 l 301 1206 b 336 1171 301 1183 314 1171 l 621 1171 b 656 1206 643 1171 656 1183 z m 658 296 l 751 28 b 790 0 758 8 771 0 l 903 0 b 931 40 929 0 940 15 l 571 989 b 532 1017 564 1008 551 1017 l 428 1017 b 389 989 408 1017 396 1008 l 29 40 b 57 0 19 15 31 0 l 167 0 b 206 28 186 0 199 8 l 300 296 z m 606 444 l 353 444 l 481 806 z "},"Å":{"ha":960,"x_min":0,"x_max":0,"o":"m 479 1067 b 619 1208 557 1067 619 1124 b 479 1349 619 1293 557 1349 b 338 1208 401 1349 338 1293 b 479 1067 338 1124 401 1067 z m 479 1275 b 546 1208 517 1275 546 1250 b 479 1140 546 1168 517 1140 b 411 1208 442 1140 411 1168 b 479 1275 411 1250 442 1275 z m 658 296 l 751 28 b 790 0 758 8 771 0 l 903 0 b 931 40 929 0 940 15 l 571 989 b 532 1017 564 1008 551 1017 l 428 1017 b 389 989 408 1017 396 1008 l 29 40 b 57 0 19 15 31 0 l 167 0 b 206 28 186 0 199 8 l 300 296 z m 606 444 l 353 444 l 481 806 z "},"Ã":{"ha":960,"x_min":0,"x_max":0,"o":"m 411 1207 b 575 1106 467 1207 488 1106 b 697 1244 657 1106 689 1175 b 663 1281 699 1268 686 1281 l 642 1281 b 607 1246 619 1281 610 1268 b 575 1203 603 1222 594 1203 b 410 1304 533 1203 506 1304 b 282 1165 324 1304 290 1242 b 317 1129 281 1142 293 1129 l 338 1129 b 374 1163 360 1129 369 1140 b 411 1207 378 1188 389 1207 z m 658 296 l 751 28 b 790 0 758 8 771 0 l 903 0 b 931 40 929 0 940 15 l 571 989 b 532 1017 564 1008 551 1017 l 428 1017 b 389 989 408 1017 396 1008 l 29 40 b 57 0 19 15 31 0 l 167 0 b 206 28 186 0 199 8 l 300 296 z m 606 444 l 353 444 l 481 806 z "},"Æ":{"ha":1360,"x_min":0,"x_max":0,"o":"m 854 869 l 1264 869 b 1299 904 1286 869 1299 882 l 1299 983 b 1264 1018 1299 1006 1286 1018 l 622 1018 b 581 994 603 1018 590 1011 l 38 42 b 61 0 24 18 35 0 l 164 0 b 206 24 183 0 196 7 l 358 296 l 690 296 l 690 35 b 725 0 690 13 703 0 l 1263 0 b 1297 35 1285 0 1297 13 l 1297 114 b 1263 149 1297 136 1285 149 l 854 149 l 854 456 l 1206 456 b 1240 490 1228 456 1240 468 l 1240 569 b 1206 604 1240 592 1228 604 l 854 604 z m 690 444 l 442 444 l 690 885 z "},"B":{"ha":961,"x_min":0,"x_max":0,"o":"m 764 536 b 844 739 817 589 844 660 b 524 1017 844 899 719 1017 l 136 1017 b 101 982 114 1017 101 1004 l 96 35 b 131 0 96 13 108 0 l 565 0 b 899 307 768 0 899 136 b 764 536 899 404 853 486 z m 267 872 l 504 872 b 681 728 615 872 681 817 b 532 590 681 640 626 590 l 268 590 z m 271 144 l 269 444 l 531 444 b 735 290 664 444 735 385 b 553 144 735 200 674 144 z "},"C":{"ha":1064,"x_min":0,"x_max":0,"o":"m 553 1039 b 61 506 275 1039 61 822 b 550 -22 61 196 257 -22 b 990 278 793 -22 936 132 b 961 317 999 301 988 317 l 872 318 b 831 292 853 318 840 310 b 565 125 782 192 703 125 b 226 519 365 125 226 272 b 543 893 226 764 365 893 b 825 731 661 893 760 835 b 867 706 835 713 847 706 l 956 707 b 985 746 981 707 993 722 b 553 1039 917 931 751 1039 z "},"Ć":{"ha":1064,"x_min":0,"x_max":0,"o":"m 697 1286 b 676 1329 715 1310 706 1329 l 613 1329 b 571 1304 593 1329 581 1322 l 486 1149 b 511 1107 474 1124 483 1107 l 526 1107 b 569 1128 544 1107 557 1113 z m 553 1039 b 61 506 275 1039 61 822 b 550 -22 61 196 257 -22 b 990 278 793 -22 936 132 b 961 317 999 301 988 317 l 872 318 b 831 292 853 318 840 310 b 565 125 782 192 703 125 b 226 519 365 125 226 272 b 543 893 226 764 365 893 b 825 731 661 893 760 835 b 867 706 835 713 847 706 l 956 707 b 985 746 981 707 993 722 b 553 1039 917 931 751 1039 z "},"Č":{"ha":1064,"x_min":0,"x_max":0,"o":"m 544 1107 b 588 1126 564 1107 576 1113 l 722 1286 b 703 1329 742 1310 732 1329 l 656 1329 b 613 1307 636 1329 624 1322 l 540 1193 l 526 1193 l 447 1307 b 406 1329 436 1322 424 1329 l 357 1329 b 338 1286 328 1329 318 1310 l 474 1126 b 517 1107 485 1113 497 1107 z m 872 318 b 831 292 853 318 840 310 b 565 125 782 192 703 125 b 226 519 365 125 226 272 b 543 893 226 764 365 893 b 825 731 661 893 760 835 b 867 706 835 713 847 706 l 956 707 b 985 746 981 707 993 722 b 553 1039 917 931 751 1039 b 61 506 275 1039 61 822 b 550 -22 61 196 257 -22 b 990 278 793 -22 936 132 b 961 317 999 301 986 317 z "},"Ç":{"ha":1064,"x_min":0,"x_max":0,"o":"m 872 318 b 831 292 853 318 840 310 b 565 125 782 192 703 125 b 226 519 365 125 226 272 b 543 893 226 764 365 893 b 825 731 661 893 760 835 b 867 706 835 713 847 706 l 956 707 b 985 746 981 707 993 722 b 553 1039 917 931 751 1039 b 61 506 275 1039 61 822 b 479 -18 61 221 226 14 l 451 -110 b 476 -149 444 -133 454 -149 b 558 -201 542 -149 558 -176 b 504 -246 558 -228 536 -246 b 449 -235 489 -246 469 -242 b 404 -256 426 -228 411 -233 l 401 -265 b 419 -311 394 -286 400 -303 b 504 -328 447 -324 476 -328 b 651 -197 601 -328 651 -271 b 553 -81 651 -129 610 -92 l 574 -22 b 990 278 803 -12 938 138 b 961 317 999 301 986 317 z "},"Ċ":{"ha":1064,"x_min":0,"x_max":0,"o":"m 613 1279 b 578 1314 613 1301 600 1314 l 488 1314 b 453 1279 465 1314 453 1301 l 453 1189 b 488 1154 453 1167 465 1154 l 578 1154 b 613 1189 600 1154 613 1167 z m 553 1039 b 61 506 275 1039 61 822 b 550 -22 61 196 257 -22 b 990 278 793 -22 936 132 b 961 317 999 301 988 317 l 872 318 b 831 292 853 318 840 310 b 565 125 782 192 703 125 b 226 519 365 125 226 272 b 543 893 226 764 365 893 b 825 731 661 893 760 835 b 867 706 835 713 847 706 l 956 707 b 985 746 981 707 993 722 b 553 1039 917 931 751 1039 z "},"D":{"ha":1047,"x_min":0,"x_max":0,"o":"m 136 1017 b 101 982 114 1017 101 1004 l 96 35 b 131 0 96 13 108 0 l 486 0 b 985 524 817 0 985 224 b 486 1017 985 821 815 1017 z m 272 146 l 267 872 l 475 872 b 821 506 694 872 821 746 b 476 146 821 279 696 146 z "},"Ð":{"ha":1047,"x_min":0,"x_max":0,"o":"m 136 1017 b 101 982 114 1017 101 1004 l 99 463 l 32 463 b -3 428 10 463 -3 450 l -3 353 b 32 318 -3 331 10 318 l 97 318 l 96 35 b 131 0 96 13 108 0 l 486 0 b 985 524 817 0 985 224 b 486 1017 985 821 815 1017 z m 272 146 l 271 318 l 492 318 b 526 353 514 318 526 331 l 526 428 b 492 463 526 450 514 463 l 269 463 l 267 872 l 475 872 b 821 506 694 872 821 746 b 476 146 821 279 696 146 z "},"Ď":{"ha":1047,"x_min":0,"x_max":0,"o":"m 478 1107 b 521 1126 497 1107 510 1113 l 656 1286 b 636 1329 675 1310 665 1329 l 589 1329 b 546 1307 569 1329 557 1322 l 474 1193 l 460 1193 l 381 1307 b 339 1329 369 1322 357 1329 l 290 1329 b 271 1286 261 1329 251 1310 l 407 1126 b 450 1107 418 1113 431 1107 z m 136 1017 b 101 982 114 1017 101 1004 l 96 35 b 131 0 96 13 108 0 l 486 0 b 985 524 817 0 985 224 b 486 1017 985 821 815 1017 z m 272 146 l 267 872 l 475 872 b 821 506 694 872 821 746 b 476 146 821 279 696 146 z "},"E":{"ha":840,"x_min":0,"x_max":0,"o":"m 267 868 l 744 868 b 779 903 767 868 779 881 l 779 982 b 744 1017 779 1004 767 1017 l 136 1017 b 101 982 114 1017 101 1004 l 96 35 b 131 0 96 13 108 0 l 744 0 b 779 35 767 0 779 13 l 779 114 b 744 149 779 136 767 149 l 271 149 l 269 456 l 686 456 b 721 490 708 456 721 468 l 721 569 b 686 604 721 592 708 604 l 268 604 z "},"É":{"ha":840,"x_min":0,"x_max":0,"o":"m 601 1288 b 581 1331 619 1311 610 1331 l 517 1331 b 475 1306 497 1331 485 1324 l 390 1150 b 415 1108 378 1125 388 1108 l 431 1108 b 474 1129 449 1108 461 1114 z m 267 868 l 744 868 b 779 903 767 868 779 881 l 779 982 b 744 1017 779 1004 767 1017 l 136 1017 b 101 982 114 1017 101 1004 l 96 35 b 131 0 96 13 108 0 l 744 0 b 779 35 767 0 779 13 l 779 114 b 744 149 779 136 767 149 l 271 149 l 269 456 l 686 456 b 721 490 708 456 721 468 l 721 569 b 686 604 721 592 708 604 l 268 604 z "},"Ě":{"ha":840,"x_min":0,"x_max":0,"o":"m 450 1108 b 493 1128 469 1108 482 1114 l 628 1288 b 608 1331 647 1311 638 1331 l 561 1331 b 518 1308 542 1331 529 1324 l 446 1194 l 432 1194 l 353 1308 b 311 1331 342 1324 329 1331 l 263 1331 b 243 1288 233 1331 224 1311 l 379 1128 b 422 1108 390 1114 403 1108 z m 267 868 l 744 868 b 779 903 767 868 779 881 l 779 982 b 744 1017 779 1004 767 1017 l 136 1017 b 101 982 114 1017 101 1004 l 96 35 b 131 0 96 13 108 0 l 744 0 b 779 35 767 0 779 13 l 779 114 b 744 149 779 136 767 149 l 271 149 l 269 456 l 686 456 b 721 490 708 456 721 468 l 721 569 b 686 604 721 592 708 604 l 268 604 z "},"Ê":{"ha":840,"x_min":0,"x_max":0,"o":"m 428 1244 l 442 1244 l 521 1131 b 563 1108 532 1115 544 1108 l 611 1108 b 631 1151 640 1108 650 1128 l 494 1311 b 451 1331 483 1325 471 1331 l 424 1331 b 381 1311 404 1331 392 1325 l 246 1151 b 265 1108 226 1128 236 1108 l 313 1108 b 356 1131 332 1108 344 1115 z m 267 868 l 744 868 b 779 903 767 868 779 881 l 779 982 b 744 1017 779 1004 767 1017 l 136 1017 b 101 982 114 1017 101 1004 l 96 35 b 131 0 96 13 108 0 l 744 0 b 779 35 767 0 779 13 l 779 114 b 744 149 779 136 767 149 l 271 149 l 269 456 l 686 456 b 721 490 708 456 721 468 l 721 569 b 686 604 721 592 708 604 l 268 604 z "},"Ë":{"ha":840,"x_min":0,"x_max":0,"o":"m 393 1283 b 358 1318 393 1306 381 1318 l 300 1318 b 265 1283 278 1318 265 1306 l 265 1193 b 300 1158 265 1171 278 1158 l 358 1158 b 393 1193 381 1158 393 1171 z m 615 1283 b 581 1318 615 1306 603 1318 l 522 1318 b 488 1283 500 1318 488 1306 l 488 1193 b 522 1158 488 1171 500 1158 l 581 1158 b 615 1193 603 1158 615 1171 z m 267 868 l 744 868 b 779 903 767 868 779 881 l 779 982 b 744 1017 779 1004 767 1017 l 136 1017 b 101 982 114 1017 101 1004 l 96 35 b 131 0 96 13 108 0 l 744 0 b 779 35 767 0 779 13 l 779 114 b 744 149 779 136 767 149 l 271 149 l 269 456 l 686 456 b 721 490 708 456 721 468 l 721 569 b 686 604 721 592 708 604 l 268 604 z "},"Ė":{"ha":840,"x_min":0,"x_max":0,"o":"m 518 1281 b 483 1315 518 1303 506 1315 l 393 1315 b 358 1281 371 1315 358 1303 l 358 1190 b 393 1156 358 1168 371 1156 l 483 1156 b 518 1190 506 1156 518 1168 z m 267 868 l 744 868 b 779 903 767 868 779 881 l 779 982 b 744 1017 779 1004 767 1017 l 136 1017 b 101 982 114 1017 101 1004 l 96 35 b 131 0 96 13 108 0 l 744 0 b 779 35 767 0 779 13 l 779 114 b 744 149 779 136 767 149 l 271 149 l 269 456 l 686 456 b 721 490 708 456 721 468 l 721 569 b 686 604 721 592 708 604 l 268 604 z "},"È":{"ha":840,"x_min":0,"x_max":0,"o":"m 475 1108 b 500 1150 503 1108 513 1125 l 415 1306 b 374 1331 406 1324 393 1331 l 310 1331 b 289 1288 281 1331 271 1311 l 417 1129 b 460 1108 429 1114 442 1108 z m 267 868 l 744 868 b 779 903 767 868 779 881 l 779 982 b 744 1017 779 1004 767 1017 l 136 1017 b 101 982 114 1017 101 1004 l 96 35 b 131 0 96 13 108 0 l 744 0 b 779 35 767 0 779 13 l 779 114 b 744 149 779 136 767 149 l 271 149 l 269 456 l 686 456 b 721 490 708 456 721 468 l 721 569 b 686 604 721 592 708 604 l 268 604 z "},"Ē":{"ha":840,"x_min":0,"x_max":0,"o":"m 614 1235 b 579 1269 614 1257 601 1269 l 294 1269 b 260 1235 272 1269 260 1257 l 260 1206 b 294 1171 260 1183 272 1171 l 579 1171 b 614 1206 601 1171 614 1183 z m 267 868 l 744 868 b 779 903 767 868 779 881 l 779 982 b 744 1017 779 1004 767 1017 l 136 1017 b 101 982 114 1017 101 1004 l 96 35 b 131 0 96 13 108 0 l 744 0 b 779 35 767 0 779 13 l 779 114 b 744 149 779 136 767 149 l 271 149 l 269 456 l 686 456 b 721 490 708 456 721 468 l 721 569 b 686 604 721 592 708 604 l 268 604 z "},"F":{"ha":842,"x_min":0,"x_max":0,"o":"m 267 868 l 746 868 b 781 903 768 868 781 881 l 781 982 b 746 1017 781 1004 768 1017 l 136 1017 b 101 982 114 1017 101 1004 l 96 35 b 131 0 96 13 108 0 l 238 0 b 272 35 260 0 272 13 l 269 474 l 686 474 b 721 508 708 474 721 486 l 721 588 b 686 622 721 610 708 622 l 268 622 z "},"G":{"ha":1106,"x_min":0,"x_max":0,"o":"m 640 507 b 606 472 618 507 606 494 l 606 393 b 640 358 606 371 618 358 l 865 358 b 572 125 826 210 711 125 b 233 519 372 125 233 272 b 550 893 233 764 371 893 b 831 742 665 893 765 838 b 872 718 840 725 853 718 l 961 719 b 989 760 986 721 999 736 b 563 1039 921 929 758 1039 b 68 508 282 1039 68 821 b 547 -22 68 196 267 -22 b 1039 472 847 -22 1031 199 b 1008 507 1039 496 1026 507 z "},"Ğ":{"ha":1106,"x_min":0,"x_max":0,"o":"m 550 1092 b 756 1276 671 1092 756 1149 b 721 1299 756 1290 743 1299 l 690 1299 b 656 1276 668 1299 656 1290 b 550 1181 656 1206 613 1181 b 446 1276 490 1181 446 1206 b 411 1299 446 1290 433 1299 l 382 1299 b 347 1276 360 1299 347 1290 b 550 1092 347 1149 432 1092 z m 640 507 b 606 472 618 507 606 494 l 606 393 b 640 358 606 371 618 358 l 865 358 b 572 125 826 210 711 125 b 233 519 372 125 233 272 b 550 893 233 764 371 893 b 831 742 665 893 765 838 b 872 718 840 725 853 718 l 961 719 b 989 760 986 721 999 736 b 563 1039 921 929 758 1039 b 68 508 282 1039 68 821 b 547 -22 68 196 267 -22 b 1039 472 847 -22 1031 199 b 1008 507 1039 496 1026 507 z "},"Ġ":{"ha":1106,"x_min":0,"x_max":0,"o":"m 633 1279 b 599 1314 633 1301 621 1314 l 508 1314 b 474 1279 486 1314 474 1301 l 474 1189 b 508 1154 474 1167 486 1154 l 599 1154 b 633 1189 621 1154 633 1167 z m 640 507 b 606 472 618 507 606 494 l 606 393 b 640 358 606 371 618 358 l 865 358 b 572 125 826 210 711 125 b 233 519 372 125 233 272 b 550 893 233 764 371 893 b 831 742 665 893 765 838 b 872 718 840 725 853 718 l 961 719 b 989 760 986 721 999 736 b 563 1039 921 929 758 1039 b 68 508 282 1039 68 821 b 547 -22 68 196 267 -22 b 1039 472 847 -22 1031 199 b 1008 507 1039 496 1026 507 z "},"H":{"ha":1043,"x_min":0,"x_max":0,"o":"m 913 0 b 947 35 935 0 947 13 l 942 982 b 907 1017 942 1004 929 1017 l 813 1017 b 778 982 790 1017 778 1004 l 775 604 l 268 604 l 265 982 b 231 1017 265 1004 253 1017 l 136 1017 b 101 982 114 1017 101 1004 l 96 35 b 131 0 96 13 108 0 l 238 0 b 272 35 260 0 272 13 l 269 456 l 774 456 l 771 35 b 806 0 771 13 783 0 z "},"I":{"ha":535,"x_min":0,"x_max":0,"o":"m 349 982 b 314 1017 349 1004 336 1017 l 219 1017 b 185 982 197 1017 185 1004 l 179 35 b 214 0 179 13 192 0 l 321 0 b 356 35 343 0 356 13 z "},"Í":{"ha":535,"x_min":0,"x_max":0,"o":"m 432 1288 b 411 1331 450 1311 440 1331 l 347 1331 b 306 1306 328 1331 315 1324 l 221 1150 b 246 1108 208 1125 218 1108 l 261 1108 b 304 1129 279 1108 292 1114 z m 349 982 b 314 1017 349 1004 336 1017 l 219 1017 b 185 982 197 1017 185 1004 l 179 35 b 214 0 179 13 192 0 l 321 0 b 356 35 343 0 356 13 z "},"Ǐ":{"ha":535,"x_min":0,"x_max":0,"o":"m 279 1108 b 322 1128 299 1108 311 1114 l 457 1288 b 438 1331 476 1311 467 1331 l 390 1331 b 347 1308 371 1331 358 1324 l 275 1194 l 261 1194 l 182 1308 b 140 1331 171 1324 158 1331 l 92 1331 b 72 1288 63 1331 53 1311 l 208 1128 b 251 1108 219 1114 232 1108 z m 219 1017 b 185 982 197 1017 185 1004 l 179 35 b 214 0 179 13 192 0 l 321 0 b 356 35 343 0 356 13 l 349 982 b 314 1017 349 1004 336 1017 z "},"Î":{"ha":535,"x_min":0,"x_max":0,"o":"m 324 1311 b 281 1331 313 1325 300 1331 l 253 1331 b 210 1311 233 1331 221 1325 l 75 1151 b 94 1108 56 1128 65 1108 l 142 1108 b 185 1131 161 1108 174 1115 l 257 1244 l 271 1244 l 350 1131 b 392 1108 361 1115 374 1108 l 440 1108 b 460 1151 469 1108 479 1128 z m 219 1017 b 185 982 197 1017 185 1004 l 179 35 b 214 0 179 13 192 0 l 321 0 b 356 35 343 0 356 13 l 349 982 b 314 1017 349 1004 336 1017 z "},"Ï":{"ha":535,"x_min":0,"x_max":0,"o":"m 222 1283 b 188 1318 222 1306 210 1318 l 129 1318 b 94 1283 107 1318 94 1306 l 94 1193 b 129 1158 94 1171 107 1158 l 188 1158 b 222 1193 210 1158 222 1171 z m 444 1283 b 410 1318 444 1306 432 1318 l 351 1318 b 317 1283 329 1318 317 1306 l 317 1193 b 351 1158 317 1171 329 1158 l 410 1158 b 444 1193 432 1158 444 1171 z m 349 982 b 314 1017 349 1004 336 1017 l 219 1017 b 185 982 197 1017 185 1004 l 179 35 b 214 0 179 13 192 0 l 321 0 b 356 35 343 0 356 13 z "},"İ":{"ha":535,"x_min":0,"x_max":0,"o":"m 347 1281 b 313 1315 347 1303 335 1315 l 222 1315 b 188 1281 200 1315 188 1303 l 188 1190 b 222 1156 188 1168 200 1156 l 313 1156 b 347 1190 335 1156 347 1168 z m 349 982 b 314 1017 349 1004 336 1017 l 219 1017 b 185 982 197 1017 185 1004 l 179 35 b 214 0 179 13 192 0 l 321 0 b 356 35 343 0 356 13 z "},"Ì":{"ha":535,"x_min":0,"x_max":0,"o":"m 140 1331 b 119 1288 111 1331 101 1311 l 247 1129 b 290 1108 260 1114 272 1108 l 306 1108 b 331 1150 333 1108 343 1125 l 246 1306 b 204 1331 236 1324 224 1331 z m 349 982 b 314 1017 349 1004 336 1017 l 219 1017 b 185 982 197 1017 185 1004 l 179 35 b 214 0 179 13 192 0 l 321 0 b 356 35 343 0 356 13 z "},"Ī":{"ha":535,"x_min":0,"x_max":0,"o":"m 444 1235 b 410 1269 444 1257 432 1269 l 125 1269 b 90 1235 103 1269 90 1257 l 90 1206 b 125 1171 90 1183 103 1171 l 410 1171 b 444 1206 432 1171 444 1183 z m 349 982 b 314 1017 349 1004 336 1017 l 219 1017 b 185 982 197 1017 185 1004 l 179 35 b 214 0 179 13 192 0 l 321 0 b 356 35 343 0 356 13 z "},"J":{"ha":706,"x_min":0,"x_max":0,"o":"m 524 983 b 489 1018 524 1006 511 1018 l 393 1018 b 358 983 371 1018 358 1006 l 356 467 b 96 149 354 235 285 156 b 61 113 74 147 61 135 l 61 36 b 96 1 61 14 74 1 b 526 479 379 10 528 115 z "},"K":{"ha":986,"x_min":0,"x_max":0,"o":"m 418 479 l 746 22 b 788 0 757 7 769 0 l 919 0 b 940 43 949 0 957 19 l 526 585 l 925 974 b 907 1017 947 996 939 1017 l 793 1017 b 750 999 775 1017 763 1011 l 268 526 l 265 982 b 231 1017 265 1004 253 1017 l 136 1017 b 101 982 114 1017 101 1004 l 96 35 b 131 0 96 13 108 0 l 238 0 b 272 35 260 0 272 13 l 269 335 z "},"L":{"ha":829,"x_min":0,"x_max":0,"o":"m 271 149 l 265 982 b 231 1017 265 1004 253 1017 l 136 1017 b 101 982 114 1017 101 1004 l 96 35 b 131 0 96 13 108 0 l 760 0 b 794 35 782 0 794 13 l 794 114 b 760 149 794 136 782 149 z "},"Ĺ":{"ha":829,"x_min":0,"x_max":0,"o":"m 351 1296 b 331 1339 369 1319 360 1339 l 267 1339 b 225 1314 247 1339 235 1332 l 140 1158 b 165 1117 128 1133 138 1117 l 181 1117 b 224 1138 199 1117 211 1122 z m 271 149 l 265 982 b 231 1017 265 1004 253 1017 l 136 1017 b 101 982 114 1017 101 1004 l 96 35 b 131 0 96 13 108 0 l 760 0 b 794 35 782 0 794 13 l 794 114 b 760 149 794 136 782 149 z "},"Ľ":{"ha":829,"x_min":0,"x_max":0,"o":"m 271 149 l 265 982 b 231 1017 265 1004 253 1017 l 136 1017 b 101 982 114 1017 101 1004 l 96 35 b 131 0 96 13 108 0 l 760 0 b 794 35 782 0 794 13 l 794 114 b 760 149 794 136 782 149 z "},"M":{"ha":1240,"x_min":0,"x_max":0,"o":"m 1110 0 b 1143 35 1132 0 1144 13 l 1111 982 b 1075 1017 1110 1004 1097 1017 l 896 1017 b 856 988 875 1017 863 1007 l 624 250 l 390 988 b 350 1017 383 1007 371 1017 l 165 1017 b 129 982 143 1017 131 1004 l 97 35 b 131 0 96 13 108 0 l 229 0 b 264 35 251 0 264 13 l 276 856 l 529 29 b 568 0 535 10 547 0 l 679 0 b 718 29 700 0 713 10 l 964 831 l 976 35 b 1011 0 976 13 989 0 z "},"N":{"ha":1051,"x_min":0,"x_max":0,"o":"m 950 982 b 915 1017 950 1004 938 1017 l 824 1017 b 789 982 801 1017 789 1004 l 785 215 l 363 992 b 321 1017 353 1010 340 1017 l 136 1017 b 101 982 114 1017 101 1004 l 96 35 b 131 0 96 13 108 0 l 233 0 b 268 35 256 0 268 13 l 264 840 l 704 25 b 746 0 714 7 726 0 l 922 0 b 957 35 944 0 957 13 z "},"Ń":{"ha":1051,"x_min":0,"x_max":0,"o":"m 690 1296 b 669 1339 708 1319 699 1339 l 606 1339 b 564 1314 586 1339 574 1332 l 479 1158 b 504 1117 467 1133 476 1117 l 519 1117 b 563 1138 538 1117 550 1122 z m 950 982 b 915 1017 950 1004 938 1017 l 824 1017 b 789 982 801 1017 789 1004 l 785 215 l 363 992 b 321 1017 353 1010 340 1017 l 136 1017 b 101 982 114 1017 101 1004 l 96 35 b 131 0 96 13 108 0 l 233 0 b 268 35 256 0 268 13 l 264 840 l 704 25 b 746 0 714 7 726 0 l 922 0 b 957 35 944 0 957 13 z "},"Ň":{"ha":1051,"x_min":0,"x_max":0,"o":"m 539 1115 b 582 1135 558 1115 571 1121 l 717 1294 b 697 1338 736 1318 726 1338 l 650 1338 b 607 1315 631 1338 618 1331 l 535 1201 l 521 1201 l 442 1315 b 400 1338 431 1331 418 1338 l 351 1338 b 332 1294 322 1338 313 1318 l 468 1135 b 511 1115 479 1121 492 1115 z m 950 982 b 915 1017 950 1004 938 1017 l 824 1017 b 789 982 801 1017 789 1004 l 785 215 l 363 992 b 321 1017 353 1010 340 1017 l 136 1017 b 101 982 114 1017 101 1004 l 96 35 b 131 0 96 13 108 0 l 233 0 b 268 35 256 0 268 13 l 264 840 l 704 25 b 746 0 714 7 726 0 l 922 0 b 957 35 944 0 957 13 z "},"Ñ":{"ha":1051,"x_min":0,"x_max":0,"o":"m 458 1215 b 622 1114 514 1215 535 1114 b 744 1253 704 1114 736 1183 b 710 1289 746 1276 733 1289 l 689 1289 b 654 1254 667 1289 657 1276 b 622 1211 650 1231 642 1211 b 457 1313 581 1211 553 1313 b 329 1174 371 1313 338 1250 b 364 1138 328 1150 340 1138 l 385 1138 b 421 1171 407 1138 417 1149 b 458 1215 425 1196 436 1215 z m 950 982 b 915 1017 950 1004 938 1017 l 824 1017 b 789 982 801 1017 789 1004 l 785 215 l 363 992 b 321 1017 353 1010 340 1017 l 136 1017 b 101 982 114 1017 101 1004 l 96 35 b 131 0 96 13 108 0 l 233 0 b 268 35 256 0 268 13 l 264 840 l 704 25 b 746 0 714 7 726 0 l 922 0 b 957 35 944 0 957 13 z "},"O":{"ha":1108,"x_min":0,"x_max":0,"o":"m 563 1039 b 61 508 278 1039 61 821 b 547 -22 61 196 269 -22 b 1046 525 831 -22 1046 210 b 563 1039 1046 832 840 1039 z m 550 893 b 882 510 739 893 882 757 b 558 125 882 264 740 125 b 226 519 368 125 226 272 b 550 893 226 764 367 893 z "},"Ó":{"ha":1108,"x_min":0,"x_max":0,"o":"m 718 1296 b 697 1339 736 1319 726 1339 l 633 1339 b 592 1314 614 1339 601 1332 l 507 1158 b 532 1117 494 1133 504 1117 l 547 1117 b 590 1138 565 1117 578 1122 z m 563 1039 b 61 508 278 1039 61 821 b 547 -22 61 196 269 -22 b 1046 525 831 -22 1046 210 b 563 1039 1046 832 840 1039 z m 550 893 b 882 510 739 893 882 757 b 558 125 882 264 740 125 b 226 519 368 125 226 272 b 550 893 226 764 367 893 z "},"Ǒ":{"ha":1108,"x_min":0,"x_max":0,"o":"m 567 1115 b 610 1135 586 1115 599 1121 l 744 1294 b 725 1338 764 1318 754 1338 l 678 1338 b 635 1315 658 1338 646 1331 l 563 1201 l 549 1201 l 469 1315 b 428 1338 458 1331 446 1338 l 379 1338 b 360 1294 350 1338 340 1318 l 496 1135 b 539 1115 507 1121 519 1115 z m 563 1039 b 61 508 278 1039 61 821 b 547 -22 61 196 269 -22 b 1046 525 831 -22 1046 210 b 563 1039 1046 832 840 1039 z m 558 125 b 226 519 368 125 226 272 b 550 893 226 764 367 893 b 882 510 739 893 882 757 b 558 125 882 264 740 125 z "},"Ô":{"ha":1108,"x_min":0,"x_max":0,"o":"m 544 1253 l 558 1253 l 638 1139 b 679 1117 649 1124 661 1117 l 728 1117 b 747 1160 757 1117 767 1136 l 611 1319 b 568 1339 600 1333 588 1339 l 540 1339 b 497 1319 521 1339 508 1333 l 363 1160 b 382 1117 343 1136 353 1117 l 429 1117 b 472 1139 449 1117 461 1124 z m 563 1039 b 61 508 278 1039 61 821 b 547 -22 61 196 269 -22 b 1046 525 831 -22 1046 210 b 563 1039 1046 832 840 1039 z m 558 125 b 226 519 368 125 226 272 b 550 893 226 764 367 893 b 882 510 739 893 882 757 b 558 125 882 264 740 125 z "},"Ö":{"ha":1108,"x_min":0,"x_max":0,"o":"m 510 1290 b 475 1325 510 1313 497 1325 l 417 1325 b 382 1290 394 1325 382 1313 l 382 1200 b 417 1165 382 1178 394 1165 l 475 1165 b 510 1200 497 1165 510 1178 z m 732 1290 b 697 1325 732 1313 719 1325 l 639 1325 b 604 1290 617 1325 604 1313 l 604 1200 b 639 1165 604 1178 617 1165 l 697 1165 b 732 1200 719 1165 732 1178 z m 563 1039 b 61 508 278 1039 61 821 b 547 -22 61 196 269 -22 b 1046 525 831 -22 1046 210 b 563 1039 1046 832 840 1039 z m 550 893 b 882 510 739 893 882 757 b 558 125 882 264 740 125 b 226 519 368 125 226 272 b 550 893 226 764 367 893 z "},"Ò":{"ha":1108,"x_min":0,"x_max":0,"o":"m 426 1339 b 406 1296 397 1339 388 1319 l 533 1138 b 576 1117 546 1122 558 1117 l 592 1117 b 617 1158 619 1117 629 1133 l 532 1314 b 490 1339 522 1332 510 1339 z m 563 1039 b 61 508 278 1039 61 821 b 547 -22 61 196 269 -22 b 1046 525 831 -22 1046 210 b 563 1039 1046 832 840 1039 z m 550 893 b 882 510 739 893 882 757 b 558 125 882 264 740 125 b 226 519 368 125 226 272 b 550 893 226 764 367 893 z "},"Ő":{"ha":1108,"x_min":0,"x_max":0,"o":"m 639 1299 b 618 1342 657 1322 647 1342 l 554 1342 b 513 1317 535 1342 522 1335 l 428 1161 b 453 1119 415 1136 425 1119 l 468 1119 b 511 1140 486 1119 499 1125 z m 869 1299 b 849 1342 888 1322 878 1342 l 785 1342 b 743 1317 765 1342 753 1335 l 658 1161 b 683 1119 646 1136 656 1119 l 699 1119 b 742 1140 717 1119 729 1125 z m 563 1039 b 61 508 278 1039 61 821 b 547 -22 61 196 269 -22 b 1046 525 831 -22 1046 210 b 563 1039 1046 832 840 1039 z m 550 893 b 882 510 739 893 882 757 b 558 125 882 264 740 125 b 226 519 368 125 226 272 b 550 893 226 764 367 893 z "},"Ō":{"ha":1108,"x_min":0,"x_max":0,"o":"m 731 1242 b 696 1276 731 1264 718 1276 l 411 1276 b 376 1242 389 1276 376 1264 l 376 1213 b 411 1178 376 1190 389 1178 l 696 1178 b 731 1213 718 1178 731 1190 z m 563 1039 b 61 508 278 1039 61 821 b 547 -22 61 196 269 -22 b 1046 525 831 -22 1046 210 b 563 1039 1046 832 840 1039 z m 550 893 b 882 510 739 893 882 757 b 558 125 882 264 740 125 b 226 519 368 125 226 272 b 550 893 226 764 367 893 z "},"Ø":{"ha":1157,"x_min":0,"x_max":0,"o":"m 1050 972 b 1029 1015 1068 996 1060 1015 l 931 1015 b 888 996 913 1015 899 1010 l 867 971 b 613 1039 794 1014 707 1039 b 111 508 328 1039 111 821 b 208 178 111 379 147 265 l 96 43 b 117 0 78 19 86 0 l 217 0 b 260 19 235 0 249 6 l 306 75 b 596 -22 385 13 485 -22 b 1096 525 879 -22 1096 210 b 974 881 1096 669 1050 792 z m 275 519 b 600 893 275 764 417 893 b 767 850 661 893 718 878 l 318 310 b 275 519 290 368 275 438 z m 607 125 b 406 196 531 125 461 150 l 868 754 b 932 510 908 692 932 610 b 607 125 932 264 790 125 z "},"Õ":{"ha":1108,"x_min":0,"x_max":0,"o":"m 485 1313 b 357 1174 399 1313 365 1251 b 392 1138 356 1150 368 1138 l 413 1138 b 449 1171 435 1138 444 1149 b 486 1215 453 1196 464 1215 b 650 1114 542 1215 563 1114 b 772 1253 732 1114 764 1183 b 738 1289 774 1276 761 1289 l 717 1289 b 682 1254 694 1289 685 1276 b 650 1211 678 1231 669 1211 b 485 1313 608 1211 581 1313 z m 563 1039 b 61 508 278 1039 61 821 b 547 -22 61 196 269 -22 b 1046 525 831 -22 1046 210 b 563 1039 1046 832 840 1039 z m 550 893 b 882 510 739 893 882 757 b 558 125 882 264 740 125 b 226 519 368 125 226 272 b 550 893 226 764 367 893 z "},"Œ":{"ha":1304,"x_min":0,"x_max":0,"o":"m 800 869 l 1208 869 b 1243 904 1231 869 1243 882 l 1243 981 b 1208 1015 1243 1003 1231 1015 l 583 1017 b 61 508 281 1017 61 807 b 568 0 61 210 257 0 l 1207 0 b 1242 35 1229 0 1242 13 l 1242 114 b 1207 149 1242 136 1229 149 l 803 149 l 801 456 l 1150 456 b 1185 490 1172 456 1185 468 l 1185 569 b 1150 604 1185 592 1172 604 l 801 604 z m 631 146 l 583 146 b 226 519 371 146 226 285 b 583 871 226 750 369 871 l 633 871 z "},"P":{"ha":951,"x_min":0,"x_max":0,"o":"m 136 1017 b 101 982 114 1017 101 1004 l 96 35 b 131 0 96 13 108 0 l 238 0 b 272 35 260 0 272 13 l 269 365 l 532 365 b 889 700 746 365 889 511 b 532 1017 889 888 746 1017 z m 269 510 l 267 872 l 519 872 b 725 683 640 872 725 800 b 519 510 725 575 654 510 z "},"Q":{"ha":1108,"x_min":0,"x_max":0,"o":"m 1046 525 b 563 1039 1046 832 840 1039 b 61 508 278 1039 61 821 b 547 -22 61 196 269 -22 b 754 24 622 -22 692 -6 l 825 -61 b 874 -65 839 -78 857 -79 l 931 -17 b 935 32 947 -3 949 15 l 874 104 b 1046 525 981 203 1046 351 z m 558 125 b 226 519 368 125 226 272 b 550 893 226 764 367 893 b 882 510 739 893 882 757 b 779 215 882 381 843 282 l 713 296 b 664 300 699 313 681 314 l 607 251 b 603 203 590 238 589 219 l 656 139 b 558 125 625 131 593 125 z "},"R":{"ha":943,"x_min":0,"x_max":0,"o":"m 435 422 l 700 22 b 742 0 711 7 724 0 l 872 0 b 893 42 900 0 910 18 l 617 432 b 874 725 778 464 874 583 b 531 1017 874 893 740 1017 l 136 1017 b 101 982 114 1017 101 1004 l 96 35 b 131 0 96 13 108 0 l 238 0 b 272 35 260 0 272 13 l 269 422 z m 269 567 l 267 872 l 511 872 b 710 713 636 872 710 811 b 511 567 710 621 649 567 z "},"Ŕ":{"ha":943,"x_min":0,"x_max":0,"o":"m 647 1286 b 626 1329 665 1310 656 1329 l 563 1329 b 521 1304 543 1329 531 1322 l 436 1149 b 461 1107 424 1124 433 1107 l 476 1107 b 519 1128 494 1107 507 1113 z m 435 422 l 700 22 b 742 0 711 7 724 0 l 872 0 b 893 42 900 0 910 18 l 617 432 b 874 725 778 464 874 583 b 531 1017 874 893 740 1017 l 136 1017 b 101 982 114 1017 101 1004 l 96 35 b 131 0 96 13 108 0 l 238 0 b 272 35 260 0 272 13 l 269 422 z m 269 567 l 267 872 l 511 872 b 710 713 636 872 710 811 b 511 567 710 621 649 567 z "},"Ř":{"ha":943,"x_min":0,"x_max":0,"o":"m 496 1107 b 539 1126 515 1107 528 1113 l 674 1286 b 654 1329 693 1310 683 1329 l 607 1329 b 564 1307 588 1329 575 1322 l 492 1193 l 478 1193 l 399 1307 b 357 1329 388 1322 375 1329 l 308 1329 b 289 1286 279 1329 269 1310 l 425 1126 b 468 1107 436 1113 449 1107 z m 435 422 l 700 22 b 742 0 711 7 724 0 l 872 0 b 893 42 900 0 910 18 l 617 432 b 874 725 778 464 874 583 b 531 1017 874 893 740 1017 l 136 1017 b 101 982 114 1017 101 1004 l 96 35 b 131 0 96 13 108 0 l 238 0 b 272 35 260 0 272 13 l 269 422 z m 269 567 l 267 872 l 511 872 b 710 713 636 872 710 811 b 511 567 710 621 649 567 z "},"S":{"ha":939,"x_min":0,"x_max":0,"o":"m 474 1039 b 106 744 269 1039 100 928 b 419 454 113 599 225 518 l 469 436 b 707 246 646 378 707 321 b 504 126 707 168 640 126 b 236 265 361 126 281 182 b 194 290 226 282 215 290 l 100 290 b 69 253 76 290 63 276 b 496 -22 106 125 235 -22 b 876 268 724 -22 876 82 b 554 589 876 403 794 515 l 510 603 b 275 769 335 656 275 696 b 460 892 275 839 332 892 b 690 774 567 892 643 846 b 732 750 701 757 713 750 l 821 750 b 850 789 846 750 858 765 b 474 1039 797 932 668 1039 z "},"Ś":{"ha":939,"x_min":0,"x_max":0,"o":"m 635 1286 b 614 1329 653 1310 643 1329 l 550 1329 b 508 1304 531 1329 518 1322 l 424 1149 b 449 1107 411 1124 421 1107 l 464 1107 b 507 1128 482 1107 494 1113 z m 474 1039 b 106 744 269 1039 100 928 b 419 454 113 599 225 518 l 469 436 b 707 246 646 378 707 321 b 504 126 707 168 640 126 b 236 265 361 126 281 182 b 194 290 226 282 215 290 l 100 290 b 69 253 76 290 63 276 b 496 -22 106 125 235 -22 b 876 268 724 -22 876 82 b 554 589 876 403 794 515 l 510 603 b 275 769 335 656 275 696 b 460 892 275 839 332 892 b 690 774 567 892 643 846 b 732 750 701 757 713 750 l 821 750 b 850 789 846 750 858 765 b 474 1039 797 932 668 1039 z "},"Š":{"ha":939,"x_min":0,"x_max":0,"o":"m 482 1107 b 525 1126 501 1107 514 1113 l 660 1286 b 640 1329 679 1310 669 1329 l 593 1329 b 550 1307 574 1329 561 1322 l 478 1193 l 464 1193 l 385 1307 b 343 1329 374 1322 361 1329 l 294 1329 b 275 1286 265 1329 256 1310 l 411 1126 b 454 1107 422 1113 435 1107 z m 510 603 b 275 769 335 656 275 696 b 460 892 275 839 332 892 b 690 774 567 892 643 846 b 732 750 701 757 713 750 l 821 750 b 850 789 846 750 858 765 b 474 1039 797 932 668 1039 b 106 744 269 1039 100 928 b 419 454 113 599 225 518 l 469 436 b 707 246 646 378 707 321 b 504 126 707 168 640 126 b 236 265 361 126 281 182 b 194 290 226 282 215 290 l 100 290 b 69 253 76 290 63 276 b 496 -22 106 125 235 -22 b 876 268 724 -22 876 82 b 554 589 876 403 794 515 z "},"Ş":{"ha":939,"x_min":0,"x_max":0,"o":"m 876 268 b 554 589 876 403 794 515 l 510 603 b 275 769 335 656 275 696 b 460 892 275 839 332 892 b 690 774 567 892 643 846 b 732 750 701 757 713 750 l 821 750 b 850 789 846 750 858 765 b 474 1039 797 932 668 1039 b 106 744 269 1039 100 928 b 419 454 113 599 225 518 l 469 436 b 707 246 646 378 707 321 b 504 126 707 168 640 126 b 236 265 361 126 281 182 b 194 290 226 282 215 290 l 100 290 b 69 253 76 290 63 276 b 418 -18 101 139 208 8 l 390 -110 b 415 -149 383 -133 393 -149 b 497 -201 481 -149 497 -176 b 443 -246 497 -228 475 -246 b 388 -235 428 -246 408 -242 b 343 -256 365 -228 350 -233 l 340 -265 b 358 -311 333 -286 339 -303 b 443 -328 386 -324 415 -328 b 590 -197 540 -328 590 -271 b 492 -81 590 -129 549 -92 l 513 -22 b 876 268 731 -17 876 86 z "},"T":{"ha":846,"x_min":0,"x_max":0,"o":"m 824 982 b 789 1017 824 1004 811 1017 l 58 1017 b 24 982 36 1017 24 1004 l 24 903 b 58 868 24 881 36 868 l 342 868 l 336 35 b 371 0 336 13 349 0 l 476 0 b 511 35 499 0 511 13 l 506 868 l 789 868 b 824 903 811 868 824 881 z "},"Ť":{"ha":846,"x_min":0,"x_max":0,"o":"m 436 1107 b 479 1126 456 1107 468 1113 l 614 1286 b 594 1329 633 1310 624 1329 l 547 1329 b 504 1307 528 1329 515 1322 l 432 1193 l 418 1193 l 339 1307 b 297 1329 328 1322 315 1329 l 249 1329 b 229 1286 219 1329 210 1310 l 365 1126 b 408 1107 376 1113 389 1107 z m 824 982 b 789 1017 824 1004 811 1017 l 58 1017 b 24 982 36 1017 24 1004 l 24 903 b 58 868 24 881 36 868 l 342 868 l 336 35 b 371 0 336 13 349 0 l 476 0 b 511 35 499 0 511 13 l 506 868 l 789 868 b 824 903 811 868 824 881 z "},"Ţ":{"ha":846,"x_min":0,"x_max":0,"o":"m 824 982 b 789 1017 824 1004 811 1017 l 58 1017 b 24 982 36 1017 24 1004 l 24 903 b 58 868 24 881 36 868 l 342 868 l 336 35 b 371 0 336 13 349 0 l 378 0 l 344 -110 b 369 -149 338 -133 347 -149 b 451 -201 435 -149 451 -176 b 397 -246 451 -228 429 -246 b 342 -235 382 -246 363 -242 b 297 -256 319 -228 304 -233 l 294 -265 b 313 -311 288 -286 293 -303 b 397 -328 340 -324 369 -328 b 544 -197 494 -328 544 -271 b 446 -81 544 -129 503 -92 l 475 0 l 476 0 b 511 35 499 0 511 13 l 506 868 l 789 868 b 824 903 811 868 824 881 z "},"U":{"ha":1046,"x_min":0,"x_max":0,"o":"m 947 982 b 913 1017 947 1004 935 1017 l 818 1017 b 783 982 796 1017 783 1004 l 781 457 b 526 125 779 228 690 125 b 265 457 365 125 268 226 l 263 982 b 228 1017 263 1004 250 1017 l 133 1017 b 99 982 111 1017 99 1004 l 96 439 b 522 -22 94 136 275 -22 b 950 439 769 -22 951 135 z "},"Ú":{"ha":1046,"x_min":0,"x_max":0,"o":"m 689 1296 b 668 1339 707 1319 697 1339 l 604 1339 b 563 1314 585 1339 572 1332 l 478 1158 b 503 1117 465 1133 475 1117 l 518 1117 b 561 1138 536 1117 549 1122 z m 947 982 b 913 1017 947 1004 935 1017 l 818 1017 b 783 982 796 1017 783 1004 l 781 457 b 526 125 779 228 690 125 b 265 457 365 125 268 226 l 263 982 b 228 1017 263 1004 250 1017 l 133 1017 b 99 982 111 1017 99 1004 l 96 439 b 522 -22 94 136 275 -22 b 950 439 769 -22 951 135 z "},"Ǔ":{"ha":1046,"x_min":0,"x_max":0,"o":"m 536 1115 b 579 1135 556 1115 568 1121 l 714 1294 b 694 1338 733 1318 724 1338 l 647 1338 b 604 1315 628 1338 615 1331 l 532 1201 l 518 1201 l 439 1315 b 397 1338 428 1331 415 1338 l 349 1338 b 329 1294 319 1338 310 1318 l 465 1135 b 508 1115 476 1121 489 1115 z m 947 982 b 913 1017 947 1004 935 1017 l 818 1017 b 783 982 796 1017 783 1004 l 781 457 b 526 125 779 228 690 125 b 265 457 365 125 268 226 l 263 982 b 228 1017 263 1004 250 1017 l 133 1017 b 99 982 111 1017 99 1004 l 96 439 b 522 -22 94 136 275 -22 b 950 439 769 -22 951 135 z "},"Û":{"ha":1046,"x_min":0,"x_max":0,"o":"m 514 1253 l 528 1253 l 607 1139 b 649 1117 618 1124 631 1117 l 697 1117 b 717 1160 726 1117 736 1136 l 581 1319 b 538 1339 569 1333 557 1339 l 510 1339 b 467 1319 490 1339 478 1333 l 332 1160 b 351 1117 313 1136 322 1117 l 399 1117 b 442 1139 418 1117 431 1124 z m 947 982 b 913 1017 947 1004 935 1017 l 818 1017 b 783 982 796 1017 783 1004 l 781 457 b 526 125 779 228 690 125 b 265 457 365 125 268 226 l 263 982 b 228 1017 263 1004 250 1017 l 133 1017 b 99 982 111 1017 99 1004 l 96 439 b 522 -22 94 136 275 -22 b 950 439 769 -22 951 135 z "},"Ü":{"ha":1046,"x_min":0,"x_max":0,"o":"m 479 1290 b 444 1325 479 1313 467 1325 l 386 1325 b 351 1290 364 1325 351 1313 l 351 1200 b 386 1165 351 1178 364 1165 l 444 1165 b 479 1200 467 1165 479 1178 z m 701 1290 b 667 1325 701 1313 689 1325 l 608 1325 b 574 1290 586 1325 574 1313 l 574 1200 b 608 1165 574 1178 586 1165 l 667 1165 b 701 1200 689 1165 701 1178 z m 947 982 b 913 1017 947 1004 935 1017 l 818 1017 b 783 982 796 1017 783 1004 l 781 457 b 526 125 779 228 690 125 b 265 457 365 125 268 226 l 263 982 b 228 1017 263 1004 250 1017 l 133 1017 b 99 982 111 1017 99 1004 l 96 439 b 522 -22 94 136 275 -22 b 950 439 769 -22 951 135 z "},"Ù":{"ha":1046,"x_min":0,"x_max":0,"o":"m 397 1339 b 376 1296 368 1339 358 1319 l 504 1138 b 547 1117 517 1122 529 1117 l 563 1117 b 588 1158 590 1117 600 1133 l 503 1314 b 461 1339 493 1332 481 1339 z m 947 982 b 913 1017 947 1004 935 1017 l 818 1017 b 783 982 796 1017 783 1004 l 781 457 b 526 125 779 228 690 125 b 265 457 365 125 268 226 l 263 982 b 228 1017 263 1004 250 1017 l 133 1017 b 99 982 111 1017 99 1004 l 96 439 b 522 -22 94 136 275 -22 b 950 439 769 -22 951 135 z "},"Ű":{"ha":1046,"x_min":0,"x_max":0,"o":"m 608 1299 b 588 1342 626 1322 617 1342 l 524 1342 b 482 1317 504 1342 492 1335 l 397 1161 b 422 1119 385 1136 394 1119 l 438 1119 b 481 1140 456 1119 468 1125 z m 839 1299 b 818 1342 857 1322 847 1342 l 754 1342 b 713 1317 735 1342 722 1335 l 628 1161 b 653 1119 615 1136 625 1119 l 668 1119 b 711 1140 686 1119 699 1125 z m 947 982 b 913 1017 947 1004 935 1017 l 818 1017 b 783 982 796 1017 783 1004 l 781 457 b 526 125 779 228 690 125 b 265 457 365 125 268 226 l 263 982 b 228 1017 263 1004 250 1017 l 133 1017 b 99 982 111 1017 99 1004 l 96 439 b 522 -22 94 136 275 -22 b 950 439 769 -22 951 135 z "},"Ū":{"ha":1046,"x_min":0,"x_max":0,"o":"m 701 1242 b 667 1276 701 1264 689 1276 l 382 1276 b 347 1242 360 1276 347 1264 l 347 1213 b 382 1178 347 1190 360 1178 l 667 1178 b 701 1213 689 1178 701 1190 z m 947 982 b 913 1017 947 1004 935 1017 l 818 1017 b 783 982 796 1017 783 1004 l 781 457 b 526 125 779 228 690 125 b 265 457 365 125 268 226 l 263 982 b 228 1017 263 1004 250 1017 l 133 1017 b 99 982 111 1017 99 1004 l 96 439 b 522 -22 94 136 275 -22 b 950 439 769 -22 951 135 z "},"Ů":{"ha":1046,"x_min":0,"x_max":0,"o":"m 524 1357 b 382 1217 446 1357 382 1301 b 524 1075 382 1132 446 1075 b 664 1217 601 1075 664 1132 b 524 1357 664 1301 601 1357 z m 524 1283 b 590 1217 561 1283 590 1258 b 524 1149 590 1176 561 1149 b 456 1217 486 1149 456 1176 b 524 1283 456 1258 486 1283 z m 947 982 b 913 1017 947 1004 935 1017 l 818 1017 b 783 982 796 1017 783 1004 l 781 457 b 526 125 779 228 690 125 b 265 457 365 125 268 226 l 263 982 b 228 1017 263 1004 250 1017 l 133 1017 b 99 982 111 1017 99 1004 l 96 439 b 522 -22 94 136 275 -22 b 950 439 769 -22 951 135 z "},"V":{"ha":936,"x_min":0,"x_max":0,"o":"m 782 1017 b 743 989 763 1017 750 1008 l 468 240 l 463 240 l 192 989 b 153 1017 185 1008 172 1017 l 56 1017 b 28 976 31 1017 19 1001 l 363 28 b 401 0 369 8 382 0 l 533 0 b 572 28 553 0 565 8 l 908 976 b 881 1017 917 1001 906 1017 z "},"W":{"ha":1368,"x_min":0,"x_max":0,"o":"m 1226 1017 b 1188 988 1206 1017 1193 1007 l 986 274 l 979 274 l 794 988 b 756 1017 789 1007 776 1017 l 624 1017 b 585 988 603 1017 590 1007 l 383 274 l 378 274 l 190 988 b 151 1017 185 1007 172 1017 l 54 1017 b 24 978 29 1017 18 1001 l 278 29 b 317 0 283 10 296 0 l 447 0 b 486 29 468 0 481 10 l 685 768 l 882 29 b 921 0 888 10 900 0 l 1051 0 b 1090 29 1072 0 1085 10 l 1344 978 b 1314 1017 1350 1001 1339 1017 z "},"Ẃ":{"ha":1368,"x_min":0,"x_max":0,"o":"m 849 1296 b 828 1339 867 1319 857 1339 l 764 1339 b 722 1314 744 1339 732 1332 l 638 1158 b 663 1117 625 1133 635 1117 l 678 1117 b 721 1138 696 1117 708 1122 z m 1226 1017 b 1188 988 1206 1017 1193 1007 l 986 274 l 979 274 l 794 988 b 756 1017 789 1007 776 1017 l 624 1017 b 585 988 603 1017 590 1007 l 383 274 l 378 274 l 190 988 b 151 1017 185 1007 172 1017 l 54 1017 b 24 978 29 1017 18 1001 l 278 29 b 317 0 283 10 296 0 l 447 0 b 486 29 468 0 481 10 l 685 768 l 882 29 b 921 0 888 10 900 0 l 1051 0 b 1090 29 1072 0 1085 10 l 1344 978 b 1314 1017 1350 1001 1339 1017 z "},"Ŵ":{"ha":1368,"x_min":0,"x_max":0,"o":"m 675 1253 l 689 1253 l 768 1139 b 810 1117 779 1124 792 1117 l 858 1117 b 878 1160 888 1117 897 1136 l 742 1319 b 699 1339 731 1333 718 1339 l 671 1339 b 628 1319 651 1339 639 1333 l 493 1160 b 513 1117 474 1136 483 1117 l 560 1117 b 603 1139 579 1117 592 1124 z m 1226 1017 b 1188 988 1206 1017 1193 1007 l 986 274 l 979 274 l 794 988 b 756 1017 789 1007 776 1017 l 624 1017 b 585 988 603 1017 590 1007 l 383 274 l 378 274 l 190 988 b 151 1017 185 1007 172 1017 l 54 1017 b 24 978 29 1017 18 1001 l 278 29 b 317 0 283 10 296 0 l 447 0 b 486 29 468 0 481 10 l 685 768 l 882 29 b 921 0 888 10 900 0 l 1051 0 b 1090 29 1072 0 1085 10 l 1344 978 b 1314 1017 1350 1001 1339 1017 z "},"Ẅ":{"ha":1368,"x_min":0,"x_max":0,"o":"m 640 1290 b 606 1325 640 1313 628 1325 l 547 1325 b 513 1290 525 1325 513 1313 l 513 1200 b 547 1165 513 1178 525 1165 l 606 1165 b 640 1200 628 1165 640 1178 z m 863 1290 b 828 1325 863 1313 850 1325 l 769 1325 b 735 1290 747 1325 735 1313 l 735 1200 b 769 1165 735 1178 747 1165 l 828 1165 b 863 1200 850 1165 863 1178 z m 1226 1017 b 1188 988 1206 1017 1193 1007 l 986 274 l 979 274 l 794 988 b 756 1017 789 1007 776 1017 l 624 1017 b 585 988 603 1017 590 1007 l 383 274 l 378 274 l 190 988 b 151 1017 185 1007 172 1017 l 54 1017 b 24 978 29 1017 18 1001 l 278 29 b 317 0 283 10 296 0 l 447 0 b 486 29 468 0 481 10 l 685 768 l 882 29 b 921 0 888 10 900 0 l 1051 0 b 1090 29 1072 0 1085 10 l 1344 978 b 1314 1017 1350 1001 1339 1017 z "},"Ẁ":{"ha":1368,"x_min":0,"x_max":0,"o":"m 722 1117 b 747 1158 750 1117 760 1133 l 663 1314 b 621 1339 653 1332 640 1339 l 557 1339 b 536 1296 528 1339 518 1319 l 664 1138 b 707 1117 676 1122 689 1117 z m 1226 1017 b 1188 988 1206 1017 1193 1007 l 986 274 l 979 274 l 794 988 b 756 1017 789 1007 776 1017 l 624 1017 b 585 988 603 1017 590 1007 l 383 274 l 378 274 l 190 988 b 151 1017 185 1007 172 1017 l 54 1017 b 24 978 29 1017 18 1001 l 278 29 b 317 0 283 10 296 0 l 447 0 b 486 29 468 0 481 10 l 685 768 l 882 29 b 921 0 888 10 900 0 l 1051 0 b 1090 29 1072 0 1085 10 l 1344 978 b 1314 1017 1350 1001 1339 1017 z "},"X":{"ha":1025,"x_min":0,"x_max":0,"o":"m 914 0 b 936 42 942 0 951 18 l 618 517 l 922 975 b 900 1017 938 999 928 1017 l 804 1017 b 763 994 786 1017 774 1010 l 532 646 l 300 994 b 258 1017 289 1010 276 1017 l 156 1017 b 133 975 128 1017 117 999 l 421 529 l 90 42 b 113 0 74 18 83 0 l 226 0 b 269 22 246 0 258 7 l 508 394 l 747 22 b 789 0 758 7 771 0 z "},"Y":{"ha":851,"x_min":0,"x_max":0,"o":"m 511 410 l 815 975 b 790 1017 828 1000 818 1017 l 692 1017 b 651 992 672 1017 660 1008 l 436 582 l 425 582 l 207 992 b 167 1017 199 1010 186 1017 l 61 1017 b 36 975 33 1017 24 1000 l 343 411 l 340 35 b 375 0 340 13 353 0 l 481 0 b 515 35 503 0 515 13 z "},"Ý":{"ha":851,"x_min":0,"x_max":0,"o":"m 590 1296 b 569 1339 608 1319 599 1339 l 506 1339 b 464 1314 486 1339 474 1332 l 379 1158 b 404 1117 367 1133 376 1117 l 419 1117 b 463 1138 438 1117 450 1122 z m 511 410 l 815 975 b 790 1017 828 1000 818 1017 l 692 1017 b 651 992 672 1017 660 1008 l 436 582 l 425 582 l 207 992 b 167 1017 199 1010 186 1017 l 61 1017 b 36 975 33 1017 24 1000 l 343 411 l 340 35 b 375 0 340 13 353 0 l 481 0 b 515 35 503 0 515 13 z "},"Ŷ":{"ha":851,"x_min":0,"x_max":0,"o":"m 415 1253 l 429 1253 l 508 1139 b 550 1117 519 1124 532 1117 l 599 1117 b 618 1160 628 1117 638 1136 l 482 1319 b 439 1339 471 1333 458 1339 l 411 1339 b 368 1319 392 1339 379 1333 l 233 1160 b 253 1117 214 1136 224 1117 l 300 1117 b 343 1139 319 1117 332 1124 z m 511 410 l 815 975 b 790 1017 828 1000 818 1017 l 692 1017 b 651 992 672 1017 660 1008 l 436 582 l 425 582 l 207 992 b 167 1017 199 1010 186 1017 l 61 1017 b 36 975 33 1017 24 1000 l 343 411 l 340 35 b 375 0 340 13 353 0 l 481 0 b 515 35 503 0 515 13 z "},"Ÿ":{"ha":851,"x_min":0,"x_max":0,"o":"m 381 1290 b 346 1325 381 1313 368 1325 l 288 1325 b 253 1290 265 1325 253 1313 l 253 1200 b 288 1165 253 1178 265 1165 l 346 1165 b 381 1200 368 1165 381 1178 z m 603 1290 b 568 1325 603 1313 590 1325 l 510 1325 b 475 1290 488 1325 475 1313 l 475 1200 b 510 1165 475 1178 488 1165 l 568 1165 b 603 1200 590 1165 603 1178 z m 511 410 l 815 975 b 790 1017 828 1000 818 1017 l 692 1017 b 651 992 672 1017 660 1008 l 436 582 l 425 582 l 207 992 b 167 1017 199 1010 186 1017 l 61 1017 b 36 975 33 1017 24 1000 l 343 411 l 340 35 b 375 0 340 13 353 0 l 481 0 b 515 35 503 0 515 13 z "},"Ỳ":{"ha":851,"x_min":0,"x_max":0,"o":"m 464 1117 b 489 1158 492 1117 501 1133 l 404 1314 b 363 1339 394 1332 382 1339 l 299 1339 b 278 1296 269 1339 260 1319 l 406 1138 b 449 1117 418 1122 431 1117 z m 511 410 l 815 975 b 790 1017 828 1000 818 1017 l 692 1017 b 651 992 672 1017 660 1008 l 436 582 l 425 582 l 207 992 b 167 1017 199 1010 186 1017 l 61 1017 b 36 975 33 1017 24 1000 l 343 411 l 340 35 b 375 0 340 13 353 0 l 481 0 b 515 35 503 0 515 13 z "},"Z":{"ha":933,"x_min":0,"x_max":0,"o":"m 283 150 l 283 160 l 808 869 b 825 915 824 888 825 900 l 825 982 b 790 1017 825 1004 813 1017 l 135 1017 b 100 982 113 1017 100 1004 l 100 903 b 135 868 100 881 113 868 l 610 868 l 610 856 l 88 151 b 69 106 72 132 69 119 l 69 35 b 104 0 69 13 82 0 l 804 0 b 839 35 826 0 839 13 l 839 115 b 804 150 839 138 826 150 z "},"Ź":{"ha":933,"x_min":0,"x_max":0,"o":"m 631 1286 b 610 1329 649 1310 639 1329 l 546 1329 b 504 1304 526 1329 514 1322 l 419 1149 b 444 1107 407 1124 417 1107 l 460 1107 b 503 1128 478 1107 490 1113 z m 283 150 l 283 160 l 808 869 b 825 915 824 888 825 900 l 825 982 b 790 1017 825 1004 813 1017 l 135 1017 b 100 982 113 1017 100 1004 l 100 903 b 135 868 100 881 113 868 l 610 868 l 610 856 l 88 151 b 69 106 72 132 69 119 l 69 35 b 104 0 69 13 82 0 l 804 0 b 839 35 826 0 839 13 l 839 115 b 804 150 839 138 826 150 z "},"Ž":{"ha":933,"x_min":0,"x_max":0,"o":"m 479 1107 b 522 1126 499 1107 511 1113 l 657 1286 b 638 1329 676 1310 667 1329 l 590 1329 b 547 1307 571 1329 558 1322 l 475 1193 l 461 1193 l 382 1307 b 340 1329 371 1322 358 1329 l 292 1329 b 272 1286 263 1329 253 1310 l 408 1126 b 451 1107 419 1113 432 1107 z m 283 150 l 283 160 l 808 869 b 825 915 824 888 825 900 l 825 982 b 790 1017 825 1004 813 1017 l 135 1017 b 100 982 113 1017 100 1004 l 100 903 b 135 868 100 881 113 868 l 610 868 l 610 856 l 88 151 b 69 106 72 132 69 119 l 69 35 b 104 0 69 13 82 0 l 804 0 b 839 35 826 0 839 13 l 839 115 b 804 150 839 138 826 150 z "},"Ż":{"ha":933,"x_min":0,"x_max":0,"o":"m 547 1279 b 513 1314 547 1301 535 1314 l 422 1314 b 388 1279 400 1314 388 1301 l 388 1189 b 422 1154 388 1167 400 1154 l 513 1154 b 547 1189 535 1154 547 1167 z m 283 150 l 283 160 l 808 869 b 825 915 824 888 825 900 l 825 982 b 790 1017 825 1004 813 1017 l 135 1017 b 100 982 113 1017 100 1004 l 100 903 b 135 868 100 881 113 868 l 610 868 l 610 856 l 88 151 b 69 106 72 132 69 119 l 69 35 b 104 0 69 13 82 0 l 804 0 b 839 35 826 0 839 13 l 839 115 b 804 150 839 138 826 150 z "},"a":{"ha":800,"x_min":0,"x_max":0,"o":"m 410 768 b 89 561 207 768 115 651 b 125 542 86 549 100 542 l 214 542 b 254 567 233 542 244 550 b 394 629 278 600 321 629 b 540 486 507 629 540 565 l 540 467 l 496 464 b 53 196 201 442 53 367 b 279 -15 53 61 146 -15 b 529 113 390 -15 479 36 l 540 113 l 540 35 b 575 0 540 13 553 0 l 671 0 b 706 35 693 0 706 13 l 700 468 b 410 768 697 679 586 768 z m 540 346 l 540 313 b 317 126 544 232 454 126 b 211 206 247 126 211 157 b 499 343 211 278 288 328 z "},"á":{"ha":800,"x_min":0,"x_max":0,"o":"m 560 1017 b 539 1060 578 1040 568 1060 l 475 1060 b 433 1035 456 1060 443 1053 l 349 879 b 374 838 336 854 346 838 l 389 838 b 432 858 407 838 419 843 z m 410 768 b 89 561 207 768 115 651 b 125 542 86 549 100 542 l 214 542 b 254 567 233 542 244 550 b 394 629 278 600 321 629 b 540 486 507 629 540 565 l 540 467 l 496 464 b 53 196 201 442 53 367 b 279 -15 53 61 146 -15 b 529 113 390 -15 479 36 l 540 113 l 540 35 b 575 0 540 13 553 0 l 671 0 b 706 35 693 0 706 13 l 700 468 b 410 768 697 679 586 768 z m 540 346 l 540 313 b 317 126 544 232 454 126 b 211 206 247 126 211 157 b 499 343 211 278 288 328 z "},"ă":{"ha":800,"x_min":0,"x_max":0,"o":"m 599 1007 b 564 1029 599 1021 586 1029 l 533 1029 b 499 1007 511 1029 499 1021 b 393 911 499 936 456 911 b 289 1007 333 911 289 936 b 254 1029 289 1021 276 1029 l 225 1029 b 190 1007 203 1029 190 1021 b 393 822 190 879 275 822 b 599 1007 514 822 599 879 z m 410 768 b 89 561 207 768 115 651 b 125 542 86 549 100 542 l 214 542 b 254 567 233 542 244 550 b 394 629 278 600 321 629 b 540 486 507 629 540 565 l 540 467 l 496 464 b 53 196 201 442 53 367 b 279 -15 53 61 146 -15 b 529 113 390 -15 479 36 l 540 113 l 540 35 b 575 0 540 13 553 0 l 671 0 b 706 35 693 0 706 13 l 700 468 b 410 768 697 679 586 768 z m 540 346 l 540 313 b 317 126 544 232 454 126 b 211 206 247 126 211 157 b 499 343 211 278 288 328 z "},"ǎ":{"ha":800,"x_min":0,"x_max":0,"o":"m 407 836 b 450 856 426 836 439 842 l 585 1015 b 565 1058 604 1039 594 1058 l 518 1058 b 475 1036 499 1058 486 1051 l 403 922 l 389 922 l 310 1036 b 268 1058 299 1051 286 1058 l 219 1058 b 200 1015 190 1058 181 1039 l 336 856 b 379 836 347 842 360 836 z m 671 0 b 706 35 693 0 706 13 l 700 468 b 410 768 697 679 586 768 b 96 581 222 768 129 668 b 125 542 88 557 100 542 l 214 542 b 254 567 233 542 244 550 b 394 629 278 600 321 629 b 540 486 507 629 540 565 l 540 467 l 496 464 b 53 196 201 442 53 367 b 279 -15 53 61 146 -15 b 529 113 390 -15 479 36 l 540 113 l 540 35 b 575 0 540 13 553 0 z m 317 126 b 211 206 247 126 211 157 b 499 343 211 278 288 328 l 540 346 l 540 313 b 317 126 544 232 454 126 z "},"â":{"ha":800,"x_min":0,"x_max":0,"o":"m 385 974 l 399 974 l 478 860 b 519 838 489 844 501 838 l 568 838 b 588 881 597 838 607 857 l 451 1040 b 408 1060 440 1054 428 1060 l 381 1060 b 338 1040 361 1060 349 1054 l 203 881 b 222 838 183 857 193 838 l 269 838 b 313 860 289 838 301 844 z m 671 0 b 706 35 693 0 706 13 l 700 468 b 410 768 697 679 586 768 b 96 581 222 768 129 668 b 125 542 88 557 100 542 l 214 542 b 254 567 233 542 244 550 b 394 629 278 600 321 629 b 540 486 507 629 540 565 l 540 467 l 496 464 b 53 196 201 442 53 367 b 279 -15 53 61 146 -15 b 529 113 390 -15 479 36 l 540 113 l 540 35 b 575 0 540 13 553 0 z m 317 126 b 211 206 247 126 211 157 b 499 343 211 278 288 328 l 540 346 l 540 313 b 317 126 544 232 454 126 z "},"ä":{"ha":800,"x_min":0,"x_max":0,"o":"m 350 1011 b 315 1046 350 1033 338 1046 l 257 1046 b 222 1011 235 1046 222 1033 l 222 921 b 257 886 222 899 235 886 l 315 886 b 350 921 338 886 350 899 z m 572 1011 b 538 1046 572 1033 560 1046 l 479 1046 b 444 1011 457 1046 444 1033 l 444 921 b 479 886 444 899 457 886 l 538 886 b 572 921 560 886 572 899 z m 410 768 b 89 561 207 768 115 651 b 125 542 86 549 100 542 l 214 542 b 254 567 233 542 244 550 b 394 629 278 600 321 629 b 540 486 507 629 540 565 l 540 467 l 496 464 b 53 196 201 442 53 367 b 279 -15 53 61 146 -15 b 529 113 390 -15 479 36 l 540 113 l 540 35 b 575 0 540 13 553 0 l 671 0 b 706 35 693 0 706 13 l 700 468 b 410 768 697 679 586 768 z m 540 346 l 540 313 b 317 126 544 232 454 126 b 211 206 247 126 211 157 b 499 343 211 278 288 328 z "},"à":{"ha":800,"x_min":0,"x_max":0,"o":"m 268 1060 b 247 1017 239 1060 229 1040 l 375 858 b 418 838 388 843 400 838 l 433 838 b 458 879 461 838 471 854 l 374 1035 b 332 1060 364 1053 351 1060 z m 410 768 b 89 561 207 768 115 651 b 125 542 86 549 100 542 l 214 542 b 254 567 233 542 244 550 b 394 629 278 600 321 629 b 540 486 507 629 540 565 l 540 467 l 496 464 b 53 196 201 442 53 367 b 279 -15 53 61 146 -15 b 529 113 390 -15 479 36 l 540 113 l 540 35 b 575 0 540 13 553 0 l 671 0 b 706 35 693 0 706 13 l 700 468 b 410 768 697 679 586 768 z m 540 346 l 540 313 b 317 126 544 232 454 126 b 211 206 247 126 211 157 b 499 343 211 278 288 328 z "},"ā":{"ha":800,"x_min":0,"x_max":0,"o":"m 572 963 b 538 997 572 985 560 997 l 253 997 b 218 963 231 997 218 985 l 218 933 b 253 899 218 911 231 899 l 538 899 b 572 933 560 899 572 911 z m 410 768 b 89 561 207 768 115 651 b 125 542 86 549 100 542 l 214 542 b 254 567 233 542 244 550 b 394 629 278 600 321 629 b 540 486 507 629 540 565 l 540 467 l 496 464 b 53 196 201 442 53 367 b 279 -15 53 61 146 -15 b 529 113 390 -15 479 36 l 540 113 l 540 35 b 575 0 540 13 553 0 l 671 0 b 706 35 693 0 706 13 l 700 468 b 410 768 697 679 586 768 z m 540 346 l 540 313 b 317 126 544 232 454 126 b 211 206 247 126 211 157 b 499 343 211 278 288 328 z "},"å":{"ha":800,"x_min":0,"x_max":0,"o":"m 394 1078 b 253 938 317 1078 253 1022 b 394 796 253 853 317 796 b 535 938 472 796 535 853 b 394 1078 535 1022 472 1078 z m 394 1004 b 461 938 432 1004 461 979 b 394 869 461 897 432 869 b 326 938 357 869 326 897 b 394 1004 326 979 357 1004 z m 410 768 b 89 561 207 768 115 651 b 125 542 86 549 100 542 l 214 542 b 254 567 233 542 244 550 b 394 629 278 600 321 629 b 540 486 507 629 540 565 l 540 467 l 496 464 b 53 196 201 442 53 367 b 279 -15 53 61 146 -15 b 529 113 390 -15 479 36 l 540 113 l 540 35 b 575 0 540 13 553 0 l 671 0 b 706 35 693 0 706 13 l 700 468 b 410 768 697 679 586 768 z m 540 346 l 540 313 b 317 126 544 232 454 126 b 211 206 247 126 211 157 b 499 343 211 278 288 328 z "},"ã":{"ha":800,"x_min":0,"x_max":0,"o":"m 326 1033 b 199 894 240 1033 207 972 b 233 858 197 871 210 858 l 254 858 b 290 892 276 858 286 869 b 328 936 294 917 306 936 b 492 835 383 936 404 835 b 614 974 574 835 606 904 b 579 1010 615 997 603 1010 l 558 1010 b 524 975 536 1010 526 997 b 492 932 519 951 511 932 b 326 1033 450 932 422 1033 z m 410 768 b 89 561 207 768 115 651 b 125 542 86 549 100 542 l 214 542 b 254 567 233 542 244 550 b 394 629 278 600 321 629 b 540 486 507 629 540 565 l 540 467 l 496 464 b 53 196 201 442 53 367 b 279 -15 53 61 146 -15 b 529 113 390 -15 479 36 l 540 113 l 540 35 b 575 0 540 13 553 0 l 671 0 b 706 35 693 0 706 13 l 700 468 b 410 768 697 679 586 768 z m 540 346 l 540 313 b 317 126 544 232 454 126 b 211 206 247 126 211 157 b 499 343 211 278 288 328 z "},"æ":{"ha":1286,"x_min":0,"x_max":0,"o":"m 907 769 b 649 664 801 769 711 731 b 410 768 599 736 515 768 b 96 579 222 768 129 667 b 125 540 88 556 100 540 l 214 540 b 254 565 233 540 244 549 b 394 628 278 599 321 628 b 540 479 507 628 540 564 l 540 467 l 496 464 b 53 196 201 442 53 367 b 279 -15 53 60 146 -15 b 594 133 417 -15 538 49 l 603 133 b 894 -22 665 35 769 -22 b 1207 181 1033 -22 1149 49 b 1179 221 1217 204 1206 221 l 1094 221 b 1053 197 1075 221 1063 214 b 908 122 1017 143 974 122 b 703 336 797 122 711 185 l 1197 336 b 1233 369 1219 336 1232 347 b 907 769 1242 592 1135 769 z m 713 464 b 893 625 732 546 779 625 b 1067 464 1006 625 1064 549 z m 540 346 l 540 325 b 317 125 540 249 454 125 b 211 206 247 125 211 157 b 499 343 211 278 288 328 z "},"b":{"ha":857,"x_min":0,"x_max":0,"o":"m 258 697 l 256 1010 b 221 1044 256 1032 243 1044 l 135 1044 b 100 1010 113 1044 100 1032 l 94 35 b 129 0 94 13 107 0 l 226 0 b 261 35 249 0 261 13 l 261 99 l 271 99 b 497 -22 324 15 410 -22 b 804 364 679 -22 804 140 b 450 768 804 606 661 768 b 267 697 374 768 314 749 z m 451 625 b 640 367 563 625 640 536 b 454 122 640 214 575 122 b 251 351 338 122 260 204 l 251 358 b 451 625 253 529 336 625 z "},"c":{"ha":756,"x_min":0,"x_max":0,"o":"m 404 769 b 53 364 197 769 53 615 b 399 -22 53 131 188 -22 b 714 188 568 -22 674 83 b 685 226 724 211 710 226 l 599 226 b 558 201 579 226 568 218 b 414 124 532 156 493 124 b 215 368 293 124 215 188 b 406 625 215 560 293 625 b 564 533 483 625 529 593 b 604 508 574 517 585 508 l 690 508 b 722 546 715 508 728 522 b 404 769 690 660 576 769 z "},"ć":{"ha":756,"x_min":0,"x_max":0,"o":"m 554 1017 b 533 1060 572 1040 563 1060 l 469 1060 b 428 1035 450 1060 438 1053 l 343 879 b 368 838 331 854 340 838 l 383 838 b 426 858 401 838 414 843 z m 404 769 b 53 364 197 769 53 615 b 399 -22 53 131 188 -22 b 714 188 568 -22 674 83 b 685 226 724 211 710 226 l 599 226 b 558 201 579 226 568 218 b 414 124 532 156 493 124 b 215 368 293 124 215 188 b 406 625 215 560 293 625 b 564 533 483 625 529 593 b 604 508 574 517 585 508 l 690 508 b 722 546 715 508 728 522 b 404 769 690 660 576 769 z "},"č":{"ha":756,"x_min":0,"x_max":0,"o":"m 401 836 b 444 856 421 836 433 842 l 579 1015 b 560 1058 599 1039 589 1058 l 513 1058 b 469 1036 493 1058 481 1051 l 397 922 l 383 922 l 304 1036 b 263 1058 293 1051 281 1058 l 214 1058 b 194 1015 185 1058 175 1039 l 331 856 b 374 836 342 842 354 836 z m 414 124 b 215 368 293 124 215 188 b 406 625 215 560 293 625 b 564 533 483 625 529 593 b 604 508 574 517 585 508 l 690 508 b 722 546 715 508 728 522 b 404 769 690 660 576 769 b 53 364 197 769 53 615 b 399 -22 53 131 188 -22 b 714 188 568 -22 674 83 b 685 226 724 211 710 226 l 599 226 b 558 201 579 226 568 218 b 414 124 532 156 493 124 z "},"ç":{"ha":756,"x_min":0,"x_max":0,"o":"m 414 124 b 215 368 293 124 215 188 b 406 625 215 560 293 625 b 564 533 483 625 529 593 b 604 508 574 517 585 508 l 690 508 b 722 546 715 508 728 522 b 404 769 690 660 576 769 b 53 364 197 769 53 615 b 338 -18 53 154 163 8 l 310 -110 b 335 -149 303 -133 313 -149 b 417 -201 400 -149 417 -176 b 363 -246 417 -228 394 -246 b 307 -235 347 -246 328 -242 b 263 -256 285 -228 269 -233 l 260 -265 b 278 -311 253 -286 258 -303 b 363 -328 306 -324 335 -328 b 510 -197 460 -328 510 -271 b 411 -81 510 -129 468 -92 l 432 -21 b 714 188 583 -8 676 90 b 685 226 724 211 710 226 l 599 226 b 558 201 579 226 568 218 b 414 124 532 156 493 124 z "},"ċ":{"ha":756,"x_min":0,"x_max":0,"o":"m 469 1010 b 435 1044 469 1032 457 1044 l 344 1044 b 310 1010 322 1044 310 1032 l 310 919 b 344 885 310 897 322 885 l 435 885 b 469 919 457 885 469 897 z m 404 769 b 53 364 197 769 53 615 b 399 -22 53 131 188 -22 b 714 188 568 -22 674 83 b 685 226 724 211 710 226 l 599 226 b 558 201 579 226 568 218 b 414 124 532 156 493 124 b 215 368 293 124 215 188 b 406 625 215 560 293 625 b 564 533 483 625 529 593 b 604 508 574 517 585 508 l 690 508 b 722 546 715 508 728 522 b 404 769 690 660 576 769 z "},"d":{"ha":856,"x_min":0,"x_max":0,"o":"m 756 1010 b 721 1044 756 1032 743 1044 l 631 1044 b 596 1010 608 1044 596 1032 l 594 697 l 588 697 b 407 768 542 749 482 768 b 53 364 196 768 53 606 b 358 -22 53 140 178 -22 b 579 99 447 -22 532 15 l 589 99 l 589 35 b 624 0 589 13 601 0 l 726 0 b 761 35 749 0 761 13 z m 403 625 b 603 392 517 625 597 544 l 603 385 b 404 124 601 219 519 124 b 215 378 294 124 215 211 b 403 625 215 532 281 625 z "},"ď":{"ha":856,"x_min":0,"x_max":0,"o":"m 756 1010 b 721 1044 756 1032 743 1044 l 631 1044 b 596 1010 608 1044 596 1032 l 594 697 l 588 697 b 407 768 542 749 482 768 b 53 364 196 768 53 606 b 358 -22 53 140 178 -22 b 579 99 447 -22 532 15 l 589 99 l 589 35 b 624 0 589 13 601 0 l 726 0 b 761 35 749 0 761 13 z m 979 1007 b 947 1044 983 1031 972 1044 l 913 1044 b 876 1011 890 1044 878 1033 l 860 843 b 892 807 857 819 869 807 l 911 807 b 949 839 932 807 944 818 z m 403 625 b 603 392 517 625 597 544 l 603 385 b 404 124 601 219 519 124 b 215 378 294 124 215 211 b 403 625 215 532 281 625 z "},"e":{"ha":797,"x_min":0,"x_max":0,"o":"m 419 769 b 53 368 200 769 53 604 b 407 -22 53 132 201 -22 b 718 181 544 -22 660 49 b 690 221 728 204 717 221 l 606 221 b 564 197 586 221 574 214 b 421 122 528 143 485 122 b 215 336 310 122 222 185 l 708 336 b 744 369 731 336 743 347 b 419 769 754 592 646 769 z m 406 625 b 578 464 518 625 576 549 l 224 464 b 406 625 243 546 290 625 z "},"é":{"ha":797,"x_min":0,"x_max":0,"o":"m 563 1017 b 542 1060 581 1040 571 1060 l 478 1060 b 436 1035 458 1060 446 1053 l 351 879 b 376 838 339 854 349 838 l 392 838 b 435 858 410 838 422 843 z m 419 769 b 53 368 200 769 53 604 b 407 -22 53 132 201 -22 b 718 181 544 -22 660 49 b 690 221 728 204 717 221 l 606 221 b 564 197 586 221 574 214 b 421 122 528 143 485 122 b 215 336 310 122 222 185 l 708 336 b 744 369 731 336 743 347 b 419 769 754 592 646 769 z m 406 625 b 578 464 518 625 576 549 l 224 464 b 406 625 243 546 290 625 z "},"ě":{"ha":797,"x_min":0,"x_max":0,"o":"m 410 836 b 453 856 429 836 442 842 l 588 1015 b 568 1058 607 1039 597 1058 l 521 1058 b 478 1036 501 1058 489 1051 l 406 922 l 392 922 l 313 1036 b 271 1058 301 1051 289 1058 l 222 1058 b 203 1015 193 1058 183 1039 l 339 856 b 382 836 350 842 363 836 z m 419 769 b 53 368 200 769 53 604 b 407 -22 53 132 201 -22 b 718 181 544 -22 660 49 b 690 221 728 204 717 221 l 606 221 b 564 197 586 221 574 214 b 421 122 528 143 485 122 b 215 336 310 122 222 185 l 708 336 b 744 369 731 336 743 347 b 419 769 754 592 646 769 z m 224 464 b 406 625 243 546 290 625 b 578 464 518 625 576 549 z "},"ê":{"ha":797,"x_min":0,"x_max":0,"o":"m 388 974 l 401 974 l 481 860 b 522 838 492 844 504 838 l 571 838 b 590 881 600 838 610 857 l 454 1040 b 411 1060 443 1054 431 1060 l 383 1060 b 340 1040 364 1060 351 1054 l 206 881 b 225 838 186 857 196 838 l 272 838 b 315 860 292 838 304 844 z m 419 769 b 53 368 200 769 53 604 b 407 -22 53 132 201 -22 b 718 181 544 -22 660 49 b 690 221 728 204 717 221 l 606 221 b 564 197 586 221 574 214 b 421 122 528 143 485 122 b 215 336 310 122 222 185 l 708 336 b 744 369 731 336 743 347 b 419 769 754 592 646 769 z m 224 464 b 406 625 243 546 290 625 b 578 464 518 625 576 549 z "},"ë":{"ha":797,"x_min":0,"x_max":0,"o":"m 353 1011 b 318 1046 353 1033 340 1046 l 260 1046 b 225 1011 238 1046 225 1033 l 225 921 b 260 886 225 899 238 886 l 318 886 b 353 921 340 886 353 899 z m 575 1011 b 540 1046 575 1033 563 1046 l 482 1046 b 447 1011 460 1046 447 1033 l 447 921 b 482 886 447 899 460 886 l 540 886 b 575 921 563 886 575 899 z m 419 769 b 53 368 200 769 53 604 b 407 -22 53 132 201 -22 b 718 181 544 -22 660 49 b 690 221 728 204 717 221 l 606 221 b 564 197 586 221 574 214 b 421 122 528 143 485 122 b 215 336 310 122 222 185 l 708 336 b 744 369 731 336 743 347 b 419 769 754 592 646 769 z m 406 625 b 578 464 518 625 576 549 l 224 464 b 406 625 243 546 290 625 z "},"ė":{"ha":797,"x_min":0,"x_max":0,"o":"m 478 1010 b 443 1044 478 1032 465 1044 l 353 1044 b 318 1010 331 1044 318 1032 l 318 919 b 353 885 318 897 331 885 l 443 885 b 478 919 465 885 478 897 z m 419 769 b 53 368 200 769 53 604 b 407 -22 53 132 201 -22 b 718 181 544 -22 660 49 b 690 221 728 204 717 221 l 606 221 b 564 197 586 221 574 214 b 421 122 528 143 485 122 b 215 336 310 122 222 185 l 708 336 b 744 369 731 336 743 347 b 419 769 754 592 646 769 z m 406 625 b 578 464 518 625 576 549 l 224 464 b 406 625 243 546 290 625 z "},"è":{"ha":797,"x_min":0,"x_max":0,"o":"m 271 1060 b 250 1017 242 1060 232 1040 l 378 858 b 421 838 390 843 403 838 l 436 838 b 461 879 464 838 474 854 l 376 1035 b 335 1060 367 1053 354 1060 z m 419 769 b 53 368 200 769 53 604 b 407 -22 53 132 201 -22 b 718 181 544 -22 660 49 b 690 221 728 204 717 221 l 606 221 b 564 197 586 221 574 214 b 421 122 528 143 485 122 b 215 336 310 122 222 185 l 708 336 b 744 369 731 336 743 347 b 419 769 754 592 646 769 z m 406 625 b 578 464 518 625 576 549 l 224 464 b 406 625 243 546 290 625 z "},"ē":{"ha":797,"x_min":0,"x_max":0,"o":"m 575 963 b 540 997 575 985 563 997 l 256 997 b 221 963 233 997 221 985 l 221 933 b 256 899 221 911 233 899 l 540 899 b 575 933 563 899 575 911 z m 419 769 b 53 368 200 769 53 604 b 407 -22 53 132 201 -22 b 718 181 544 -22 660 49 b 690 221 728 204 717 221 l 606 221 b 564 197 586 221 574 214 b 421 122 528 143 485 122 b 215 336 310 122 222 185 l 708 336 b 744 369 731 336 743 347 b 419 769 754 592 646 769 z m 406 625 b 578 464 518 625 576 549 l 224 464 b 406 625 243 546 290 625 z "},"f":{"ha":557,"x_min":0,"x_max":0,"o":"m 525 1011 b 492 1046 525 1033 514 1046 b 156 746 315 1053 160 992 l 72 746 b 38 711 50 746 38 733 l 38 644 b 72 610 38 622 50 610 l 154 610 l 150 35 b 185 0 150 13 163 0 l 286 0 b 321 35 308 0 321 13 l 317 610 l 483 610 b 518 644 506 610 518 622 l 518 711 b 483 746 518 733 506 746 l 315 746 l 315 753 b 490 900 314 889 374 897 b 525 935 513 900 525 913 z "},"g":{"ha":858,"x_min":0,"x_max":0,"o":"m 358 768 b 53 385 178 768 53 601 b 404 0 53 153 196 0 b 581 75 483 0 533 21 l 589 75 l 589 57 b 407 -183 593 -128 514 -183 b 268 -132 353 -183 303 -171 b 225 -111 256 -118 243 -111 l 135 -111 b 108 -153 108 -111 96 -128 b 410 -328 168 -268 275 -328 b 764 113 615 -328 769 -190 l 756 711 b 721 746 756 733 743 746 l 631 746 b 594 711 608 746 596 733 l 593 643 l 582 643 b 358 768 533 725 450 768 z m 404 625 b 603 357 519 625 601 525 l 603 350 b 403 144 597 215 517 144 b 215 371 281 144 215 225 b 404 625 215 531 294 625 z "},"ğ":{"ha":858,"x_min":0,"x_max":0,"o":"m 626 1007 b 592 1029 626 1021 614 1029 l 561 1029 b 526 1007 539 1029 526 1021 b 421 911 526 936 483 911 b 317 1007 361 911 317 936 b 282 1029 317 1021 304 1029 l 253 1029 b 218 1007 231 1029 218 1021 b 421 822 218 879 303 822 b 626 1007 542 822 626 879 z m 358 768 b 53 385 178 768 53 601 b 404 0 53 153 196 0 b 581 75 483 0 533 21 l 589 75 l 589 57 b 407 -183 593 -128 514 -183 b 268 -132 353 -183 303 -171 b 225 -111 256 -118 243 -111 l 135 -111 b 108 -153 108 -111 96 -128 b 410 -328 168 -268 275 -328 b 764 113 615 -328 769 -190 l 756 711 b 721 746 756 733 743 746 l 631 746 b 594 711 608 746 596 733 l 593 643 l 582 643 b 358 768 533 725 450 768 z m 404 625 b 603 357 519 625 601 525 l 603 350 b 403 144 597 215 517 144 b 215 371 281 144 215 225 b 404 625 215 531 294 625 z "},"ġ":{"ha":858,"x_min":0,"x_max":0,"o":"m 503 1010 b 468 1044 503 1032 490 1044 l 378 1044 b 343 1010 356 1044 343 1032 l 343 919 b 378 885 343 897 356 885 l 468 885 b 503 919 490 885 503 897 z m 358 768 b 53 385 178 768 53 601 b 404 0 53 153 196 0 b 581 75 483 0 533 21 l 589 75 l 589 57 b 407 -183 593 -128 514 -183 b 268 -132 353 -183 303 -171 b 225 -111 256 -118 243 -111 l 135 -111 b 108 -153 108 -111 96 -128 b 410 -328 168 -268 275 -328 b 764 113 615 -328 769 -190 l 756 711 b 721 746 756 733 743 746 l 631 746 b 594 711 608 746 596 733 l 593 643 l 582 643 b 358 768 533 725 450 768 z m 404 625 b 603 357 519 625 601 525 l 603 350 b 403 144 597 215 517 144 b 215 371 281 144 215 225 b 404 625 215 531 294 625 z "},"h":{"ha":824,"x_min":0,"x_max":0,"o":"m 263 644 l 260 1010 b 225 1044 260 1032 247 1044 l 135 1044 b 100 1010 113 1044 100 1032 l 94 35 b 129 0 94 13 107 0 l 231 0 b 265 35 253 0 265 13 l 263 356 b 431 603 253 525 329 603 b 561 439 513 603 563 551 l 557 35 b 592 0 557 13 569 0 l 694 0 b 729 35 717 0 729 13 l 726 481 b 486 760 725 658 631 760 b 275 644 399 760 326 724 z "},"i":{"ha":388,"x_min":0,"x_max":0,"o":"m 275 1010 b 240 1044 275 1032 263 1044 l 150 1044 b 115 1010 128 1044 115 1032 l 115 919 b 150 885 115 897 128 885 l 240 885 b 275 919 263 885 275 897 z m 274 711 b 239 746 274 733 261 746 l 149 746 b 114 711 126 746 114 733 l 108 35 b 143 0 108 13 121 0 l 244 0 b 279 35 267 0 279 13 z "},"ı":{"ha":388,"x_min":0,"x_max":0,"o":"m 274 711 b 239 746 274 733 261 746 l 149 746 b 114 711 126 746 114 733 l 108 35 b 143 0 108 13 121 0 l 244 0 b 279 35 267 0 279 13 z "},"í":{"ha":388,"x_min":0,"x_max":0,"o":"m 360 1017 b 339 1060 378 1040 368 1060 l 275 1060 b 233 1035 256 1060 243 1053 l 149 879 b 174 838 136 854 146 838 l 189 838 b 232 858 207 838 219 843 z m 274 711 b 239 746 274 733 261 746 l 149 746 b 114 711 126 746 114 733 l 108 35 b 143 0 108 13 121 0 l 244 0 b 279 35 267 0 279 13 z "},"ǐ":{"ha":388,"x_min":0,"x_max":0,"o":"m 207 836 b 250 856 226 836 239 842 l 385 1015 b 365 1058 404 1039 394 1058 l 318 1058 b 275 1036 299 1058 286 1051 l 203 922 l 189 922 l 110 1036 b 68 1058 99 1051 86 1058 l 19 1058 b 0 1015 -10 1058 -19 1039 l 136 856 b 179 836 147 842 160 836 z m 149 746 b 114 711 126 746 114 733 l 108 35 b 143 0 108 13 121 0 l 244 0 b 279 35 267 0 279 13 l 274 711 b 239 746 274 733 261 746 z "},"î":{"ha":388,"x_min":0,"x_max":0,"o":"m 251 1040 b 208 1060 240 1054 228 1060 l 181 1060 b 138 1040 161 1060 149 1054 l 3 881 b 22 838 -17 857 -7 838 l 69 838 b 113 860 89 838 101 844 l 185 974 l 199 974 l 278 860 b 319 838 289 844 301 838 l 368 838 b 388 881 397 838 407 857 z m 149 746 b 114 711 126 746 114 733 l 108 35 b 143 0 108 13 121 0 l 244 0 b 279 35 267 0 279 13 l 274 711 b 239 746 274 733 261 746 z "},"ï":{"ha":388,"x_min":0,"x_max":0,"o":"m 150 1011 b 115 1046 150 1033 138 1046 l 57 1046 b 22 1011 35 1046 22 1033 l 22 921 b 57 886 22 899 35 886 l 115 886 b 150 921 138 886 150 899 z m 372 1011 b 338 1046 372 1033 360 1046 l 279 1046 b 244 1011 257 1046 244 1033 l 244 921 b 279 886 244 899 257 886 l 338 886 b 372 921 360 886 372 899 z m 274 711 b 239 746 274 733 261 746 l 149 746 b 114 711 126 746 114 733 l 108 35 b 143 0 108 13 121 0 l 244 0 b 279 35 267 0 279 13 z "},"ì":{"ha":388,"x_min":0,"x_max":0,"o":"m 67 1060 b 46 1017 38 1060 28 1040 l 174 858 b 217 838 186 843 199 838 l 232 838 b 257 879 260 838 269 854 l 172 1035 b 131 1060 163 1053 150 1060 z m 274 711 b 239 746 274 733 261 746 l 149 746 b 114 711 126 746 114 733 l 108 35 b 143 0 108 13 121 0 l 244 0 b 279 35 267 0 279 13 z "},"ī":{"ha":388,"x_min":0,"x_max":0,"o":"m 371 963 b 336 997 371 985 358 997 l 51 997 b 17 963 29 997 17 985 l 17 933 b 51 899 17 911 29 899 l 336 899 b 371 933 358 899 371 911 z m 274 711 b 239 746 274 733 261 746 l 149 746 b 114 711 126 746 114 733 l 108 35 b 143 0 108 13 121 0 l 244 0 b 279 35 267 0 279 13 z "},"j":{"ha":421,"x_min":0,"x_max":0,"o":"m 294 1010 b 260 1044 294 1032 282 1044 l 169 1044 b 135 1010 147 1044 135 1032 l 135 919 b 169 885 135 897 147 885 l 260 885 b 294 919 282 885 294 897 z m 294 711 b 260 746 294 733 282 746 l 169 746 b 135 711 147 746 135 733 l 129 -14 b -3 -160 128 -147 83 -157 b -37 -196 -25 -161 -37 -174 l -37 -271 b -3 -306 -37 -293 -25 -306 b 300 0 151 -300 301 -250 z "},"ȷ":{"ha":421,"x_min":0,"x_max":0,"o":"m 294 711 b 260 746 294 733 282 746 l 169 746 b 135 711 147 746 135 733 l 129 -14 b -3 -160 128 -147 83 -157 b -37 -196 -25 -161 -37 -174 l -37 -271 b -3 -306 -37 -293 -25 -306 b 300 0 151 -300 301 -250 z "},"k":{"ha":813,"x_min":0,"x_max":0,"o":"m 333 338 l 557 22 b 599 0 568 7 581 0 l 708 0 b 729 43 738 0 747 19 l 433 433 l 715 703 b 697 746 738 725 729 746 l 596 746 b 553 728 578 746 565 740 l 263 447 l 260 1010 b 225 1044 260 1032 247 1044 l 135 1044 b 100 1010 113 1044 100 1032 l 94 35 b 129 0 94 13 107 0 l 231 0 b 265 35 253 0 265 13 l 264 272 z "},"l":{"ha":413,"x_min":0,"x_max":0,"o":"m 286 1010 b 251 1044 286 1032 274 1044 l 161 1044 b 126 1010 139 1044 126 1032 l 121 35 b 156 0 121 13 133 0 l 257 0 b 292 35 279 0 292 13 z "},"ĺ":{"ha":413,"x_min":0,"x_max":0,"o":"m 372 1303 b 351 1346 390 1326 381 1346 l 288 1346 b 246 1321 268 1346 256 1339 l 161 1165 b 186 1124 149 1140 158 1124 l 201 1124 b 244 1144 219 1124 232 1129 z m 286 1010 b 251 1044 286 1032 274 1044 l 161 1044 b 126 1010 139 1044 126 1032 l 121 35 b 156 0 121 13 133 0 l 257 0 b 292 35 279 0 292 13 z "},"ľ":{"ha":413,"x_min":0,"x_max":0,"o":"m 286 1010 b 251 1044 286 1032 274 1044 l 161 1044 b 126 1010 139 1044 126 1032 l 121 35 b 156 0 121 13 133 0 l 257 0 b 292 35 279 0 292 13 z m 514 1007 b 482 1044 518 1031 507 1044 l 447 1044 b 411 1011 425 1044 413 1033 l 394 843 b 426 807 392 819 404 807 l 446 807 b 483 839 467 807 479 818 z "},"m":{"ha":1242,"x_min":0,"x_max":0,"o":"m 911 768 b 683 632 817 768 747 722 l 674 632 b 478 768 638 724 568 768 b 268 644 394 768 324 722 l 261 644 l 260 711 b 225 746 260 733 247 746 l 135 746 b 100 711 113 746 100 733 l 93 35 b 128 0 93 13 106 0 l 231 0 b 265 35 253 0 265 13 l 263 356 b 421 613 253 546 336 613 b 539 439 497 613 540 558 l 536 35 b 571 0 536 13 549 0 l 674 0 b 708 35 696 0 708 13 l 706 356 b 864 613 696 532 769 613 b 982 439 942 613 983 558 l 979 35 b 1014 0 979 13 992 0 l 1117 0 b 1151 35 1139 0 1151 13 l 1147 481 b 911 768 1146 665 1057 768 z "},"n":{"ha":817,"x_min":0,"x_max":0,"o":"m 486 768 b 272 644 399 768 326 729 l 261 644 l 260 711 b 225 746 260 733 247 746 l 135 746 b 100 711 113 746 100 733 l 94 35 b 129 0 94 13 107 0 l 231 0 b 265 35 253 0 265 13 l 263 356 b 431 613 253 531 329 613 b 564 439 513 613 564 554 l 564 35 b 599 0 564 13 576 0 l 689 0 b 724 35 711 0 724 13 l 724 481 b 486 768 724 663 631 768 z "},"ń":{"ha":817,"x_min":0,"x_max":0,"o":"m 576 1017 b 556 1060 594 1040 585 1060 l 492 1060 b 450 1035 472 1060 460 1053 l 365 879 b 390 838 353 854 363 838 l 406 838 b 449 858 424 838 436 843 z m 486 768 b 272 644 399 768 326 729 l 261 644 l 260 711 b 225 746 260 733 247 746 l 135 746 b 100 711 113 746 100 733 l 94 35 b 129 0 94 13 107 0 l 231 0 b 265 35 253 0 265 13 l 263 356 b 431 613 253 531 329 613 b 564 439 513 613 564 554 l 564 35 b 599 0 564 13 576 0 l 689 0 b 724 35 711 0 724 13 l 724 481 b 486 768 724 663 631 768 z "},"ň":{"ha":817,"x_min":0,"x_max":0,"o":"m 424 836 b 467 856 443 836 456 842 l 601 1015 b 582 1058 621 1039 611 1058 l 535 1058 b 492 1036 515 1058 503 1051 l 419 922 l 406 922 l 326 1036 b 285 1058 315 1051 303 1058 l 236 1058 b 217 1015 207 1058 197 1039 l 353 856 b 396 836 364 842 376 836 z m 486 768 b 272 644 399 768 326 729 l 261 644 l 260 711 b 225 746 260 733 247 746 l 135 746 b 100 711 113 746 100 733 l 94 35 b 129 0 94 13 107 0 l 231 0 b 265 35 253 0 265 13 l 263 356 b 431 613 253 531 329 613 b 564 439 513 613 564 554 l 564 35 b 599 0 564 13 576 0 l 689 0 b 724 35 711 0 724 13 l 724 481 b 486 768 724 663 631 768 z "},"ñ":{"ha":817,"x_min":0,"x_max":0,"o":"m 343 1033 b 215 894 257 1033 224 972 b 250 858 214 871 226 858 l 271 858 b 307 892 293 858 303 869 b 344 936 311 917 322 936 b 508 835 400 936 421 835 b 631 974 590 835 622 904 b 596 1010 632 997 619 1010 l 575 1010 b 540 975 553 1010 543 997 b 508 932 536 951 528 932 b 343 1033 467 932 439 1033 z m 486 768 b 272 644 399 768 326 729 l 261 644 l 260 711 b 225 746 260 733 247 746 l 135 746 b 100 711 113 746 100 733 l 94 35 b 129 0 94 13 107 0 l 231 0 b 265 35 253 0 265 13 l 263 356 b 431 613 253 531 329 613 b 564 439 513 613 564 554 l 564 35 b 599 0 564 13 576 0 l 689 0 b 724 35 711 0 724 13 l 724 481 b 486 768 724 663 631 768 z "},"o":{"ha":832,"x_min":0,"x_max":0,"o":"m 422 768 b 53 369 211 768 53 604 b 410 -22 53 140 206 -22 b 779 382 619 -22 779 149 b 422 768 779 613 626 768 z m 404 625 b 615 364 522 625 615 526 b 426 124 615 217 536 124 b 215 385 310 124 215 225 b 404 625 215 535 294 625 z "},"ó":{"ha":832,"x_min":0,"x_max":0,"o":"m 581 1017 b 560 1060 599 1040 589 1060 l 496 1060 b 454 1035 476 1060 464 1053 l 369 879 b 394 838 357 854 367 838 l 410 838 b 453 858 428 838 440 843 z m 422 768 b 53 369 211 768 53 604 b 410 -22 53 140 206 -22 b 779 382 619 -22 779 149 b 422 768 779 613 626 768 z m 404 625 b 615 364 522 625 615 526 b 426 124 615 217 536 124 b 215 385 310 124 215 225 b 404 625 215 535 294 625 z "},"ǒ":{"ha":832,"x_min":0,"x_max":0,"o":"m 428 836 b 471 856 447 836 460 842 l 606 1015 b 586 1058 625 1039 615 1058 l 539 1058 b 496 1036 519 1058 507 1051 l 424 922 l 410 922 l 331 1036 b 289 1058 319 1051 307 1058 l 240 1058 b 221 1015 211 1058 201 1039 l 357 856 b 400 836 368 842 381 836 z m 422 768 b 53 369 211 768 53 604 b 410 -22 53 140 206 -22 b 779 382 619 -22 779 149 b 422 768 779 613 626 768 z m 426 124 b 215 385 310 124 215 225 b 404 625 215 535 294 625 b 615 364 522 625 615 526 b 426 124 615 217 536 124 z "},"ô":{"ha":832,"x_min":0,"x_max":0,"o":"m 407 974 l 421 974 l 500 860 b 542 838 511 844 524 838 l 590 838 b 610 881 619 838 629 857 l 474 1040 b 431 1060 463 1054 450 1060 l 403 1060 b 360 1040 383 1060 371 1054 l 225 881 b 244 838 206 857 215 838 l 292 838 b 335 860 311 838 324 844 z m 422 768 b 53 369 211 768 53 604 b 410 -22 53 140 206 -22 b 779 382 619 -22 779 149 b 422 768 779 613 626 768 z m 426 124 b 215 385 310 124 215 225 b 404 625 215 535 294 625 b 615 364 522 625 615 526 b 426 124 615 217 536 124 z "},"ö":{"ha":832,"x_min":0,"x_max":0,"o":"m 371 1011 b 336 1046 371 1033 358 1046 l 278 1046 b 243 1011 256 1046 243 1033 l 243 921 b 278 886 243 899 256 886 l 336 886 b 371 921 358 886 371 899 z m 593 1011 b 558 1046 593 1033 581 1046 l 500 1046 b 465 1011 478 1046 465 1033 l 465 921 b 500 886 465 899 478 886 l 558 886 b 593 921 581 886 593 899 z m 422 768 b 53 369 211 768 53 604 b 410 -22 53 140 206 -22 b 779 382 619 -22 779 149 b 422 768 779 613 626 768 z m 404 625 b 615 364 522 625 615 526 b 426 124 615 217 536 124 b 215 385 310 124 215 225 b 404 625 215 535 294 625 z "},"ò":{"ha":832,"x_min":0,"x_max":0,"o":"m 289 1060 b 268 1017 260 1060 250 1040 l 396 858 b 439 838 408 843 421 838 l 454 838 b 479 879 482 838 492 854 l 394 1035 b 353 1060 385 1053 372 1060 z m 422 768 b 53 369 211 768 53 604 b 410 -22 53 140 206 -22 b 779 382 619 -22 779 149 b 422 768 779 613 626 768 z m 404 625 b 615 364 522 625 615 526 b 426 124 615 217 536 124 b 215 385 310 124 215 225 b 404 625 215 535 294 625 z "},"ő":{"ha":832,"x_min":0,"x_max":0,"o":"m 501 1019 b 481 1063 519 1043 510 1063 l 417 1063 b 375 1038 397 1063 385 1056 l 290 882 b 315 840 278 857 288 840 l 331 840 b 374 861 349 840 361 846 z m 732 1019 b 711 1063 750 1043 740 1063 l 647 1063 b 606 1038 628 1063 615 1056 l 521 882 b 546 840 508 857 518 840 l 561 840 b 604 861 579 840 592 846 z m 422 768 b 53 369 211 768 53 604 b 410 -22 53 140 206 -22 b 779 382 619 -22 779 149 b 422 768 779 613 626 768 z m 404 625 b 615 364 522 625 615 526 b 426 124 615 217 536 124 b 215 385 310 124 215 225 b 404 625 215 535 294 625 z "},"ō":{"ha":832,"x_min":0,"x_max":0,"o":"m 593 963 b 558 997 593 985 581 997 l 274 997 b 239 963 251 997 239 985 l 239 933 b 274 899 239 911 251 899 l 558 899 b 593 933 581 899 593 911 z m 422 768 b 53 369 211 768 53 604 b 410 -22 53 140 206 -22 b 779 382 619 -22 779 149 b 422 768 779 613 626 768 z m 404 625 b 615 364 522 625 615 526 b 426 124 615 217 536 124 b 215 385 310 124 215 225 b 404 625 215 535 294 625 z "},"ø":{"ha":933,"x_min":0,"x_max":0,"o":"m 844 703 b 825 746 864 726 856 746 l 736 746 b 694 726 718 746 706 740 l 674 703 b 464 768 615 744 543 768 b 94 369 253 768 94 604 b 165 128 94 275 121 192 l 90 43 b 110 0 71 19 79 0 l 200 0 b 242 19 218 0 231 6 l 257 36 b 453 -22 313 -1 379 -22 b 822 382 663 -22 822 149 b 761 608 822 469 800 547 z m 257 385 b 447 625 257 535 336 625 b 568 583 492 625 533 611 l 281 258 b 257 385 265 294 257 338 z m 658 364 b 468 124 658 217 579 124 b 363 156 431 124 394 135 l 642 474 b 658 364 653 442 658 404 z "},"õ":{"ha":832,"x_min":0,"x_max":0,"o":"m 347 1033 b 219 894 261 1033 228 972 b 254 858 218 871 231 858 l 275 858 b 311 892 297 858 307 869 b 349 936 315 917 326 936 b 513 835 404 936 425 835 b 635 974 594 835 626 904 b 600 1010 636 997 624 1010 l 579 1010 b 544 975 557 1010 547 997 b 513 932 540 951 532 932 b 347 1033 471 932 443 1033 z m 422 768 b 53 369 211 768 53 604 b 410 -22 53 140 206 -22 b 779 382 619 -22 779 149 b 422 768 779 613 626 768 z m 404 625 b 615 364 522 625 615 526 b 426 124 615 217 536 124 b 215 385 310 124 215 225 b 404 625 215 535 294 625 z "},"œ":{"ha":1361,"x_min":0,"x_max":0,"o":"m 982 769 b 699 636 861 769 764 719 b 422 768 635 719 536 768 b 53 369 211 768 53 604 b 410 -22 53 140 206 -22 b 692 114 525 -22 625 29 b 969 -22 754 28 853 -22 b 1282 181 1107 -22 1224 49 b 1254 221 1292 204 1281 221 l 1169 221 b 1128 197 1150 221 1138 214 b 983 122 1092 143 1049 122 b 778 336 872 122 786 185 l 1272 336 b 1308 369 1294 336 1307 347 b 982 769 1317 592 1210 769 z m 426 124 b 215 385 310 124 215 225 b 404 625 215 535 294 625 b 615 364 522 625 615 526 b 426 124 615 217 536 124 z m 788 464 b 968 625 807 546 854 625 b 1140 464 1081 625 1139 549 z "},"p":{"ha":857,"x_min":0,"x_max":0,"o":"m 497 768 b 271 644 410 768 324 729 l 261 644 l 260 711 b 225 746 260 733 247 746 l 135 746 b 100 711 113 746 100 733 l 94 -271 b 129 -306 94 -293 107 -306 l 231 -306 b 265 -271 253 -306 265 -293 l 264 46 l 271 46 b 450 -22 319 -1 374 -22 b 804 381 661 -22 804 142 b 497 768 804 604 679 768 z m 451 625 b 640 368 561 625 640 533 b 453 122 640 214 576 122 b 251 351 338 122 258 203 l 251 358 b 451 625 254 525 336 625 z "},"q":{"ha":856,"x_min":0,"x_max":0,"o":"m 358 768 b 53 379 178 768 53 607 b 401 -22 53 142 190 -22 b 583 46 478 -22 533 -1 l 593 46 l 589 -271 b 624 -306 589 -293 601 -306 l 726 -306 b 761 -271 749 -306 761 -293 l 756 711 b 721 746 756 733 743 746 l 631 746 b 596 711 608 746 596 733 l 594 644 l 583 644 b 358 768 532 731 447 768 z m 404 625 b 603 358 519 625 601 528 l 603 351 b 403 122 597 203 517 122 b 215 368 281 122 215 214 b 404 625 215 538 294 625 z "},"r":{"ha":533,"x_min":0,"x_max":0,"o":"m 501 732 b 465 765 501 756 489 768 b 272 647 390 756 321 713 l 261 647 l 260 711 b 225 746 260 733 247 746 l 135 746 b 100 711 113 746 100 733 l 94 35 b 129 0 94 13 107 0 l 231 0 b 265 35 253 0 265 13 l 263 360 b 467 593 254 547 343 588 b 501 629 489 594 501 607 z "},"ŕ":{"ha":533,"x_min":0,"x_max":0,"o":"m 438 1017 b 417 1060 456 1040 446 1060 l 353 1060 b 311 1035 333 1060 321 1053 l 226 879 b 251 838 214 854 224 838 l 267 838 b 310 858 285 838 297 843 z m 501 732 b 465 765 501 756 489 768 b 272 647 390 756 321 713 l 261 647 l 260 711 b 225 746 260 733 247 746 l 135 746 b 100 711 113 746 100 733 l 94 35 b 129 0 94 13 107 0 l 231 0 b 265 35 253 0 265 13 l 263 360 b 467 593 254 547 343 588 b 501 629 489 594 501 607 z "},"ř":{"ha":533,"x_min":0,"x_max":0,"o":"m 286 836 b 329 856 306 836 318 842 l 464 1015 b 444 1058 483 1039 474 1058 l 397 1058 b 354 1036 378 1058 365 1051 l 282 922 l 268 922 l 189 1036 b 147 1058 178 1051 165 1058 l 99 1058 b 79 1015 69 1058 60 1039 l 215 856 b 258 836 226 842 239 836 z m 261 647 l 260 711 b 225 746 260 733 247 746 l 135 746 b 100 711 113 746 100 733 l 94 35 b 129 0 94 13 107 0 l 231 0 b 265 35 253 0 265 13 l 263 360 b 467 593 254 547 343 588 b 501 629 489 594 501 607 l 501 732 b 465 765 501 756 489 768 b 272 647 390 756 321 713 z "},"s":{"ha":750,"x_min":0,"x_max":0,"o":"m 375 768 b 85 533 211 768 85 669 b 322 321 85 415 182 360 l 378 306 b 529 201 492 274 529 244 b 401 122 529 144 482 122 b 236 200 328 122 274 142 b 194 225 225 217 214 225 l 94 225 b 65 186 69 225 57 210 b 393 -22 106 76 207 -22 b 696 217 575 -22 696 72 b 453 436 696 315 632 386 l 394 453 b 246 543 290 483 246 503 b 367 625 246 589 292 625 b 515 558 432 625 481 603 b 557 536 526 543 539 536 l 646 536 b 676 574 671 536 685 550 b 375 768 649 664 547 768 z "},"ś":{"ha":750,"x_min":0,"x_max":0,"o":"m 540 1017 b 519 1060 558 1040 549 1060 l 456 1060 b 414 1035 436 1060 424 1053 l 329 879 b 354 838 317 854 326 838 l 369 838 b 413 858 388 838 400 843 z m 375 768 b 85 533 211 768 85 669 b 322 321 85 415 182 360 l 378 306 b 529 201 492 274 529 244 b 401 122 529 144 482 122 b 236 200 328 122 274 142 b 194 225 225 217 214 225 l 94 225 b 65 186 69 225 57 210 b 393 -22 106 76 207 -22 b 696 217 575 -22 696 72 b 453 436 696 315 632 386 l 394 453 b 246 543 290 483 246 503 b 367 625 246 589 292 625 b 515 558 432 625 481 603 b 557 536 526 543 539 536 l 646 536 b 676 574 671 536 685 550 b 375 768 649 664 547 768 z "},"š":{"ha":750,"x_min":0,"x_max":0,"o":"m 389 836 b 432 856 408 836 421 842 l 567 1015 b 547 1058 586 1039 576 1058 l 500 1058 b 457 1036 481 1058 468 1051 l 385 922 l 371 922 l 292 1036 b 250 1058 281 1051 268 1058 l 201 1058 b 182 1015 172 1058 163 1039 l 318 856 b 361 836 329 842 342 836 z m 394 453 b 246 543 290 483 246 503 b 367 625 246 589 292 625 b 515 558 432 625 481 603 b 557 536 526 543 539 536 l 646 536 b 676 574 671 536 685 550 b 375 768 649 664 547 768 b 85 533 211 768 85 669 b 322 321 85 415 182 360 l 378 306 b 529 201 492 274 529 244 b 401 122 529 144 482 122 b 236 200 328 122 274 142 b 194 225 225 217 214 225 l 94 225 b 65 186 69 225 57 210 b 393 -22 106 76 207 -22 b 696 217 575 -22 696 72 b 453 436 696 315 632 386 z "},"ş":{"ha":750,"x_min":0,"x_max":0,"o":"m 696 217 b 453 436 696 315 632 386 l 394 453 b 246 543 290 483 246 503 b 367 625 246 589 292 625 b 515 558 432 625 481 603 b 557 536 526 543 539 536 l 646 536 b 676 574 671 536 685 550 b 375 768 649 664 547 768 b 85 533 211 768 85 669 b 322 321 85 415 182 360 l 378 306 b 529 201 492 274 529 244 b 401 122 529 144 482 122 b 236 200 328 122 274 142 b 194 225 225 217 214 225 l 94 225 b 65 186 69 225 57 210 b 324 -18 100 90 181 4 l 296 -110 b 321 -149 289 -133 299 -149 b 403 -201 386 -149 403 -176 b 349 -246 403 -228 381 -246 b 293 -235 333 -246 314 -242 b 249 -256 271 -228 256 -233 l 246 -265 b 264 -311 239 -286 244 -303 b 349 -328 292 -324 321 -328 b 496 -197 446 -328 496 -271 b 397 -81 496 -129 454 -92 l 418 -22 b 696 217 586 -12 696 79 z "},"ß":{"ha":889,"x_min":0,"x_max":0,"o":"m 642 525 b 783 758 742 576 783 669 b 464 1042 783 903 674 1042 b 101 622 224 1042 104 861 l 96 35 b 131 0 96 13 108 0 l 239 0 b 274 35 261 0 274 13 l 267 622 b 460 899 265 817 347 899 b 628 742 557 899 628 838 b 457 583 628 661 581 594 b 422 549 435 582 422 571 l 422 481 b 458 444 422 458 435 446 b 669 288 611 438 669 382 b 444 135 669 194 601 140 b 408 99 421 133 408 121 l 408 18 b 444 -17 408 -4 421 -17 b 828 279 724 -6 828 129 b 642 525 828 389 772 481 z "},"t":{"ha":510,"x_min":0,"x_max":0,"o":"m 478 711 b 443 746 478 733 465 746 l 329 746 l 328 994 b 293 1029 328 1017 315 1029 l 203 1029 b 168 994 181 1029 168 1017 l 167 746 l 72 746 b 38 711 50 746 38 733 l 38 644 b 72 610 38 622 50 610 l 165 610 l 163 35 b 197 0 163 13 175 0 l 299 0 b 333 35 321 0 333 13 l 331 610 l 443 610 b 478 644 465 610 478 622 z "},"ť":{"ha":510,"x_min":0,"x_max":0,"o":"m 532 1044 b 496 1011 510 1044 497 1033 l 479 843 b 511 807 476 819 489 807 l 531 807 b 568 839 551 807 564 818 l 599 1007 b 567 1044 603 1031 592 1044 z m 329 746 l 328 994 b 293 1029 328 1017 315 1029 l 203 1029 b 168 994 181 1029 168 1017 l 167 746 l 72 746 b 38 711 50 746 38 733 l 38 644 b 72 610 38 622 50 610 l 165 610 l 163 35 b 197 0 163 13 175 0 l 299 0 b 333 35 321 0 333 13 l 331 610 l 443 610 b 478 644 465 610 478 622 l 478 711 b 443 746 478 733 465 746 z "},"ţ":{"ha":510,"x_min":0,"x_max":0,"o":"m 478 711 b 443 746 478 733 465 746 l 329 746 l 328 994 b 293 1029 328 1017 315 1029 l 203 1029 b 168 994 181 1029 168 1017 l 167 746 l 72 746 b 38 711 50 746 38 733 l 38 644 b 72 610 38 622 50 610 l 165 610 l 163 35 b 194 0 163 13 174 0 l 161 -110 b 186 -149 154 -133 164 -149 b 268 -201 251 -149 268 -176 b 214 -246 268 -228 246 -246 b 158 -235 199 -246 179 -242 b 114 -256 136 -228 121 -233 l 111 -265 b 129 -311 104 -286 110 -303 b 214 -328 157 -324 186 -328 b 361 -197 311 -328 361 -271 b 263 -81 361 -129 319 -92 l 292 0 l 299 0 b 333 35 321 0 333 13 l 331 610 l 443 610 b 478 644 465 610 478 622 z "},"u":{"ha":821,"x_min":0,"x_max":0,"o":"m 719 711 b 685 746 719 733 707 746 l 596 746 b 561 711 574 746 561 733 l 557 390 b 390 133 564 214 490 133 b 260 322 307 133 261 190 l 257 711 b 222 746 257 733 244 746 l 132 746 b 97 711 110 746 97 733 l 94 282 b 335 -22 93 82 190 -22 b 546 101 421 -22 494 17 l 557 101 l 556 35 b 589 0 554 13 567 0 l 692 0 b 726 35 714 0 726 13 z "},"ú":{"ha":821,"x_min":0,"x_max":0,"o":"m 574 1017 b 553 1060 592 1040 582 1060 l 489 1060 b 447 1035 469 1060 457 1053 l 363 879 b 388 838 350 854 360 838 l 403 838 b 446 858 421 838 433 843 z m 719 711 b 685 746 719 733 707 746 l 596 746 b 561 711 574 746 561 733 l 557 390 b 390 133 564 214 490 133 b 260 322 307 133 261 190 l 257 711 b 222 746 257 733 244 746 l 132 746 b 97 711 110 746 97 733 l 94 282 b 335 -22 93 82 190 -22 b 546 101 421 -22 494 17 l 557 101 l 556 35 b 589 0 554 13 567 0 l 692 0 b 726 35 714 0 726 13 z "},"ǔ":{"ha":821,"x_min":0,"x_max":0,"o":"m 421 836 b 464 856 440 836 453 842 l 599 1015 b 579 1058 618 1039 608 1058 l 532 1058 b 489 1036 513 1058 500 1051 l 417 922 l 403 922 l 324 1036 b 282 1058 313 1051 300 1058 l 233 1058 b 214 1015 204 1058 194 1039 l 350 856 b 393 836 361 842 374 836 z m 692 0 b 726 35 714 0 726 13 l 719 711 b 685 746 719 733 707 746 l 596 746 b 561 711 574 746 561 733 l 557 390 b 390 133 564 214 490 133 b 260 322 307 133 261 190 l 257 711 b 222 746 257 733 244 746 l 132 746 b 97 711 110 746 97 733 l 94 282 b 335 -22 93 82 190 -22 b 546 101 421 -22 494 17 l 557 101 l 556 35 b 589 0 554 13 567 0 z "},"û":{"ha":821,"x_min":0,"x_max":0,"o":"m 399 974 l 413 974 l 492 860 b 533 838 503 844 515 838 l 582 838 b 601 881 611 838 621 857 l 465 1040 b 422 1060 454 1054 442 1060 l 394 1060 b 351 1040 375 1060 363 1054 l 217 881 b 236 838 197 857 207 838 l 283 838 b 326 860 303 838 315 844 z m 692 0 b 726 35 714 0 726 13 l 719 711 b 685 746 719 733 707 746 l 596 746 b 561 711 574 746 561 733 l 557 390 b 390 133 564 214 490 133 b 260 322 307 133 261 190 l 257 711 b 222 746 257 733 244 746 l 132 746 b 97 711 110 746 97 733 l 94 282 b 335 -22 93 82 190 -22 b 546 101 421 -22 494 17 l 557 101 l 556 35 b 589 0 554 13 567 0 z "},"ü":{"ha":821,"x_min":0,"x_max":0,"o":"m 364 1011 b 329 1046 364 1033 351 1046 l 271 1046 b 236 1011 249 1046 236 1033 l 236 921 b 271 886 236 899 249 886 l 329 886 b 364 921 351 886 364 899 z m 586 1011 b 551 1046 586 1033 574 1046 l 493 1046 b 458 1011 471 1046 458 1033 l 458 921 b 493 886 458 899 471 886 l 551 886 b 586 921 574 886 586 899 z m 719 711 b 685 746 719 733 707 746 l 596 746 b 561 711 574 746 561 733 l 557 390 b 390 133 564 214 490 133 b 260 322 307 133 261 190 l 257 711 b 222 746 257 733 244 746 l 132 746 b 97 711 110 746 97 733 l 94 282 b 335 -22 93 82 190 -22 b 546 101 421 -22 494 17 l 557 101 l 556 35 b 589 0 554 13 567 0 l 692 0 b 726 35 714 0 726 13 z "},"ù":{"ha":821,"x_min":0,"x_max":0,"o":"m 282 1060 b 261 1017 253 1060 243 1040 l 389 858 b 432 838 401 843 414 838 l 447 838 b 472 879 475 838 485 854 l 388 1035 b 346 1060 378 1053 365 1060 z m 719 711 b 685 746 719 733 707 746 l 596 746 b 561 711 574 746 561 733 l 557 390 b 390 133 564 214 490 133 b 260 322 307 133 261 190 l 257 711 b 222 746 257 733 244 746 l 132 746 b 97 711 110 746 97 733 l 94 282 b 335 -22 93 82 190 -22 b 546 101 421 -22 494 17 l 557 101 l 556 35 b 589 0 554 13 567 0 l 692 0 b 726 35 714 0 726 13 z "},"ű":{"ha":821,"x_min":0,"x_max":0,"o":"m 493 1019 b 472 1063 511 1043 501 1063 l 408 1063 b 367 1038 389 1063 376 1056 l 282 882 b 307 840 269 857 279 840 l 322 840 b 365 861 340 840 353 846 z m 724 1019 b 703 1063 742 1043 732 1063 l 639 1063 b 597 1038 619 1063 607 1056 l 513 882 b 538 840 500 857 510 840 l 553 840 b 596 861 571 840 583 846 z m 719 711 b 685 746 719 733 707 746 l 596 746 b 561 711 574 746 561 733 l 557 390 b 390 133 564 214 490 133 b 260 322 307 133 261 190 l 257 711 b 222 746 257 733 244 746 l 132 746 b 97 711 110 746 97 733 l 94 282 b 335 -22 93 82 190 -22 b 546 101 421 -22 494 17 l 557 101 l 556 35 b 589 0 554 13 567 0 l 692 0 b 726 35 714 0 726 13 z "},"ū":{"ha":821,"x_min":0,"x_max":0,"o":"m 586 963 b 551 997 586 985 574 997 l 267 997 b 232 963 244 997 232 985 l 232 933 b 267 899 232 911 244 899 l 551 899 b 586 933 574 899 586 911 z m 719 711 b 685 746 719 733 707 746 l 596 746 b 561 711 574 746 561 733 l 557 390 b 390 133 564 214 490 133 b 260 322 307 133 261 190 l 257 711 b 222 746 257 733 244 746 l 132 746 b 97 711 110 746 97 733 l 94 282 b 335 -22 93 82 190 -22 b 546 101 421 -22 494 17 l 557 101 l 556 35 b 589 0 554 13 567 0 l 692 0 b 726 35 714 0 726 13 z "},"ů":{"ha":821,"x_min":0,"x_max":0,"o":"m 408 1078 b 267 938 331 1078 267 1022 b 408 796 267 853 331 796 b 549 938 486 796 549 853 b 408 1078 549 1022 486 1078 z m 408 1004 b 475 938 446 1004 475 979 b 408 869 475 897 446 869 b 340 938 371 869 340 897 b 408 1004 340 979 371 1004 z m 719 711 b 685 746 719 733 707 746 l 596 746 b 561 711 574 746 561 733 l 557 390 b 390 133 564 214 490 133 b 260 322 307 133 261 190 l 257 711 b 222 746 257 733 244 746 l 132 746 b 97 711 110 746 97 733 l 94 282 b 335 -22 93 82 190 -22 b 546 101 421 -22 494 17 l 557 101 l 556 35 b 589 0 554 13 567 0 l 692 0 b 726 35 714 0 726 13 z "},"v":{"ha":763,"x_min":0,"x_max":0,"o":"m 724 707 b 694 746 731 731 719 746 l 608 746 b 568 718 588 746 575 736 l 390 176 l 374 176 l 194 718 b 154 746 188 736 175 746 l 68 746 b 39 707 43 746 32 731 l 265 28 b 306 0 272 10 285 0 l 457 0 b 497 28 478 0 490 10 z "},"w":{"ha":1093,"x_min":0,"x_max":0,"o":"m 942 746 b 904 715 921 746 908 736 l 772 175 l 756 175 l 625 715 b 588 746 621 736 608 746 l 511 746 b 474 715 490 746 478 736 l 340 175 l 322 175 l 192 715 b 154 746 188 736 175 746 l 67 746 b 36 707 42 746 31 731 l 214 29 b 253 0 219 10 232 0 l 400 0 b 438 31 421 0 433 10 l 540 436 l 550 436 l 654 29 b 693 0 660 10 672 0 l 838 0 b 876 29 858 0 871 10 l 1056 707 b 1025 746 1061 731 1050 746 z "},"ẃ":{"ha":1093,"x_min":0,"x_max":0,"o":"m 711 1017 b 690 1060 729 1040 719 1060 l 626 1060 b 585 1035 607 1060 594 1053 l 500 879 b 525 838 488 854 497 838 l 540 838 b 583 858 558 838 571 843 z m 942 746 b 904 715 921 746 908 736 l 772 175 l 756 175 l 625 715 b 588 746 621 736 608 746 l 511 746 b 474 715 490 746 478 736 l 340 175 l 322 175 l 192 715 b 154 746 188 736 175 746 l 67 746 b 36 707 42 746 31 731 l 214 29 b 253 0 219 10 232 0 l 400 0 b 438 31 421 0 433 10 l 540 436 l 550 436 l 654 29 b 693 0 660 10 672 0 l 838 0 b 876 29 858 0 871 10 l 1056 707 b 1025 746 1061 731 1050 746 z "},"ŵ":{"ha":1093,"x_min":0,"x_max":0,"o":"m 538 974 l 551 974 l 631 860 b 672 838 642 844 654 838 l 721 838 b 740 881 750 838 760 857 l 604 1040 b 561 1060 593 1054 581 1060 l 533 1060 b 490 1040 514 1060 501 1054 l 356 881 b 375 838 336 857 346 838 l 422 838 b 465 860 442 838 454 844 z m 942 746 b 904 715 921 746 908 736 l 772 175 l 756 175 l 625 715 b 588 746 621 736 608 746 l 511 746 b 474 715 490 746 478 736 l 340 175 l 322 175 l 192 715 b 154 746 188 736 175 746 l 67 746 b 36 707 42 746 31 731 l 214 29 b 253 0 219 10 232 0 l 400 0 b 438 31 421 0 433 10 l 540 436 l 550 436 l 654 29 b 693 0 660 10 672 0 l 838 0 b 876 29 858 0 871 10 l 1056 707 b 1025 746 1061 731 1050 746 z "},"ẅ":{"ha":1093,"x_min":0,"x_max":0,"o":"m 501 1011 b 467 1046 501 1033 489 1046 l 408 1046 b 374 1011 386 1046 374 1033 l 374 921 b 408 886 374 899 386 886 l 467 886 b 501 921 489 886 501 899 z m 724 1011 b 689 1046 724 1033 711 1046 l 631 1046 b 596 1011 608 1046 596 1033 l 596 921 b 631 886 596 899 608 886 l 689 886 b 724 921 711 886 724 899 z m 942 746 b 904 715 921 746 908 736 l 772 175 l 756 175 l 625 715 b 588 746 621 736 608 746 l 511 746 b 474 715 490 746 478 736 l 340 175 l 322 175 l 192 715 b 154 746 188 736 175 746 l 67 746 b 36 707 42 746 31 731 l 214 29 b 253 0 219 10 232 0 l 400 0 b 438 31 421 0 433 10 l 540 436 l 550 436 l 654 29 b 693 0 660 10 672 0 l 838 0 b 876 29 858 0 871 10 l 1056 707 b 1025 746 1061 731 1050 746 z "},"ẁ":{"ha":1093,"x_min":0,"x_max":0,"o":"m 585 838 b 610 879 613 838 622 854 l 525 1035 b 483 1060 515 1053 503 1060 l 419 1060 b 399 1017 390 1060 381 1040 l 526 858 b 569 838 539 843 551 838 z m 942 746 b 904 715 921 746 908 736 l 772 175 l 756 175 l 625 715 b 588 746 621 736 608 746 l 511 746 b 474 715 490 746 478 736 l 340 175 l 322 175 l 192 715 b 154 746 188 736 175 746 l 67 746 b 36 707 42 746 31 731 l 214 29 b 253 0 219 10 232 0 l 400 0 b 438 31 421 0 433 10 l 540 436 l 550 436 l 654 29 b 693 0 660 10 672 0 l 838 0 b 876 29 858 0 871 10 l 1056 707 b 1025 746 1061 731 1050 746 z "},"x":{"ha":796,"x_min":0,"x_max":0,"o":"m 501 365 l 736 704 b 714 746 753 728 743 746 l 622 746 b 581 724 604 746 592 739 l 418 489 l 258 724 b 217 746 247 739 235 746 l 119 746 b 97 704 92 746 82 728 l 307 389 l 61 42 b 83 0 44 18 54 0 l 189 0 b 231 22 207 0 219 7 l 390 263 l 549 22 b 590 0 560 7 572 0 l 699 0 b 721 42 728 0 738 18 z "},"y":{"ha":771,"x_min":0,"x_max":0,"o":"m 617 746 b 578 718 597 746 585 738 l 385 183 l 374 183 l 194 718 b 154 746 188 736 175 746 l 68 746 b 40 706 43 746 32 731 l 304 -42 l 222 -265 b 251 -306 214 -290 225 -306 l 354 -306 b 393 -278 374 -306 386 -297 l 731 706 b 703 746 739 731 728 746 z "},"ý":{"ha":771,"x_min":0,"x_max":0,"o":"m 554 1017 b 533 1060 572 1040 563 1060 l 469 1060 b 428 1035 450 1060 438 1053 l 343 879 b 368 838 331 854 340 838 l 383 838 b 426 858 401 838 414 843 z m 617 746 b 578 718 597 746 585 738 l 385 183 l 374 183 l 194 718 b 154 746 188 736 175 746 l 68 746 b 40 706 43 746 32 731 l 304 -42 l 222 -265 b 251 -306 214 -290 225 -306 l 354 -306 b 393 -278 374 -306 386 -297 l 731 706 b 703 746 739 731 728 746 z "},"ŷ":{"ha":771,"x_min":0,"x_max":0,"o":"m 379 974 l 393 974 l 472 860 b 514 838 483 844 496 838 l 563 838 b 582 881 592 838 601 857 l 446 1040 b 403 1060 435 1054 422 1060 l 375 1060 b 332 1040 356 1060 343 1054 l 197 881 b 217 838 178 857 188 838 l 264 838 b 307 860 283 838 296 844 z m 617 746 b 578 718 597 746 585 738 l 385 183 l 374 183 l 194 718 b 154 746 188 736 175 746 l 68 746 b 40 706 43 746 32 731 l 304 -42 l 222 -265 b 251 -306 214 -290 225 -306 l 354 -306 b 393 -278 374 -306 386 -297 l 731 706 b 703 746 739 731 728 746 z "},"ÿ":{"ha":771,"x_min":0,"x_max":0,"o":"m 344 1011 b 310 1046 344 1033 332 1046 l 251 1046 b 217 1011 229 1046 217 1033 l 217 921 b 251 886 217 899 229 886 l 310 886 b 344 921 332 886 344 899 z m 567 1011 b 532 1046 567 1033 554 1046 l 474 1046 b 439 1011 451 1046 439 1033 l 439 921 b 474 886 439 899 451 886 l 532 886 b 567 921 554 886 567 899 z m 617 746 b 578 718 597 746 585 738 l 385 183 l 374 183 l 194 718 b 154 746 188 736 175 746 l 68 746 b 40 706 43 746 32 731 l 304 -42 l 222 -265 b 251 -306 214 -290 225 -306 l 354 -306 b 393 -278 374 -306 386 -297 l 731 706 b 703 746 739 731 728 746 z "},"ỳ":{"ha":771,"x_min":0,"x_max":0,"o":"m 428 838 b 453 879 456 838 465 854 l 368 1035 b 326 1060 358 1053 346 1060 l 263 1060 b 242 1017 233 1060 224 1040 l 369 858 b 413 838 382 843 394 838 z m 617 746 b 578 718 597 746 585 738 l 385 183 l 374 183 l 194 718 b 154 746 188 736 175 746 l 68 746 b 40 706 43 746 32 731 l 304 -42 l 222 -265 b 251 -306 214 -290 225 -306 l 354 -306 b 393 -278 374 -306 386 -297 l 731 706 b 703 746 739 731 728 746 z "},"z":{"ha":678,"x_min":0,"x_max":0,"o":"m 617 711 b 582 746 617 733 604 746 l 100 746 b 65 711 78 746 65 733 l 65 644 b 100 610 65 622 78 610 l 435 610 l 435 600 l 69 144 b 53 114 60 133 53 114 l 53 35 b 88 0 53 13 65 0 l 590 0 b 625 35 613 0 625 13 l 625 101 b 590 136 625 124 613 136 l 246 136 l 246 144 l 599 599 b 617 632 608 611 617 632 z "},"ź":{"ha":678,"x_min":0,"x_max":0,"o":"m 492 1017 b 471 1060 510 1040 500 1060 l 407 1060 b 365 1035 388 1060 375 1053 l 281 879 b 306 838 268 854 278 838 l 321 838 b 364 858 339 838 351 843 z m 617 711 b 582 746 617 733 604 746 l 100 746 b 65 711 78 746 65 733 l 65 644 b 100 610 65 622 78 610 l 435 610 l 435 600 l 69 144 b 53 114 60 133 53 114 l 53 35 b 88 0 53 13 65 0 l 590 0 b 625 35 613 0 625 13 l 625 101 b 590 136 625 124 613 136 l 246 136 l 246 144 l 599 599 b 617 632 608 611 617 632 z "},"ž":{"ha":678,"x_min":0,"x_max":0,"o":"m 339 836 b 382 856 358 836 371 842 l 517 1015 b 497 1058 536 1039 526 1058 l 450 1058 b 407 1036 431 1058 418 1051 l 335 922 l 321 922 l 242 1036 b 200 1058 231 1051 218 1058 l 151 1058 b 132 1015 122 1058 113 1039 l 268 856 b 311 836 279 842 292 836 z m 246 136 l 246 144 l 599 599 b 617 632 608 611 617 632 l 617 711 b 582 746 617 733 604 746 l 100 746 b 65 711 78 746 65 733 l 65 644 b 100 610 65 622 78 610 l 435 610 l 435 600 l 69 144 b 53 114 60 133 53 114 l 53 35 b 88 0 53 13 65 0 l 590 0 b 625 35 613 0 625 13 l 625 101 b 590 136 625 124 613 136 z "},"ż":{"ha":678,"x_min":0,"x_max":0,"o":"m 407 1010 b 372 1044 407 1032 394 1044 l 282 1044 b 247 1010 260 1044 247 1032 l 247 919 b 282 885 247 897 260 885 l 372 885 b 407 919 394 885 407 897 z m 617 711 b 582 746 617 733 604 746 l 100 746 b 65 711 78 746 65 733 l 65 644 b 100 610 65 622 78 610 l 435 610 l 435 600 l 69 144 b 53 114 60 133 53 114 l 53 35 b 88 0 53 13 65 0 l 590 0 b 625 35 613 0 625 13 l 625 101 b 590 136 625 124 613 136 l 246 136 l 246 144 l 599 599 b 617 632 608 611 617 632 z "},"⁰":{"ha":440,"x_min":0,"x_max":0,"o":"m 224 1024 b 61 832 129 1024 61 956 b 219 642 61 708 128 642 b 379 836 311 642 379 711 b 224 1024 379 958 314 1024 z m 217 931 b 276 831 244 931 276 908 b 224 735 276 763 254 735 b 164 836 197 735 164 757 b 217 931 164 901 186 931 z "},"¹":{"ha":411,"x_min":0,"x_max":0,"o":"m 313 982 b 278 1017 313 1004 300 1017 l 182 1017 b 139 1000 164 1017 151 1013 l 88 956 b 85 906 71 940 69 922 l 101 888 b 150 886 117 871 133 871 l 199 931 l 204 931 l 203 683 b 238 649 203 661 215 649 l 282 649 b 317 683 304 649 317 661 z "},"²":{"ha":471,"x_min":0,"x_max":0,"o":"m 261 1024 b 99 911 163 1024 113 963 b 135 890 96 899 111 890 l 167 890 b 208 914 186 890 194 900 b 254 931 221 926 239 931 b 299 894 283 931 299 915 b 251 835 299 875 283 860 l 124 729 b 113 703 113 721 113 713 l 113 683 b 147 649 113 661 125 649 l 374 649 b 408 683 396 649 408 661 l 408 697 b 374 732 408 719 396 732 l 279 732 l 279 739 l 325 776 b 403 906 385 824 403 869 b 261 1024 403 961 360 1024 z "},"³":{"ha":446,"x_min":0,"x_max":0,"o":"m 307 838 b 369 921 358 858 369 896 b 229 1024 369 969 331 1024 b 78 943 142 1024 97 983 b 107 906 67 921 82 906 l 140 906 b 182 928 158 906 167 915 b 218 938 192 935 204 938 b 269 904 247 938 269 924 b 185 868 269 886 256 868 b 160 833 168 868 160 856 l 160 829 b 185 794 160 807 168 794 b 281 757 257 794 281 781 b 226 726 281 733 258 726 b 176 742 201 726 186 732 b 136 767 163 757 156 767 l 99 767 b 67 731 75 767 60 753 b 226 642 83 686 132 642 b 383 751 329 642 383 692 b 307 838 383 799 349 825 z "},"⁴":{"ha":479,"x_min":0,"x_max":0,"o":"m 417 743 b 382 778 417 765 404 778 l 343 778 l 342 982 b 307 1017 342 1004 329 1017 l 260 1017 b 232 1001 247 1017 240 1011 l 72 807 b 61 758 63 794 61 785 l 61 733 b 96 699 61 711 74 699 l 244 699 l 244 683 b 279 649 244 661 257 649 l 308 649 b 343 683 331 649 343 661 l 343 699 l 382 699 b 417 733 404 699 417 711 z m 246 778 l 154 778 l 154 781 l 243 890 l 246 890 z "},"⁵":{"ha":440,"x_min":0,"x_max":0,"o":"m 261 901 b 182 881 232 901 204 894 l 174 881 l 181 932 l 331 932 b 365 967 353 932 365 944 l 365 982 b 331 1017 365 1004 353 1017 l 128 1017 b 90 983 106 1017 93 1006 l 75 840 b 108 804 72 818 85 804 l 146 804 b 189 811 163 804 174 808 b 225 815 200 814 213 815 b 275 769 257 815 275 797 b 226 726 275 746 261 726 b 181 739 210 726 193 729 b 138 760 165 751 156 760 l 100 760 b 69 722 76 760 60 744 b 221 642 89 679 138 642 b 379 781 326 642 379 703 b 261 901 379 857 326 901 z "},"⁶":{"ha":446,"x_min":0,"x_max":0,"o":"m 257 882 b 167 861 222 882 190 872 l 161 861 b 231 940 167 907 189 940 b 265 931 244 940 256 936 b 308 913 281 921 289 913 l 339 913 b 368 951 364 913 379 929 b 229 1024 346 992 296 1024 b 57 828 125 1024 57 944 b 229 642 57 700 136 642 b 385 768 310 642 385 690 b 257 882 385 833 335 882 z m 238 725 b 164 789 206 725 175 742 b 231 804 186 800 211 804 b 282 761 272 804 282 779 b 238 725 282 732 258 725 z "},"⁷":{"ha":429,"x_min":0,"x_max":0,"o":"m 96 1017 b 61 982 74 1017 61 1004 l 61 960 b 96 925 61 938 74 925 l 246 926 l 246 918 b 119 690 200 847 158 768 b 144 649 107 665 118 649 l 194 649 b 235 676 214 649 226 657 b 356 928 268 760 313 851 b 368 964 363 942 368 953 l 368 982 b 333 1017 368 1004 356 1017 z "},"⁸":{"ha":425,"x_min":0,"x_max":0,"o":"m 213 1024 b 72 917 128 1024 72 978 b 126 844 72 890 82 858 l 126 839 b 57 749 96 826 57 799 b 214 642 57 686 117 642 b 368 749 314 642 368 688 b 301 839 368 796 335 828 l 301 843 b 354 919 343 861 354 893 b 213 1024 354 978 297 1024 z m 213 949 b 260 915 242 949 260 936 b 213 882 260 897 247 882 b 165 915 181 882 165 896 b 213 949 165 935 183 949 z m 213 794 b 268 756 251 794 268 776 b 213 714 268 732 251 714 b 157 756 175 714 157 732 b 213 794 157 776 175 794 z "},"⁹":{"ha":492,"x_min":0,"x_max":0,"o":"m 264 1024 b 106 899 182 1024 106 978 b 233 783 106 829 156 783 b 325 804 269 783 301 792 l 331 804 b 254 725 326 763 304 725 b 215 735 240 725 226 728 b 172 754 200 744 190 754 l 142 753 b 114 714 117 753 101 736 b 256 642 136 675 185 642 b 435 838 367 642 435 721 b 264 1024 435 967 356 1024 z m 260 863 b 208 906 218 863 208 888 b 253 943 208 929 226 943 b 326 876 281 943 314 929 b 260 863 304 865 279 863 z "},"*":{"ha":669,"x_min":0,"x_max":0,"o":"m 413 776 l 538 829 b 554 875 560 838 565 854 l 532 915 b 483 926 521 936 503 940 l 375 844 l 392 981 b 360 1017 394 1004 382 1017 l 314 1018 b 281 981 290 1018 278 1004 l 297 844 l 188 928 b 140 918 169 942 151 939 l 117 878 b 132 831 104 857 110 840 l 256 778 l 132 725 b 115 679 110 717 104 700 l 139 638 b 186 628 150 617 168 614 l 296 710 l 278 576 b 311 539 275 553 288 539 l 357 539 b 390 575 381 539 393 553 l 375 708 l 482 626 b 529 636 500 613 518 615 l 554 678 b 538 724 565 699 560 715 z "},"\\":{"ha":606,"x_min":0,"x_max":0,"o":"m 76 1015 b 49 975 51 1015 40 1000 l 386 28 b 425 0 393 8 406 0 l 529 0 b 557 40 554 0 565 15 l 218 988 b 179 1015 211 1007 199 1015 z "},"·":{"ha":524,"x_min":0,"x_max":0,"o":"m 353 443 b 318 478 353 465 340 478 l 204 478 b 169 443 182 478 169 465 l 169 346 b 204 311 169 324 182 311 l 318 311 b 353 346 340 311 353 324 z "},"•":{"ha":779,"x_min":0,"x_max":0,"o":"m 390 622 b 169 403 268 622 169 525 b 390 183 169 281 268 183 b 610 403 511 183 610 281 b 390 622 610 525 511 622 z "},":":{"ha":476,"x_min":0,"x_max":0,"o":"m 331 735 b 296 769 331 757 318 769 l 175 769 b 140 735 153 769 140 757 l 140 629 b 175 594 140 607 153 594 l 296 594 b 331 629 318 594 331 607 z m 329 156 b 294 190 329 178 317 190 l 174 190 b 139 156 151 190 139 178 l 139 49 b 174 14 139 26 151 14 l 294 14 b 329 49 317 14 329 26 z "},",":{"ha":528,"x_min":0,"x_max":0,"o":"m 358 135 b 324 169 358 157 346 169 l 201 169 b 167 135 179 169 167 157 l 167 26 b 192 -14 167 7 175 -4 b 194 -212 257 -57 249 -135 b 204 -261 181 -233 183 -250 b 253 -254 222 -271 238 -269 b 358 44 325 -181 358 -100 z "},"…":{"ha":1324,"x_min":0,"x_max":0,"o":"m 329 171 b 294 206 329 193 317 206 l 174 206 b 139 171 151 206 139 193 l 139 65 b 174 31 139 43 151 31 l 294 31 b 329 65 317 31 329 43 z m 754 171 b 719 206 754 193 742 206 l 597 206 b 563 171 575 206 563 193 l 563 65 b 597 31 563 43 575 31 l 719 31 b 754 65 742 31 754 43 z m 1178 171 b 1143 206 1178 193 1165 206 l 1022 206 b 988 171 1000 206 988 193 l 988 65 b 1022 31 988 43 1000 31 l 1143 31 b 1178 65 1165 31 1178 43 z "},"!":{"ha":531,"x_min":0,"x_max":0,"o":"m 351 990 b 317 1025 351 1013 339 1025 l 228 1025 b 193 990 206 1025 193 1013 l 186 356 b 221 321 186 333 199 321 l 324 321 b 358 356 346 321 358 333 z m 361 142 b 326 176 361 164 349 176 l 204 176 b 169 142 182 176 169 164 l 169 35 b 204 0 169 13 182 0 l 326 0 b 361 35 349 0 361 13 z "},"¡":{"ha":469,"x_min":0,"x_max":0,"o":"m 139 619 b 174 585 139 597 151 585 l 296 585 b 331 619 318 585 331 597 l 331 726 b 296 761 331 749 318 761 l 174 761 b 139 726 151 761 139 749 z m 147 -229 b 182 -264 147 -251 160 -264 l 272 -264 b 307 -229 294 -264 307 -251 l 314 406 b 279 440 314 428 301 440 l 176 440 b 142 406 154 440 142 428 z "},"#":{"ha":1064,"x_min":0,"x_max":0,"o":"m 781 619 l 936 619 b 974 650 957 619 969 629 l 986 711 b 956 749 992 735 981 749 l 807 749 l 853 978 b 822 1015 858 1001 847 1015 l 760 1015 b 721 985 738 1015 725 1006 l 672 749 l 481 749 l 526 978 b 496 1015 532 1001 521 1015 l 433 1015 b 394 985 411 1015 399 1006 l 346 749 l 188 749 b 150 718 167 749 154 739 l 138 657 b 168 619 132 633 143 619 l 318 619 l 286 465 l 129 465 b 90 435 107 465 94 456 l 78 374 b 108 336 72 350 85 336 l 260 336 l 197 38 b 228 0 192 14 203 0 l 294 0 b 333 31 315 0 329 10 l 396 336 l 586 336 l 524 38 b 554 0 518 14 529 0 l 621 0 b 660 31 642 0 656 10 l 722 336 l 878 336 b 915 367 899 336 911 346 l 928 428 b 897 465 933 451 922 465 l 749 465 z m 646 619 l 613 465 l 422 465 l 454 619 z "},".":{"ha":461,"x_min":0,"x_max":0,"o":"m 322 133 b 288 168 322 156 310 168 l 174 168 b 139 133 151 168 139 156 l 139 36 b 174 1 139 14 151 1 l 288 1 b 322 36 310 1 322 14 z "},"?":{"ha":832,"x_min":0,"x_max":0,"o":"m 436 1042 b 74 768 218 1042 100 900 b 108 744 71 753 83 744 l 200 744 b 239 774 221 744 232 754 b 426 890 269 854 343 890 b 600 735 532 890 600 835 b 344 471 600 643 543 564 b 317 429 325 463 317 450 l 317 325 b 351 290 317 303 329 290 l 457 290 b 492 325 479 290 492 303 l 492 393 b 763 744 675 486 763 600 b 436 1042 763 903 653 1042 z m 465 117 b 431 151 465 139 453 151 l 317 151 b 282 117 294 151 282 139 l 282 19 b 317 -15 282 -3 294 -15 l 431 -15 b 465 19 453 -15 465 -3 z "},"¿":{"ha":832,"x_min":0,"x_max":0,"o":"m 367 629 b 401 594 367 607 379 594 l 515 594 b 550 629 538 594 550 607 l 550 726 b 515 761 550 749 538 761 l 401 761 b 367 726 379 761 367 749 z m 396 -296 b 758 -22 614 -296 731 -154 b 724 1 761 -8 749 1 l 632 1 b 593 -28 611 1 600 -8 b 406 -144 563 -107 489 -144 b 232 11 299 -144 232 -89 b 486 275 232 103 289 182 b 514 317 506 283 514 296 l 514 421 b 479 456 514 443 501 456 l 375 456 b 340 421 353 456 340 443 l 340 353 b 69 1 157 260 69 146 b 396 -296 69 -157 179 -296 z "},"\"":{"ha":736,"x_min":0,"x_max":0,"o":"m 361 990 b 329 1028 365 1014 354 1028 l 256 1028 b 219 996 235 1028 222 1017 l 178 694 b 210 657 174 671 186 657 l 269 657 b 307 689 290 657 303 668 z m 611 990 b 581 1028 615 1014 604 1028 l 507 1028 b 471 996 486 1028 474 1017 l 429 694 b 461 657 425 671 438 657 l 521 657 b 558 689 542 657 554 668 z "},"'":{"ha":485,"x_min":0,"x_max":0,"o":"m 361 990 b 329 1028 365 1014 354 1028 l 256 1028 b 219 996 235 1028 222 1017 l 178 694 b 210 657 174 671 186 657 l 269 657 b 307 689 290 657 303 668 z "},";":{"ha":467,"x_min":0,"x_max":0,"o":"m 328 735 b 293 769 328 757 315 769 l 171 769 b 136 735 149 769 136 757 l 136 629 b 171 594 136 607 149 594 l 293 594 b 328 629 315 594 328 607 z m 328 135 b 293 169 328 157 315 169 l 171 169 b 136 135 149 169 136 157 l 136 26 b 161 -15 136 7 144 -4 b 164 -212 225 -57 218 -135 b 174 -261 150 -233 153 -250 b 222 -254 192 -271 207 -269 b 328 44 294 -181 328 -100 z "},"/":{"ha":606,"x_min":0,"x_max":0,"o":"m 557 975 b 529 1015 565 1000 554 1015 l 426 1015 b 388 988 407 1015 394 1007 l 49 40 b 76 0 40 15 51 0 l 181 0 b 219 28 200 0 213 8 z "},"_":{"ha":897,"x_min":0,"x_max":0,"o":"m 846 -119 b 811 -85 846 -97 833 -85 l 88 -85 b 53 -119 65 -85 53 -97 l 53 -165 b 88 -200 53 -187 65 -200 l 811 -200 b 846 -165 833 -200 846 -187 z "},"{":{"ha":647,"x_min":0,"x_max":0,"o":"m 550 1007 b 515 1042 550 1029 538 1042 l 499 1042 b 229 764 315 1042 229 969 l 229 590 b 167 429 229 494 221 442 b 133 393 144 424 133 415 l 133 321 b 167 285 133 299 144 290 b 229 124 221 272 229 219 l 229 -44 b 499 -329 229 -251 315 -329 l 515 -329 b 550 -294 538 -329 550 -317 l 550 -226 b 519 -192 550 -204 539 -192 b 381 -37 425 -192 381 -154 l 381 153 b 297 351 381 265 346 329 l 297 363 b 381 550 346 388 381 433 l 381 750 b 519 906 381 867 425 906 b 550 940 539 906 550 918 z "},"}":{"ha":647,"x_min":0,"x_max":0,"o":"m 97 -294 b 132 -329 97 -317 110 -329 l 149 -329 b 418 -50 332 -329 418 -256 l 418 122 b 481 283 418 218 426 271 b 514 319 503 289 514 297 l 514 393 b 481 429 514 415 503 424 b 418 589 426 440 418 493 l 418 757 b 149 1042 418 964 332 1042 l 132 1042 b 97 1007 110 1042 97 1029 l 97 940 b 128 906 97 918 108 906 b 267 750 222 906 267 867 l 267 561 b 350 361 267 447 301 383 l 350 350 b 267 164 301 325 267 281 l 267 -37 b 128 -192 267 -154 222 -192 b 97 -226 108 -192 97 -204 z "},"[":{"ha":608,"x_min":0,"x_max":0,"o":"m 279 885 l 476 885 b 511 919 499 885 511 897 l 511 979 b 476 1014 511 1001 499 1014 l 174 1014 b 139 979 151 1014 139 1001 l 133 -271 b 168 -306 133 -293 146 -306 l 476 -306 b 511 -271 499 -306 511 -293 l 511 -211 b 476 -176 511 -189 499 -176 l 286 -176 z "},"]":{"ha":608,"x_min":0,"x_max":0,"o":"m 132 1014 b 97 979 110 1014 97 1001 l 97 919 b 132 885 97 897 110 885 l 324 885 l 329 -176 l 132 -176 b 97 -211 110 -176 97 -189 l 97 -271 b 132 -306 97 -293 110 -306 l 435 -306 b 469 -271 457 -306 469 -293 l 476 979 b 442 1014 476 1001 464 1014 z "},"(":{"ha":607,"x_min":0,"x_max":0,"o":"m 446 1022 b 397 1018 428 1035 411 1033 b 136 358 238 863 136 619 b 397 -303 136 97 238 -146 b 446 -306 411 -317 428 -318 l 467 -290 b 476 -243 486 -278 489 -261 b 314 358 374 -87 314 119 b 476 958 314 599 374 804 b 468 1006 489 976 486 993 z "},")":{"ha":607,"x_min":0,"x_max":0,"o":"m 160 -306 b 208 -303 178 -318 194 -317 b 471 358 369 -146 471 96 b 208 1019 471 618 369 863 b 160 1022 194 1033 178 1035 l 139 1007 b 131 958 121 993 118 976 b 293 358 233 804 293 597 b 131 -243 293 118 233 -87 b 139 -290 118 -261 121 -278 z "},"—":{"ha":1297,"x_min":0,"x_max":0,"o":"m 1178 429 b 1143 464 1178 451 1165 464 l 156 464 b 121 429 133 464 121 451 l 121 354 b 156 319 121 332 133 319 l 1143 319 b 1178 354 1165 319 1178 332 z "},"–":{"ha":1033,"x_min":0,"x_max":0,"o":"m 913 429 b 878 464 913 451 900 464 l 156 464 b 121 429 133 464 121 451 l 121 354 b 156 319 121 332 133 319 l 878 319 b 913 354 900 319 913 332 z "},"-":{"ha":863,"x_min":0,"x_max":0,"o":"m 696 428 b 661 463 696 450 683 463 l 201 463 b 167 428 179 463 167 450 l 167 353 b 201 318 167 331 179 318 l 661 318 b 696 353 683 318 696 331 z "},"«":{"ha":885,"x_min":0,"x_max":0,"o":"m 142 346 b 164 304 142 328 149 315 l 378 167 b 419 189 401 151 419 161 l 419 249 b 397 290 419 267 413 279 l 246 388 l 397 485 b 419 526 413 496 419 508 l 419 588 b 378 610 419 615 401 625 l 164 471 b 142 429 149 460 142 447 z m 742 588 b 700 610 742 615 724 625 l 486 471 b 464 429 471 460 464 447 l 464 346 b 486 304 464 328 471 315 l 700 167 b 742 189 724 151 742 161 l 742 249 b 719 290 742 267 735 279 l 568 388 l 719 485 b 742 526 735 496 742 508 z "},"»":{"ha":885,"x_min":0,"x_max":0,"o":"m 142 528 b 164 486 142 510 149 497 l 315 389 l 164 292 b 142 250 149 281 142 268 l 142 189 b 183 167 142 161 160 151 l 397 306 b 419 347 413 317 419 329 l 419 431 b 397 472 419 449 413 461 l 183 610 b 142 588 160 625 142 615 z m 506 610 b 464 588 482 626 464 615 l 464 528 b 486 486 464 510 471 497 l 638 389 l 486 292 b 464 250 471 281 464 268 l 464 189 b 506 167 464 161 482 151 l 719 306 b 742 347 735 317 742 329 l 742 431 b 719 472 742 449 735 461 z "},"‹":{"ha":561,"x_min":0,"x_max":0,"o":"m 419 588 b 378 610 419 615 401 625 l 164 471 b 142 429 149 460 142 447 l 142 346 b 164 304 142 328 149 315 l 378 167 b 419 189 401 151 419 161 l 419 249 b 397 290 419 267 413 279 l 246 388 l 397 485 b 419 526 413 496 419 508 z "},"›":{"ha":561,"x_min":0,"x_max":0,"o":"m 183 610 b 142 588 160 626 142 615 l 142 528 b 164 486 142 510 149 497 l 315 389 l 164 292 b 142 250 149 281 142 268 l 142 189 b 183 167 142 161 160 151 l 397 306 b 419 347 413 317 419 329 l 419 431 b 397 472 419 449 413 461 z "},"„":{"ha":417,"x_min":0,"x_max":0,"o":"m 201 169 b 167 135 179 169 167 157 l 167 26 b 192 -14 167 7 175 -4 b 194 -212 257 -57 249 -135 b 204 -261 181 -233 183 -250 b 253 -254 222 -271 238 -269 b 358 44 325 -181 358 -100 l 358 135 b 324 169 358 157 346 169 z "},"“":{"ha":794,"x_min":0,"x_max":0,"o":"m 175 626 b 210 592 175 604 188 592 l 332 592 b 367 626 354 592 367 604 l 367 735 b 342 775 367 754 358 765 b 339 974 276 818 285 896 b 329 1022 353 994 350 1011 b 281 1015 311 1032 296 1031 b 175 717 208 942 175 861 z m 492 626 b 526 592 492 604 504 592 l 649 592 b 683 626 671 592 683 604 l 683 735 b 658 775 683 754 675 765 b 656 974 593 818 601 896 b 646 1022 669 994 667 1011 b 597 1015 628 1032 613 1031 b 492 717 525 942 492 861 z "},"”":{"ha":679,"x_min":0,"x_max":0,"o":"m 303 982 b 268 1017 303 1004 290 1017 l 146 1017 b 111 982 124 1017 111 1004 l 111 874 b 136 833 111 854 119 843 b 139 635 201 790 193 713 b 149 586 126 614 128 597 b 197 593 167 576 182 578 b 303 892 269 667 303 747 z m 619 982 b 585 1017 619 1004 607 1017 l 463 1017 b 428 982 440 1017 428 1004 l 428 874 b 453 833 428 854 436 843 b 456 635 518 790 510 713 b 465 586 443 614 444 597 b 514 593 483 576 499 578 b 619 892 586 667 619 747 z "},"‘":{"ha":478,"x_min":0,"x_max":0,"o":"m 176 626 b 211 592 176 604 189 592 l 332 592 b 367 626 354 592 367 604 l 367 735 b 342 776 367 754 358 765 b 340 974 278 818 286 896 b 331 1022 353 994 351 1011 b 282 1015 313 1032 297 1031 b 176 717 208 942 176 861 z "},"’":{"ha":363,"x_min":0,"x_max":0,"o":"m 303 989 b 268 1024 303 1011 290 1024 l 146 1024 b 111 989 124 1024 111 1011 l 111 881 b 136 840 111 861 119 850 b 139 642 201 799 193 719 b 149 594 125 622 128 606 b 196 601 167 585 182 586 b 303 899 269 674 303 754 z "},"‚":{"ha":417,"x_min":0,"x_max":0,"o":"m 358 135 b 324 169 358 157 346 169 l 201 169 b 167 135 179 169 167 157 l 167 26 b 192 -14 167 7 175 -4 b 194 -212 257 -57 249 -135 b 204 -261 181 -233 183 -250 b 253 -254 222 -271 238 -269 b 358 44 325 -181 358 -100 z "}," ":{"ha":274,"x_min":0,"x_max":0,"o":""},"¢":{"ha":756,"x_min":0,"x_max":0,"o":"m 414 249 b 215 494 293 249 215 313 b 406 751 215 686 293 751 b 564 658 483 751 529 719 b 604 633 574 642 585 633 l 690 633 b 722 671 715 633 728 647 b 463 890 693 771 603 868 l 467 1050 b 433 1085 468 1072 456 1085 l 371 1085 b 338 1050 349 1085 336 1072 l 342 889 b 53 489 168 861 53 714 b 342 107 53 279 164 132 l 338 -51 b 371 -86 336 -74 349 -86 l 433 -86 b 467 -51 456 -86 468 -74 l 463 108 b 714 314 596 131 679 224 b 685 353 724 338 710 353 l 599 353 b 558 328 579 353 568 344 b 414 249 532 281 493 249 z "},"¤":{"ha":1000,"x_min":0,"x_max":0,"o":"m 744 367 b 714 486 744 410 733 451 l 768 542 b 767 592 783 558 783 575 l 726 632 b 676 632 710 649 693 649 l 622 578 b 500 611 586 599 544 611 b 379 579 456 611 415 600 l 325 633 b 276 633 310 649 293 649 l 233 592 b 233 542 217 575 217 558 l 288 488 b 256 367 267 453 256 411 b 289 246 256 322 268 281 l 235 192 b 233 142 218 175 218 158 l 276 99 b 326 99 293 82 310 82 l 381 154 b 500 122 415 133 457 122 b 621 154 544 122 585 133 l 676 99 b 726 99 693 82 710 82 l 768 142 b 767 192 783 158 783 175 l 713 246 b 744 367 733 282 744 324 z m 369 367 b 500 497 369 439 428 497 b 629 367 571 497 629 439 b 500 238 629 296 571 238 b 369 367 428 238 369 296 z "},"$":{"ha":900,"x_min":0,"x_max":0,"o":"m 838 289 b 532 576 838 410 758 510 l 488 590 b 265 739 322 638 265 674 b 442 850 265 801 319 850 b 658 746 542 850 614 810 b 700 722 669 729 681 722 l 782 722 b 810 763 807 722 819 738 b 513 979 764 874 663 960 l 517 1131 b 483 1165 518 1153 506 1165 l 413 1165 b 379 1131 390 1165 378 1153 l 383 978 b 106 717 224 956 101 861 b 403 456 111 586 218 513 l 451 440 b 676 268 618 388 676 336 b 483 161 676 199 613 161 b 229 283 349 161 272 210 b 189 308 219 300 208 308 l 101 308 b 71 271 78 308 64 294 b 383 35 103 172 199 63 l 379 -129 b 413 -164 378 -151 390 -164 l 483 -164 b 517 -129 506 -164 518 -151 l 513 29 b 838 289 708 39 838 131 z "},"€":{"ha":1019,"x_min":0,"x_max":0,"o":"m 678 125 b 367 329 531 125 419 199 l 653 329 b 688 364 675 329 688 342 l 688 422 b 653 457 688 444 675 457 l 336 458 b 333 519 335 478 333 499 l 335 553 l 653 551 b 688 586 675 551 688 564 l 688 646 b 653 681 688 668 675 681 l 357 682 b 653 896 404 822 515 896 b 850 851 724 896 793 876 b 894 872 872 842 889 850 l 915 944 b 896 990 921 965 915 981 b 667 1042 819 1028 740 1042 b 193 682 435 1042 256 903 l 96 682 b 61 647 74 682 61 669 l 61 588 b 96 553 61 565 74 553 l 171 553 b 169 503 169 536 169 519 b 171 458 169 488 169 472 l 96 458 b 61 424 74 458 61 446 l 61 364 b 96 329 61 342 74 329 l 192 329 b 664 -22 251 118 422 -22 b 897 29 744 -22 825 -7 b 917 74 915 39 921 54 l 901 139 b 858 161 896 163 881 171 b 678 125 803 139 743 125 z "},"£":{"ha":961,"x_min":0,"x_max":0,"o":"m 321 150 l 321 161 b 381 397 361 213 381 290 l 381 406 l 649 406 b 683 440 671 406 683 418 l 683 515 b 649 550 683 538 671 550 l 381 550 l 381 703 b 544 899 381 838 449 899 b 707 775 624 899 681 857 b 744 744 713 754 724 744 l 829 744 b 861 782 853 744 865 758 b 551 1042 836 911 747 1042 b 224 718 351 1042 224 901 l 224 550 l 190 550 b 156 515 168 550 156 538 l 156 440 b 190 406 156 418 168 406 l 224 406 b 118 150 224 283 219 222 b 96 108 103 139 96 126 l 96 35 b 131 0 96 13 108 0 l 832 0 b 867 35 854 0 867 13 l 867 115 b 832 150 867 138 854 150 z "},"¥":{"ha":851,"x_min":0,"x_max":0,"o":"m 565 510 l 815 975 b 790 1017 828 1000 818 1017 l 692 1017 b 651 992 672 1017 660 1008 l 436 582 l 425 582 l 207 992 b 167 1017 199 1010 186 1017 l 61 1017 b 36 975 33 1017 24 1000 l 289 510 l 210 510 b 175 475 188 510 175 497 l 175 432 b 210 397 175 410 188 397 l 343 397 l 343 310 l 210 310 b 175 275 188 310 175 297 l 175 232 b 210 197 175 210 188 197 l 342 197 l 340 35 b 375 0 340 13 353 0 l 481 0 b 515 35 503 0 515 13 l 514 197 l 669 197 b 704 232 692 197 704 210 l 704 275 b 669 310 704 297 692 310 l 513 310 l 511 397 l 669 397 b 704 432 692 397 704 410 l 704 475 b 669 510 704 497 692 510 z "},"~":{"ha":926,"x_min":0,"x_max":0,"o":"m 350 536 b 169 346 224 536 176 450 b 204 314 168 325 181 314 l 263 314 b 299 347 285 314 294 325 b 353 411 303 383 318 411 b 588 283 432 411 463 283 b 763 469 708 283 753 379 b 728 506 764 493 751 506 l 669 506 b 635 471 647 506 638 493 b 588 407 631 436 618 407 b 350 536 529 407 488 536 z "},"÷":{"ha":1126,"x_min":0,"x_max":0,"o":"m 621 704 b 586 739 621 726 608 739 l 472 739 b 438 704 450 739 438 726 l 438 607 b 472 572 438 585 450 572 l 586 572 b 621 607 608 572 621 585 z m 960 408 b 925 443 960 431 947 443 l 201 443 b 167 408 179 443 167 431 l 167 333 b 201 299 167 311 179 299 l 925 299 b 960 333 947 299 960 311 z m 621 121 b 586 156 621 143 608 156 l 472 156 b 438 121 450 156 438 143 l 438 24 b 472 -11 438 1 450 -11 l 586 -11 b 621 24 608 -11 621 1 z "},"=":{"ha":1069,"x_min":0,"x_max":0,"o":"m 901 546 b 867 581 901 568 889 581 l 201 581 b 167 546 179 581 167 568 l 167 478 b 201 443 167 456 179 443 l 867 443 b 901 478 889 443 901 456 z m 901 228 b 867 263 901 250 889 263 l 201 263 b 167 228 179 263 167 250 l 167 161 b 201 126 167 139 179 126 l 867 126 b 901 161 889 126 901 139 z "},">":{"ha":993,"x_min":0,"x_max":0,"o":"m 207 703 b 167 675 183 713 167 701 l 167 604 b 193 564 167 585 175 572 l 660 375 l 193 182 b 167 142 175 175 167 161 l 167 71 b 207 43 167 44 183 33 l 800 297 b 826 338 818 304 826 318 l 826 415 b 800 456 826 435 818 449 z "},"≥":{"ha":917,"x_min":0,"x_max":0,"o":"m 207 690 b 167 663 182 699 167 688 l 167 608 b 196 568 167 588 176 575 l 569 446 l 196 328 b 167 288 176 321 167 308 l 167 236 b 206 207 167 211 182 200 l 722 376 b 750 417 740 383 750 396 l 750 475 b 722 514 750 494 742 507 z m 167 46 b 201 11 167 24 179 11 l 715 11 b 750 46 738 11 750 24 l 750 97 b 715 132 750 119 738 132 l 201 132 b 167 97 179 132 167 119 z "},"∞":{"ha":1494,"x_min":0,"x_max":0,"o":"m 1051 717 b 760 544 936 717 846 651 b 461 717 653 669 574 717 b 167 415 278 717 167 585 b 443 111 167 246 279 111 b 736 283 558 111 647 178 b 1033 111 842 160 921 111 b 1328 411 1217 111 1328 242 b 1051 717 1328 582 1215 717 z m 461 271 b 329 428 381 271 329 332 b 460 565 329 510 381 565 b 656 415 528 565 581 526 b 461 271 593 329 532 271 z m 1033 263 b 839 413 967 263 915 301 b 1033 557 900 497 961 557 b 1164 400 1113 557 1164 496 b 1033 263 1164 317 1114 263 z "},"<":{"ha":993,"x_min":0,"x_max":0,"o":"m 826 675 b 786 703 826 701 810 713 l 193 449 b 167 408 175 442 167 428 l 167 331 b 193 290 167 311 175 297 l 786 43 b 826 71 810 33 826 44 l 826 142 b 800 182 826 161 818 174 l 333 371 l 800 564 b 826 604 818 571 826 585 z "},"≤":{"ha":917,"x_min":0,"x_max":0,"o":"m 750 663 b 710 690 750 688 735 699 l 194 514 b 167 475 175 507 167 494 l 167 417 b 194 376 167 396 176 383 l 711 207 b 750 236 735 200 750 211 l 750 288 b 721 328 750 308 740 321 l 347 446 l 721 568 b 750 608 740 575 750 588 z m 167 46 b 201 11 167 24 179 11 l 715 11 b 750 46 738 11 750 24 l 750 97 b 715 132 750 119 738 132 l 201 132 b 167 97 179 132 167 119 z "},"µ":{"ha":824,"x_min":0,"x_max":0,"o":"m 694 0 b 729 35 717 0 729 13 l 724 711 b 689 746 724 733 711 746 l 599 746 b 564 711 576 746 564 733 l 561 390 b 393 133 568 214 493 133 b 263 322 310 133 264 190 l 260 711 b 225 746 260 733 247 746 l 135 746 b 100 711 113 746 100 733 l 97 282 l 97 261 l 94 -271 b 129 -306 94 -293 107 -306 l 231 -306 b 265 -271 253 -306 265 -293 b 244 -19 264 -186 260 -104 l 261 -11 b 338 -22 285 -18 310 -22 b 549 101 425 -22 497 17 l 561 101 l 558 36 b 593 0 557 13 569 0 z "},"−":{"ha":1126,"x_min":0,"x_max":0,"o":"m 1029 407 b 994 442 1029 429 1017 442 l 271 442 b 236 407 249 442 236 429 l 236 332 b 271 297 236 310 249 297 l 994 297 b 1029 332 1017 297 1029 310 z "},"×":{"ha":917,"x_min":0,"x_max":0,"o":"m 550 326 l 725 501 b 725 551 742 518 742 535 l 683 593 b 633 592 667 608 650 608 l 458 417 l 283 592 b 233 593 267 608 250 608 l 192 551 b 192 501 175 535 175 518 l 367 326 l 192 151 b 190 101 175 135 175 118 l 233 58 b 283 58 250 42 267 42 l 458 233 l 633 58 b 683 58 650 42 667 42 l 726 101 b 725 151 742 118 742 135 z "},"≠":{"ha":1069,"x_min":0,"x_max":0,"o":"m 675 443 l 867 443 b 901 478 889 443 901 456 l 901 546 b 867 581 901 568 889 581 l 739 581 l 813 740 b 788 781 824 764 814 781 l 714 781 b 672 754 693 781 681 772 l 592 581 l 201 581 b 167 546 179 581 167 568 l 167 478 b 201 443 167 456 179 443 l 526 443 l 443 263 l 201 263 b 167 228 179 263 167 250 l 167 161 b 201 126 167 139 179 126 l 379 126 l 304 -35 b 329 -75 293 -58 303 -75 l 404 -75 b 446 -49 425 -75 438 -67 l 528 126 l 867 126 b 901 161 889 126 901 139 l 901 228 b 867 263 901 250 889 263 l 590 263 z "},"%":{"ha":1140,"x_min":0,"x_max":0,"o":"m 278 1089 b 61 874 158 1089 61 993 b 278 658 61 754 158 658 b 493 874 397 658 493 754 b 278 1089 493 993 397 1089 z m 982 972 b 961 1014 999 996 989 1014 l 883 1014 b 842 992 865 1014 853 1007 l 163 42 b 183 0 146 18 156 0 l 263 0 b 304 22 281 0 293 7 z m 278 968 b 372 874 329 968 372 926 b 278 779 372 822 329 779 b 183 874 225 779 183 822 b 278 968 183 926 225 968 z m 863 463 b 647 246 744 463 647 365 b 863 31 647 128 744 31 b 1079 246 982 31 1079 128 b 863 463 1079 365 982 463 z m 863 342 b 958 246 914 342 958 299 b 863 151 958 196 914 151 b 768 246 810 151 768 196 b 863 342 768 299 810 342 z "},"‰":{"ha":1628,"x_min":0,"x_max":0,"o":"m 278 1089 b 61 874 158 1089 61 993 b 278 658 61 754 158 658 b 493 874 397 658 493 754 b 278 1089 493 993 397 1089 z m 982 972 b 961 1014 999 996 989 1014 l 883 1014 b 842 992 865 1014 853 1007 l 163 42 b 183 0 146 18 156 0 l 263 0 b 304 22 281 0 293 7 z m 278 968 b 372 874 329 968 372 926 b 278 779 372 822 329 779 b 183 874 225 779 183 822 b 278 968 183 926 225 968 z m 863 463 b 647 246 744 463 647 365 b 863 31 647 128 744 31 b 1079 246 982 31 1079 128 b 863 463 1079 365 982 463 z m 1351 463 b 1135 246 1232 463 1135 365 b 1351 31 1135 128 1232 31 b 1567 246 1471 31 1567 128 b 1351 463 1567 365 1471 463 z m 863 342 b 958 246 914 342 958 299 b 863 151 958 196 914 151 b 768 246 810 151 768 196 b 863 342 768 299 810 342 z m 1351 342 b 1446 246 1403 342 1446 299 b 1351 151 1446 196 1403 151 b 1256 246 1299 151 1256 196 b 1351 342 1256 299 1299 342 z "},"+":{"ha":1065,"x_min":0,"x_max":0,"o":"m 899 408 b 864 443 899 431 886 443 l 606 443 l 606 704 b 571 739 606 726 593 739 l 496 739 b 461 704 474 739 461 726 l 461 443 l 201 443 b 167 408 179 443 167 431 l 167 339 b 201 304 167 317 179 304 l 461 304 l 461 42 b 496 7 461 19 474 7 l 571 7 b 606 42 593 7 606 19 l 606 304 l 864 304 b 899 339 886 304 899 317 z "},"":{"ha":799,"x_min":0,"x_max":0,"o":"m 513 736 b 438 688 483 728 457 710 b 400 606 421 667 404 638 b 433 575 396 583 413 569 b 508 626 463 582 490 603 b 547 704 528 647 542 675 b 513 736 551 728 535 744 z m 546 563 b 404 529 486 563 432 529 b 282 563 374 529 331 564 b 128 469 218 561 161 524 b 96 336 106 429 96 383 b 174 93 97 247 132 153 b 293 -1 206 47 242 -1 b 415 29 338 -1 356 29 b 536 -1 471 29 489 -1 b 650 92 588 -1 621 46 b 692 165 671 119 683 146 b 675 211 700 185 692 200 b 601 346 646 232 604 275 b 656 468 601 406 632 446 b 661 517 672 483 678 500 b 546 563 619 558 568 563 z "},"|":{"ha":557,"x_min":0,"x_max":0,"o":"m 349 1042 b 314 1076 349 1064 336 1076 l 243 1076 b 208 1042 221 1076 208 1064 l 203 -306 b 238 -340 203 -328 215 -340 l 321 -340 b 356 -306 343 -340 356 -328 z "},"@":{"ha":1297,"x_min":0,"x_max":0,"o":"m 668 910 b 96 368 342 910 96 696 b 667 -169 96 46 335 -169 b 839 -147 707 -169 771 -167 b 867 -107 858 -142 868 -128 l 864 -51 b 824 -22 863 -28 847 -18 b 693 -33 772 -32 721 -33 b 246 368 407 -33 246 131 b 665 767 246 619 429 767 b 1056 401 897 767 1056 625 b 964 239 1056 294 1021 239 b 890 368 911 239 890 282 l 890 579 b 856 614 890 601 878 614 l 790 614 b 756 579 768 614 756 601 l 756 564 l 751 564 b 618 629 724 600 685 629 b 390 360 493 629 390 526 b 603 106 390 203 482 106 b 769 213 668 106 732 136 l 775 213 b 951 100 793 168 840 100 b 1201 411 1085 100 1201 196 b 668 910 1201 700 989 910 z m 636 497 b 750 385 699 497 744 458 l 750 363 b 636 239 746 285 699 239 b 532 369 572 239 532 285 b 636 497 532 446 565 497 z "},"&":{"ha":1086,"x_min":0,"x_max":0,"o":"m 965 0 b 983 43 996 0 1004 21 l 864 172 b 918 379 899 231 918 300 b 914 431 918 397 917 414 b 876 461 911 451 897 461 l 792 461 b 758 425 768 461 757 449 b 760 392 760 413 760 401 b 747 297 760 358 756 326 l 560 500 b 764 790 707 593 764 682 b 494 1039 764 928 668 1039 b 215 779 319 1039 215 925 b 322 542 215 699 244 638 b 96 240 185 457 96 369 b 460 -31 96 72 247 -31 b 761 60 579 -31 683 1 l 800 18 b 842 0 811 6 824 0 z m 493 901 b 608 783 574 901 608 842 b 465 604 608 713 553 661 b 371 783 396 688 371 740 b 493 901 371 842 413 901 z m 469 114 b 258 249 335 114 258 169 b 415 436 258 310 306 367 l 661 169 b 469 114 614 133 550 114 z "},"¶":{"ha":1054,"x_min":0,"x_max":0,"o":"m 338 856 b 53 590 163 856 53 746 b 338 321 53 433 163 321 l 454 321 l 454 -104 b 489 -139 454 -126 467 -139 l 571 -139 b 606 -104 593 -139 606 -126 l 606 821 b 571 856 606 843 593 856 z m 808 856 b 774 821 786 856 774 843 l 774 -104 b 808 -139 774 -126 786 -139 l 899 -139 b 933 -104 921 -139 933 -126 l 933 821 b 899 856 933 843 921 856 z "},"©":{"ha":1207,"x_min":0,"x_max":0,"o":"m 603 1015 b 96 508 324 1015 96 814 b 603 1 96 203 324 1 b 1111 508 885 1 1111 203 b 603 1015 1111 814 885 1015 z m 603 908 b 1004 508 824 908 1004 749 b 603 108 1004 268 824 108 b 203 508 382 108 203 268 b 603 908 203 749 382 908 z m 613 793 b 351 499 458 793 351 681 b 607 219 351 331 453 219 b 838 365 728 219 804 292 b 808 404 847 389 833 404 l 765 404 b 725 379 746 404 735 396 b 619 328 704 349 675 328 b 472 501 532 328 472 374 b 613 686 472 639 529 686 b 725 624 667 686 701 664 b 765 599 735 607 746 599 l 814 599 b 844 636 838 599 853 613 b 613 793 818 717 735 793 z "},"®":{"ha":794,"x_min":0,"x_max":0,"o":"m 397 1067 b 133 801 251 1067 133 947 b 397 536 133 657 251 536 b 663 801 543 536 663 657 b 397 1067 663 947 543 1067 z m 397 617 b 211 803 294 617 211 700 b 397 989 211 906 294 989 b 585 803 500 989 585 906 b 397 617 585 700 500 617 z m 497 840 b 414 907 497 878 469 907 l 342 907 b 307 872 319 907 307 894 l 307 731 b 338 696 307 708 318 696 b 372 731 360 696 372 708 l 372 771 l 386 771 l 418 719 b 456 696 428 703 439 696 b 478 738 483 696 494 714 l 453 778 b 497 840 482 789 497 811 z m 372 825 l 372 851 l 413 851 b 433 838 424 851 433 847 b 413 825 433 826 426 825 z "},"§":{"ha":821,"x_min":0,"x_max":0,"o":"m 633 336 b 725 508 692 378 725 436 b 469 733 725 613 665 675 l 443 742 b 288 836 329 776 288 792 b 404 915 288 879 331 915 b 544 850 465 915 513 890 b 586 828 556 835 568 828 l 674 828 b 704 865 699 828 713 842 b 414 1060 676 957 578 1060 b 126 825 250 1060 126 960 b 228 668 126 751 164 704 b 126 496 165 626 126 565 b 369 279 126 376 224 328 l 394 271 b 558 160 521 231 558 208 b 436 85 558 107 513 85 b 272 164 365 85 311 106 b 231 188 261 179 250 188 l 138 188 b 107 149 111 188 99 172 b 429 -60 147 39 246 -60 b 725 178 606 -60 725 35 b 633 336 725 243 701 293 z m 288 506 b 403 599 288 551 329 585 b 558 490 524 558 558 536 b 463 406 558 443 522 419 l 443 411 b 288 506 329 446 288 463 z "},"™":{"ha":936,"x_min":0,"x_max":0,"o":"m 408 982 b 374 1017 408 1004 396 1017 l 146 1017 b 111 982 124 1017 111 1004 l 111 976 b 146 942 111 954 124 942 l 218 943 l 218 690 b 253 656 218 668 231 656 l 265 656 b 300 690 288 656 300 668 l 300 943 l 374 943 b 408 978 396 943 408 956 z m 813 982 b 776 1017 811 1006 800 1017 l 733 1017 b 694 988 713 1017 700 1007 l 640 776 l 635 776 l 582 986 b 544 1017 578 1007 565 1017 l 496 1017 b 460 982 472 1017 461 1006 l 449 690 b 483 656 447 668 460 656 l 490 656 b 526 690 513 656 525 668 l 531 889 l 538 889 l 590 685 b 629 656 596 665 608 656 l 647 656 b 685 686 668 656 681 665 l 735 889 l 740 889 l 746 690 b 782 656 747 668 760 656 l 789 656 b 824 690 813 656 825 668 z "},"°":{"ha":654,"x_min":0,"x_max":0,"o":"m 326 1067 b 111 851 207 1067 111 971 b 326 636 111 732 207 636 b 543 851 446 636 543 732 b 326 1067 543 971 446 1067 z m 326 946 b 421 851 378 946 421 904 b 326 757 421 800 378 757 b 232 851 274 757 232 800 b 326 946 232 904 274 946 z "},"^":{"ha":1025,"x_min":0,"x_max":0,"o":"m 815 304 b 842 344 840 304 851 321 l 596 938 b 556 964 589 956 575 964 l 478 964 b 438 938 458 964 444 956 l 183 344 b 211 304 174 321 185 304 l 282 304 b 322 331 301 304 315 313 l 515 797 l 704 331 b 744 304 713 313 725 304 z "},"†":{"ha":915,"x_min":0,"x_max":0,"o":"m 749 439 b 714 474 749 461 736 474 l 524 474 l 522 717 b 488 751 522 739 510 751 l 428 751 b 393 717 406 751 393 739 l 392 474 l 201 474 b 167 439 179 474 167 461 l 167 379 b 201 344 167 357 179 344 l 390 344 l 386 -276 b 421 -311 386 -299 399 -311 l 493 -311 b 528 -276 515 -311 528 -299 l 525 344 l 714 344 b 749 379 736 344 749 357 z "},"‡":{"ha":915,"x_min":0,"x_max":0,"o":"m 524 344 l 714 344 b 749 379 736 344 749 357 l 749 439 b 714 474 749 461 736 474 l 524 474 l 522 717 b 488 751 522 739 510 751 l 428 751 b 393 717 406 751 393 739 l 392 474 l 201 474 b 167 439 179 474 167 461 l 167 379 b 201 344 167 357 179 344 l 392 344 l 392 131 l 201 131 b 167 96 179 131 167 118 l 167 36 b 201 1 167 14 179 1 l 392 1 l 390 -276 b 425 -311 390 -299 403 -311 l 490 -311 b 525 -276 513 -311 525 -299 l 524 1 l 714 1 b 749 36 736 1 749 14 l 749 96 b 714 131 749 118 736 131 l 524 131 z "},"´":{"ha":606,"x_min":0,"x_max":0,"o":"m 403 1017 b 382 1060 421 1040 411 1060 l 318 1060 b 276 1035 299 1060 286 1053 l 192 879 b 217 838 179 854 189 838 l 232 838 b 275 858 250 838 263 843 z "},"˘":{"ha":747,"x_min":0,"x_max":0,"o":"m 578 1007 b 543 1029 578 1021 565 1029 l 513 1029 b 478 1007 490 1029 478 1021 b 372 911 478 936 435 911 b 268 1007 313 911 268 936 b 233 1029 268 1021 256 1029 l 204 1029 b 169 1007 182 1029 169 1021 b 372 822 169 879 254 822 b 578 1007 493 822 578 879 z "},"ˇ":{"ha":796,"x_min":0,"x_max":0,"o":"m 524 1028 b 481 1006 504 1028 492 1021 l 408 892 l 394 892 l 315 1006 b 274 1028 304 1021 292 1028 l 225 1028 b 206 985 196 1028 186 1008 l 342 825 b 385 806 353 811 365 806 l 413 806 b 456 825 432 806 444 811 l 590 985 b 571 1028 610 1008 600 1028 z "},"¸":{"ha":599,"x_min":0,"x_max":0,"o":"m 349 -19 b 321 21 357 6 346 21 l 296 21 b 257 -8 275 21 263 11 l 229 -97 b 254 -136 222 -121 232 -136 b 336 -189 319 -136 336 -164 b 282 -233 336 -215 314 -233 b 226 -222 267 -233 247 -229 b 182 -243 204 -215 189 -221 l 179 -253 b 197 -299 172 -274 178 -290 b 282 -315 225 -311 254 -315 b 429 -185 379 -315 429 -258 b 331 -68 429 -117 388 -79 z "},"ˆ":{"ha":796,"x_min":0,"x_max":0,"o":"m 454 1040 b 411 1060 443 1054 431 1060 l 383 1060 b 340 1040 364 1060 351 1054 l 206 881 b 225 838 186 857 196 838 l 272 838 b 315 860 292 838 304 844 l 388 974 l 401 974 l 481 860 b 522 838 492 844 504 838 l 571 838 b 590 881 600 838 610 857 z "},"¨":{"ha":689,"x_min":0,"x_max":0,"o":"m 297 1010 b 263 1044 297 1032 285 1044 l 204 1044 b 169 1010 182 1044 169 1032 l 169 919 b 204 885 169 897 182 885 l 263 885 b 297 919 285 885 297 897 z m 519 1010 b 485 1044 519 1032 507 1044 l 426 1044 b 392 1010 404 1044 392 1032 l 392 919 b 426 885 392 897 404 885 l 485 885 b 519 919 507 885 519 897 z "},"˙":{"ha":499,"x_min":0,"x_max":0,"o":"m 329 1010 b 294 1044 329 1032 317 1044 l 204 1044 b 169 1010 182 1044 169 1032 l 169 919 b 204 885 169 897 182 885 l 294 885 b 329 919 317 885 329 897 z "},"`":{"ha":606,"x_min":0,"x_max":0,"o":"m 224 1060 b 203 1017 194 1060 185 1040 l 331 858 b 374 838 343 843 356 838 l 389 838 b 414 879 417 838 426 854 l 329 1035 b 288 1060 319 1053 307 1060 z "},"˝":{"ha":836,"x_min":0,"x_max":0,"o":"m 403 1017 b 382 1060 421 1040 411 1060 l 318 1060 b 276 1035 299 1060 286 1053 l 192 879 b 217 838 179 854 189 838 l 232 838 b 275 858 250 838 263 843 z m 633 1017 b 613 1060 651 1040 642 1060 l 547 1060 b 506 1035 528 1060 515 1053 l 422 879 b 447 838 410 854 419 838 l 463 838 b 506 858 481 838 493 843 z "},"¯":{"ha":693,"x_min":0,"x_max":0,"o":"m 524 932 b 489 967 524 954 511 967 l 204 967 b 169 932 182 967 169 954 l 169 903 b 204 868 169 881 182 868 l 489 868 b 524 903 511 868 524 881 z "},"˚":{"ha":622,"x_min":0,"x_max":0,"o":"m 311 1078 b 169 938 233 1078 169 1022 b 311 796 169 853 233 796 b 451 938 389 796 451 853 b 311 1078 451 1022 389 1078 z m 311 1004 b 378 938 349 1004 378 979 b 311 869 378 897 349 869 b 243 938 274 869 243 897 b 311 1004 243 979 274 1004 z "},"˜":{"ha":757,"x_min":0,"x_max":0,"o":"m 299 1033 b 171 894 213 1033 179 972 b 206 858 169 871 182 858 l 226 858 b 263 892 249 858 258 869 b 300 936 267 917 278 936 b 464 835 356 936 376 835 b 586 974 546 835 578 904 b 551 1010 588 997 575 1010 l 531 1010 b 496 975 508 1010 499 997 b 464 932 492 951 483 932 b 299 1033 422 932 394 1033 z "}}}
